<svg width="833" height="656" viewBox="0 0 833 656" fill="none" xmlns="http://www.w3.org/2000/svg">
<g filter="url(#filter0_f_1196_6606)">
<path fill-rule="evenodd" clip-rule="evenodd" d="M831.437 203.62L831.079 205.734L830.689 207.844L830.268 209.949L829.815 212.048L829.332 214.141L828.819 216.229L828.276 218.31L827.705 220.386L827.105 222.455L826.477 224.518L825.821 226.575L825.137 228.625L824.426 230.668L823.689 232.705L822.925 234.734L822.135 236.757L821.32 238.772L820.479 240.781L819.614 242.782L818.724 244.777L817.809 246.764L816.87 248.743L815.907 250.715L814.92 252.68L813.909 254.637L812.874 256.587L811.815 258.529L810.732 260.462L809.625 262.388L808.493 264.306L807.337 266.215L806.157 268.116L804.952 270.009L803.722 271.892L802.467 273.767L801.188 275.633L799.884 277.489L798.555 279.337L797.202 281.174L795.824 283.003L794.423 284.822L792.998 286.631L791.55 288.431L790.08 290.221L788.588 292.002L787.074 293.774L785.539 295.536L783.984 297.29L782.408 299.033L780.812 300.768L779.196 302.494L777.559 304.21L775.903 305.917L774.227 307.614L772.531 309.303L770.815 310.981L769.079 312.65L767.323 314.31L765.547 315.96L763.751 317.599L761.935 319.229L760.099 320.849L758.243 322.458L756.366 324.057L754.469 325.645L752.551 327.223L750.613 328.79L748.654 330.345L746.675 331.89L744.675 333.423L742.655 334.945L740.614 336.455L738.553 337.953L736.472 339.44L734.37 340.915L732.249 342.377L730.107 343.828L727.945 345.266L725.764 346.693L723.562 348.107L721.342 349.508L719.102 350.897L716.843 352.274L714.565 353.639L712.269 354.991L709.954 356.331L707.62 357.658L705.269 358.973L702.899 360.275L700.511 361.565L698.106 362.843L695.683 364.108L693.242 365.361L690.785 366.602L688.309 367.83L685.817 369.045L683.307 370.248L680.781 371.438L678.237 372.615L675.676 373.779L673.098 374.93L670.502 376.068L667.889 377.191L665.259 378.301L662.612 379.397L659.947 380.477L657.264 381.543L654.564 382.593L651.845 383.627L649.109 384.645L646.355 385.646L643.584 386.629L640.794 387.595L637.987 388.543L635.163 389.472L632.321 390.383L629.461 391.273L626.584 392.144L623.69 392.994L620.78 393.823L617.852 394.631L614.907 395.416L611.947 396.178L608.97 396.917L605.977 397.632L602.968 398.321L599.945 398.986L596.906 399.623L593.853 400.234L590.785 400.817L587.705 401.372L584.611 401.898L581.504 402.394L578.386 402.859L575.257 403.294L572.116 403.697L568.967 404.068L565.808 404.408L562.641 404.714L559.466 404.988L556.285 405.229L553.098 405.437L549.907 405.612L546.711 405.755L543.512 405.865L540.311 405.942L537.108 405.987L533.904 406L530.701 405.981L527.499 405.929L524.298 405.846L521.1 405.732L517.904 405.586L514.713 405.41L511.527 405.203L508.346 404.966L505.17 404.7L502.002 404.404L498.84 404.079L495.687 403.727L492.542 403.347L489.405 402.939L486.278 402.506L483.16 402.047L480.053 401.562L476.955 401.054L473.869 400.522L470.793 399.967L467.728 399.39L464.674 398.792L461.631 398.174L458.599 397.537L455.578 396.881L452.568 396.207L449.568 395.516L446.579 394.809L443.6 394.088L440.631 393.352L437.671 392.602L434.72 391.84L431.778 391.066L428.843 390.281L425.916 389.486L422.996 388.68L420.082 387.866L417.173 387.044L414.269 386.214L411.369 385.376L408.473 384.531L405.58 383.68L402.688 382.823L399.799 381.96L396.91 381.091L394.021 380.216L391.132 379.336L388.242 378.45L385.35 377.558L382.457 376.661L379.562 375.757L376.664 374.847L373.764 373.929L370.861 373.005L367.956 372.072L365.047 371.131L362.137 370.18L359.224 369.219L356.31 368.248L353.394 367.264L350.479 366.268L347.564 365.258L344.65 364.233L341.74 363.191L338.834 362.132L335.934 361.055L333.042 359.957L330.159 358.838L327.288 357.697L324.431 356.532L321.589 355.342L318.766 354.126L315.964 352.883L313.185 351.611L310.433 350.309L307.709 348.977L305.017 347.613L302.36 346.216L299.741 344.786L297.163 343.323L294.629 341.825L292.141 340.291L289.703 338.722L287.318 337.118L284.989 335.478L282.718 333.801L280.508 332.089L278.362 330.342L276.282 328.559L274.271 326.742L272.33 324.89L270.461 323.006L268.666 321.089L266.947 319.14L265.305 317.161L263.742 315.153L262.258 313.117L260.855 311.054L259.535 308.965L258.297 306.851L257.144 304.714L256.076 302.555L255.093 300.376L254.196 298.177L253.385 295.96L252.662 293.727L252.026 291.48L251.476 289.219L251.014 286.946L250.639 284.662L250.351 282.37L250.148 280.071L250.032 277.766L250 275.457L250.053 273.145L250.189 270.832L250.407 268.519L250.706 266.209L251.085 263.901L251.543 261.599L252.078 259.302L252.687 257.014L253.371 254.734L254.127 252.464L254.952 250.206L255.845 247.961L256.804 245.73L257.827 243.513L258.911 241.314L260.055 239.131L261.255 236.967L262.509 234.821L263.815 232.696L265.171 230.592L266.573 228.509L268.019 226.449L269.506 224.411L271.032 222.397L272.594 220.407L274.19 218.441L275.816 216.5L277.471 214.584L279.15 212.693L280.853 210.827L282.575 208.987L284.315 207.172L286.07 205.383L287.838 203.62L289.616 201.881L291.401 200.168L293.192 198.479L294.986 196.815L296.781 195.174L298.575 193.558L300.366 191.965L302.153 190.394L303.932 188.846L305.703 187.319L307.464 185.813L309.213 184.328L310.95 182.862L312.672 181.415L314.379 179.987L316.07 178.576L317.744 177.182L319.4 175.804L321.036 174.441L322.654 173.093L324.252 171.759L325.83 170.439L327.388 169.13L328.924 167.834L330.441 166.548L331.936 165.272L333.41 164.006L334.864 162.749L336.297 161.5L337.71 160.259L339.102 159.024L340.473 157.796L341.825 156.572L343.156 155.354L344.467 154.139L345.758 152.928L347.03 151.719L348.281 150.512L349.512 149.306L350.723 148.101L351.913 146.894L353.082 145.686L354.23 144.475L355.355 143.26L356.459 142.041L357.539 140.815L358.596 139.583L359.63 138.343L360.641 137.095L361.63 135.836L362.595 134.567L363.538 133.285L364.458 131.992L365.358 130.684L366.236 129.362L367.093 128.025L367.931 126.672L368.751 125.301L369.553 123.914L370.338 122.508L371.107 121.083L371.863 119.639L372.605 118.174L373.336 116.69L374.057 115.185L374.769 113.659L375.475 112.111L376.176 110.542L376.873 108.952L377.568 107.34L378.264 105.706L378.962 104.051L379.664 102.375L380.372 100.677L381.089 98.9591L381.815 97.2207L382.554 95.4625L383.306 93.685L384.075 91.889L384.863 90.0751L385.67 88.244L386.5 86.3968L387.355 84.5342L388.235 82.6573L389.145 80.7671L390.084 78.8648L391.055 76.9516L392.061 75.0288L393.102 73.0975L394.181 71.1593L395.298 69.2154L396.457 67.2674L397.657 65.3167L398.901 63.365L400.19 61.4136L401.525 59.4644L402.907 57.5188L404.337 55.5786L405.817 53.6454L407.347 51.7208L408.928 49.8066L410.561 47.9045L412.246 46.0161L413.983 44.1431L415.774 42.2873L417.618 40.4503L419.515 38.6336L421.466 36.8391L423.47 35.0683L425.527 33.3229L427.638 31.6046L429.802 29.915L432.018 28.256L434.286 26.629L436.606 25.0359L438.977 23.4782L441.399 21.9576L443.87 20.4758L446.389 19.0342L448.956 17.6345L451.57 16.2782L454.229 14.9669L456.933 13.7019L459.679 12.4847L462.467 11.3166L465.295 10.1991L468.162 9.1334L471.065 8.12075L474.004 7.16237L476.977 6.25941L479.981 5.41301L483.015 4.62423L486.077 3.89412L489.165 3.22368L492.277 2.61386L495.41 2.0656L498.564 1.57982L501.735 1.15738L504.922 0.799163L508.121 0.506011L511.332 0.27877L514.551 0.118256L517.775 0.0251574L521.004 0L524.234 0.0431372L527.462 0.154749L530.686 0.33484L533.904 0.583234L537.114 0.899577L540.311 1.28334L543.495 1.73379L546.662 2.25006L549.811 2.83107L552.939 3.47558L556.044 4.18217L559.124 4.94928L562.176 5.77516L565.2 6.65793L568.193 7.59554L571.153 8.58582L574.08 9.62647L576.972 10.715L579.827 11.849L582.646 13.0257L585.426 14.2424L588.168 15.4962L590.871 16.7843L593.535 18.1037L596.159 19.4514L598.745 20.8244L601.292 22.2196L603.8 23.6339L606.271 25.0642L608.706 26.5075L611.105 27.9608L613.469 29.4211L615.801 30.8853L618.101 32.3508L620.372 33.8145L622.616 35.274L624.833 36.7264L627.027 38.1694L629.2 39.6006L631.353 41.0177L633.49 42.4185L635.613 43.8013L637.724 45.164L639.827 46.5052L641.923 47.8232L644.015 49.1169L646.106 50.3852L648.198 51.627L650.294 52.8417L652.397 54.0287L654.508 55.1876L656.631 56.3183L658.767 57.4208L660.919 58.4954L663.088 59.5424L665.276 60.5623L667.485 61.5561L669.717 62.5246L671.972 63.469L674.252 64.3905L676.558 65.2906L678.89 66.1708L681.249 67.0327L683.636 67.8782L686.049 68.7088L688.491 69.5263L690.96 70.3324L693.456 71.1291L695.98 71.9182L698.53 72.7014L701.107 73.4807L703.708 74.2581L706.334 75.0355L708.983 75.8148L711.654 76.598L714.345 77.387L717.054 78.1838L719.781 78.9904L722.523 79.8086L725.277 80.6403L728.042 81.4874L730.816 82.3516L733.595 83.2347L736.378 84.1383L739.161 85.064L741.942 86.0134L744.719 86.9878L747.488 87.9885L750.246 89.0168L752.992 90.0738L755.721 91.1604L758.432 92.2774L761.122 93.4256L763.788 94.6055L766.428 95.8176L769.04 97.0622L771.621 98.3395L774.169 99.6495L776.683 100.992L779.16 102.368L781.599 103.777L783.996 105.218L786.351 106.692L788.661 108.198L790.925 109.736L793.139 111.305L795.304 112.906L797.417 114.538L799.475 116.199L801.479 117.891L803.426 119.611L805.316 121.36L807.146 123.136L808.915 124.938L810.623 126.767L812.269 128.621L813.852 130.498L815.371 132.399L816.825 134.322L818.215 136.266L819.54 138.23L820.799 140.214L821.993 142.215L823.121 144.233L824.184 146.267L825.182 148.315L826.116 150.378L826.986 152.452L827.793 154.539L828.537 156.636L829.219 158.742L829.84 160.856L830.402 162.978L830.905 165.106L831.35 167.24L831.739 169.378L832.073 171.52L832.354 173.665L832.582 175.812L832.759 177.96L832.887 180.109L832.967 182.257L833 184.405L832.988 186.552L832.933 188.696L832.835 190.839L832.697 192.978L832.519 195.114L832.302 197.247L832.049 199.376L831.76 201.5L831.437 203.62Z" fill="url(#paint0_linear_1196_6606)" fill-opacity="0.7"/>
<path fill-rule="evenodd" clip-rule="evenodd" d="M831.437 203.62L831.079 205.734L830.689 207.844L830.268 209.949L829.815 212.048L829.332 214.141L828.819 216.229L828.276 218.31L827.705 220.386L827.105 222.455L826.477 224.518L825.821 226.575L825.137 228.625L824.426 230.668L823.689 232.705L822.925 234.734L822.135 236.757L821.32 238.772L820.479 240.781L819.614 242.782L818.724 244.777L817.809 246.764L816.87 248.743L815.907 250.715L814.92 252.68L813.909 254.637L812.874 256.587L811.815 258.529L810.732 260.462L809.625 262.388L808.493 264.306L807.337 266.215L806.157 268.116L804.952 270.009L803.722 271.892L802.467 273.767L801.188 275.633L799.884 277.489L798.555 279.337L797.202 281.174L795.824 283.003L794.423 284.822L792.998 286.631L791.55 288.431L790.08 290.221L788.588 292.002L787.074 293.774L785.539 295.536L783.984 297.29L782.408 299.033L780.812 300.768L779.196 302.494L777.559 304.21L775.903 305.917L774.227 307.614L772.531 309.303L770.815 310.981L769.079 312.65L767.323 314.31L765.547 315.96L763.751 317.599L761.935 319.229L760.099 320.849L758.243 322.458L756.366 324.057L754.469 325.645L752.551 327.223L750.613 328.79L748.654 330.345L746.675 331.89L744.675 333.423L742.655 334.945L740.614 336.455L738.553 337.953L736.472 339.44L734.37 340.915L732.249 342.377L730.107 343.828L727.945 345.266L725.764 346.693L723.562 348.107L721.342 349.508L719.102 350.897L716.843 352.274L714.565 353.639L712.269 354.991L709.954 356.331L707.62 357.658L705.269 358.973L702.899 360.275L700.511 361.565L698.106 362.843L695.683 364.108L693.242 365.361L690.785 366.602L688.309 367.83L685.817 369.045L683.307 370.248L680.781 371.438L678.237 372.615L675.676 373.779L673.098 374.93L670.502 376.068L667.889 377.191L665.259 378.301L662.612 379.397L659.947 380.477L657.264 381.543L654.564 382.593L651.845 383.627L649.109 384.645L646.355 385.646L643.584 386.629L640.794 387.595L637.987 388.543L635.163 389.472L632.321 390.383L629.461 391.273L626.584 392.144L623.69 392.994L620.78 393.823L617.852 394.631L614.907 395.416L611.947 396.178L608.97 396.917L605.977 397.632L602.968 398.321L599.945 398.986L596.906 399.623L593.853 400.234L590.785 400.817L587.705 401.372L584.611 401.898L581.504 402.394L578.386 402.859L575.257 403.294L572.116 403.697L568.967 404.068L565.808 404.408L562.641 404.714L559.466 404.988L556.285 405.229L553.098 405.437L549.907 405.612L546.711 405.755L543.512 405.865L540.311 405.942L537.108 405.987L533.904 406L530.701 405.981L527.499 405.929L524.298 405.846L521.1 405.732L517.904 405.586L514.713 405.41L511.527 405.203L508.346 404.966L505.17 404.7L502.002 404.404L498.84 404.079L495.687 403.727L492.542 403.347L489.405 402.939L486.278 402.506L483.16 402.047L480.053 401.562L476.955 401.054L473.869 400.522L470.793 399.967L467.728 399.39L464.674 398.792L461.631 398.174L458.599 397.537L455.578 396.881L452.568 396.207L449.568 395.516L446.579 394.809L443.6 394.088L440.631 393.352L437.671 392.602L434.72 391.84L431.778 391.066L428.843 390.281L425.916 389.486L422.996 388.68L420.082 387.866L417.173 387.044L414.269 386.214L411.369 385.376L408.473 384.531L405.58 383.68L402.688 382.823L399.799 381.96L396.91 381.091L394.021 380.216L391.132 379.336L388.242 378.45L385.35 377.558L382.457 376.661L379.562 375.757L376.664 374.847L373.764 373.929L370.861 373.005L367.956 372.072L365.047 371.131L362.137 370.18L359.224 369.219L356.31 368.248L353.394 367.264L350.479 366.268L347.564 365.258L344.65 364.233L341.74 363.191L338.834 362.132L335.934 361.055L333.042 359.957L330.159 358.838L327.288 357.697L324.431 356.532L321.589 355.342L318.766 354.126L315.964 352.883L313.185 351.611L310.433 350.309L307.709 348.977L305.017 347.613L302.36 346.216L299.741 344.786L297.163 343.323L294.629 341.825L292.141 340.291L289.703 338.722L287.318 337.118L284.989 335.478L282.718 333.801L280.508 332.089L278.362 330.342L276.282 328.559L274.271 326.742L272.33 324.89L270.461 323.006L268.666 321.089L266.947 319.14L265.305 317.161L263.742 315.153L262.258 313.117L260.855 311.054L259.535 308.965L258.297 306.851L257.144 304.714L256.076 302.555L255.093 300.376L254.196 298.177L253.385 295.96L252.662 293.727L252.026 291.48L251.476 289.219L251.014 286.946L250.639 284.662L250.351 282.37L250.148 280.071L250.032 277.766L250 275.457L250.053 273.145L250.189 270.832L250.407 268.519L250.706 266.209L251.085 263.901L251.543 261.599L252.078 259.302L252.687 257.014L253.371 254.734L254.127 252.464L254.952 250.206L255.845 247.961L256.804 245.73L257.827 243.513L258.911 241.314L260.055 239.131L261.255 236.967L262.509 234.821L263.815 232.696L265.171 230.592L266.573 228.509L268.019 226.449L269.506 224.411L271.032 222.397L272.594 220.407L274.19 218.441L275.816 216.5L277.471 214.584L279.15 212.693L280.853 210.827L282.575 208.987L284.315 207.172L286.07 205.383L287.838 203.62L289.616 201.881L291.401 200.168L293.192 198.479L294.986 196.815L296.781 195.174L298.575 193.558L300.366 191.965L302.153 190.394L303.932 188.846L305.703 187.319L307.464 185.813L309.213 184.328L310.95 182.862L312.672 181.415L314.379 179.987L316.07 178.576L317.744 177.182L319.4 175.804L321.036 174.441L322.654 173.093L324.252 171.759L325.83 170.439L327.388 169.13L328.924 167.834L330.441 166.548L331.936 165.272L333.41 164.006L334.864 162.749L336.297 161.5L337.71 160.259L339.102 159.024L340.473 157.796L341.825 156.572L343.156 155.354L344.467 154.139L345.758 152.928L347.03 151.719L348.281 150.512L349.512 149.306L350.723 148.101L351.913 146.894L353.082 145.686L354.23 144.475L355.355 143.26L356.459 142.041L357.539 140.815L358.596 139.583L359.63 138.343L360.641 137.095L361.63 135.836L362.595 134.567L363.538 133.285L364.458 131.992L365.358 130.684L366.236 129.362L367.093 128.025L367.931 126.672L368.751 125.301L369.553 123.914L370.338 122.508L371.107 121.083L371.863 119.639L372.605 118.174L373.336 116.69L374.057 115.185L374.769 113.659L375.475 112.111L376.176 110.542L376.873 108.952L377.568 107.34L378.264 105.706L378.962 104.051L379.664 102.375L380.372 100.677L381.089 98.9591L381.815 97.2207L382.554 95.4625L383.306 93.685L384.075 91.889L384.863 90.0751L385.67 88.244L386.5 86.3968L387.355 84.5342L388.235 82.6573L389.145 80.7671L390.084 78.8648L391.055 76.9516L392.061 75.0288L393.102 73.0975L394.181 71.1593L395.298 69.2154L396.457 67.2674L397.657 65.3167L398.901 63.365L400.19 61.4136L401.525 59.4644L402.907 57.5188L404.337 55.5786L405.817 53.6454L407.347 51.7208L408.928 49.8066L410.561 47.9045L412.246 46.0161L413.983 44.1431L415.774 42.2873L417.618 40.4503L419.515 38.6336L421.466 36.8391L423.47 35.0683L425.527 33.3229L427.638 31.6046L429.802 29.915L432.018 28.256L434.286 26.629L436.606 25.0359L438.977 23.4782L441.399 21.9576L443.87 20.4758L446.389 19.0342L448.956 17.6345L451.57 16.2782L454.229 14.9669L456.933 13.7019L459.679 12.4847L462.467 11.3166L465.295 10.1991L468.162 9.1334L471.065 8.12075L474.004 7.16237L476.977 6.25941L479.981 5.41301L483.015 4.62423L486.077 3.89412L489.165 3.22368L492.277 2.61386L495.41 2.0656L498.564 1.57982L501.735 1.15738L504.922 0.799163L508.121 0.506011L511.332 0.27877L514.551 0.118256L517.775 0.0251574L521.004 0L524.234 0.0431372L527.462 0.154749L530.686 0.33484L533.904 0.583234L537.114 0.899577L540.311 1.28334L543.495 1.73379L546.662 2.25006L549.811 2.83107L552.939 3.47558L556.044 4.18217L559.124 4.94928L562.176 5.77516L565.2 6.65793L568.193 7.59554L571.153 8.58582L574.08 9.62647L576.972 10.715L579.827 11.849L582.646 13.0257L585.426 14.2424L588.168 15.4962L590.871 16.7843L593.535 18.1037L596.159 19.4514L598.745 20.8244L601.292 22.2196L603.8 23.6339L606.271 25.0642L608.706 26.5075L611.105 27.9608L613.469 29.4211L615.801 30.8853L618.101 32.3508L620.372 33.8145L622.616 35.274L624.833 36.7264L627.027 38.1694L629.2 39.6006L631.353 41.0177L633.49 42.4185L635.613 43.8013L637.724 45.164L639.827 46.5052L641.923 47.8232L644.015 49.1169L646.106 50.3852L648.198 51.627L650.294 52.8417L652.397 54.0287L654.508 55.1876L656.631 56.3183L658.767 57.4208L660.919 58.4954L663.088 59.5424L665.276 60.5623L667.485 61.5561L669.717 62.5246L671.972 63.469L674.252 64.3905L676.558 65.2906L678.89 66.1708L681.249 67.0327L683.636 67.8782L686.049 68.7088L688.491 69.5263L690.96 70.3324L693.456 71.1291L695.98 71.9182L698.53 72.7014L701.107 73.4807L703.708 74.2581L706.334 75.0355L708.983 75.8148L711.654 76.598L714.345 77.387L717.054 78.1838L719.781 78.9904L722.523 79.8086L725.277 80.6403L728.042 81.4874L730.816 82.3516L733.595 83.2347L736.378 84.1383L739.161 85.064L741.942 86.0134L744.719 86.9878L747.488 87.9885L750.246 89.0168L752.992 90.0738L755.721 91.1604L758.432 92.2774L761.122 93.4256L763.788 94.6055L766.428 95.8176L769.04 97.0622L771.621 98.3395L774.169 99.6495L776.683 100.992L779.16 102.368L781.599 103.777L783.996 105.218L786.351 106.692L788.661 108.198L790.925 109.736L793.139 111.305L795.304 112.906L797.417 114.538L799.475 116.199L801.479 117.891L803.426 119.611L805.316 121.36L807.146 123.136L808.915 124.938L810.623 126.767L812.269 128.621L813.852 130.498L815.371 132.399L816.825 134.322L818.215 136.266L819.54 138.23L820.799 140.214L821.993 142.215L823.121 144.233L824.184 146.267L825.182 148.315L826.116 150.378L826.986 152.452L827.793 154.539L828.537 156.636L829.219 158.742L829.84 160.856L830.402 162.978L830.905 165.106L831.35 167.24L831.739 169.378L832.073 171.52L832.354 173.665L832.582 175.812L832.759 177.96L832.887 180.109L832.967 182.257L833 184.405L832.988 186.552L832.933 188.696L832.835 190.839L832.697 192.978L832.519 195.114L832.302 197.247L832.049 199.376L831.76 201.5L831.437 203.62Z" stroke="black"/>
</g>
<defs>
<filter id="filter0_f_1196_6606" x="0" y="-250" width="1083" height="906" filterUnits="userSpaceOnUse" color-interpolation-filters="sRGB">
<feFlood flood-opacity="0" result="BackgroundImageFix"/>
<feBlend mode="normal" in="SourceGraphic" in2="BackgroundImageFix" result="shape"/>
<feGaussianBlur stdDeviation="125" result="effect1_foregroundBlur_1196_6606"/>
</filter>
<linearGradient id="paint0_linear_1196_6606" x1="660.203" y1="432.166" x2="1027.84" y2="83.2139" gradientUnits="userSpaceOnUse">
<stop stop-color="#7F7FBF" stop-opacity="0.5"/>
<stop offset="0.339489" stop-color="#ABEBFF"/>
</linearGradient>
</defs>
</svg>
