<svg width="1512" height="982" viewBox="0 0 1512 982" fill="none" xmlns="http://www.w3.org/2000/svg">
<g filter="url(#filter0_f_721_2888)">
<path fill-rule="evenodd" clip-rule="evenodd" d="M1507.95 492.499L1507.02 497.614L1506.01 502.717L1504.91 507.807L1503.74 512.884L1502.49 517.947L1501.16 522.997L1499.75 528.032L1498.27 533.052L1496.71 538.057L1495.08 543.047L1493.38 548.021L1491.61 552.979L1489.76 557.921L1487.85 562.847L1485.87 567.756L1483.82 572.648L1481.71 577.524L1479.53 582.382L1477.28 587.223L1474.97 592.046L1472.6 596.852L1470.17 601.64L1467.67 606.41L1465.11 611.162L1462.49 615.896L1459.8 620.612L1457.06 625.308L1454.25 629.985L1451.38 634.643L1448.44 639.282L1445.44 643.9L1442.38 648.498L1439.26 653.075L1436.07 657.631L1432.81 662.166L1429.5 666.679L1426.11 671.169L1422.67 675.637L1419.16 680.082L1415.59 684.505L1411.95 688.904L1408.26 693.28L1404.5 697.633L1400.69 701.964L1396.82 706.271L1392.89 710.557L1388.91 714.819L1384.88 719.06L1380.79 723.278L1376.65 727.474L1372.46 731.647L1368.22 735.798L1363.92 739.927L1359.57 744.033L1355.17 748.116L1350.72 752.177L1346.22 756.214L1341.67 760.228L1337.06 764.218L1332.4 768.184L1327.69 772.126L1322.93 776.043L1318.12 779.936L1313.25 783.803L1308.33 787.645L1303.36 791.461L1298.33 795.25L1293.25 799.013L1288.12 802.748L1282.93 806.457L1277.69 810.137L1272.4 813.79L1267.05 817.414L1261.66 821.01L1256.21 824.577L1250.7 828.115L1245.15 831.623L1239.54 835.103L1233.88 838.552L1228.18 841.972L1222.42 845.362L1216.61 848.722L1210.75 852.053L1204.84 855.353L1198.89 858.623L1192.88 861.864L1186.83 865.074L1180.73 868.254L1174.59 871.405L1168.39 874.525L1162.15 877.616L1155.87 880.676L1149.54 883.706L1143.17 886.707L1136.75 889.677L1130.28 892.616L1123.78 895.526L1117.22 898.404L1110.62 901.251L1103.98 904.067L1097.3 906.851L1090.56 909.602L1083.79 912.32L1076.97 915.004L1070.1 917.654L1063.19 920.268L1056.23 922.846L1049.23 925.386L1042.18 927.887L1035.08 930.348L1027.94 932.769L1020.75 935.148L1013.52 937.484L1006.24 939.777L998.913 942.024L991.542 944.226L984.126 946.38L976.665 948.486L969.16 950.543L961.61 952.548L954.017 954.501L946.381 956.4L938.702 958.244L930.981 960.031L923.219 961.76L915.417 963.428L907.575 965.034L899.694 966.577L891.776 968.054L883.821 969.465L875.831 970.806L867.807 972.078L859.75 973.277L851.663 974.403L843.547 975.455L835.403 976.43L827.234 977.328L819.042 978.148L810.828 978.89L802.595 979.552L794.345 980.135L786.08 980.638L777.802 981.062L769.514 981.407L761.218 981.673L752.916 981.86L744.609 981.969L736.301 982L727.993 981.953L719.688 981.829L711.387 981.628L703.092 981.352L694.805 981L686.529 980.573L678.265 980.073L670.014 979.5L661.78 978.855L653.562 978.14L645.363 977.355L637.184 976.502L629.027 975.582L620.893 974.597L612.782 973.549L604.697 972.438L596.637 971.267L588.605 970.037L580.599 968.75L572.622 967.408L564.673 966.013L556.752 964.567L548.86 963.072L540.997 961.53L533.162 959.943L525.355 958.313L517.576 956.642L509.824 954.933L502.098 953.187L494.398 951.407L486.721 949.594L479.068 947.751L471.437 945.879L463.827 943.98L456.235 942.056L448.662 940.109L441.104 938.14L433.56 936.151L426.029 934.142L418.509 932.116L410.997 930.073L403.493 928.015L395.995 925.941L388.5 923.853L381.007 921.751L373.515 919.636L366.022 917.507L358.527 915.364L351.029 913.207L343.525 911.036L336.017 908.85L328.502 906.648L320.98 904.43L313.451 902.193L305.916 899.938L298.373 897.661L290.825 895.362L283.27 893.038L275.712 890.688L268.151 888.309L260.589 885.9L253.029 883.456L245.474 880.977L237.926 878.458L230.39 875.896L222.869 873.29L215.368 870.635L207.892 867.93L200.446 865.169L193.035 862.352L185.666 859.474L178.344 856.532L171.076 853.524L163.869 850.447L156.731 847.299L149.667 844.076L142.686 840.777L135.796 837.4L129.003 833.942L122.317 830.401L115.744 826.778L109.292 823.069L102.97 819.275L96.7843 815.394L90.7431 811.426L84.8535 807.372L79.1224 803.231L73.5567 799.004L68.1624 794.692L62.9457 790.296L57.9117 785.818L53.0653 781.26L48.4108 776.623L43.9524 771.911L39.6939 767.125L35.6389 762.268L31.791 757.343L28.1532 752.352L24.7284 747.299L21.5192 742.187L18.5281 737.018L15.757 731.796L13.2077 726.524L10.8817 721.206L8.78013 715.845L6.90385 710.444L5.25339 705.007L3.82896 699.539L2.63044 694.041L1.6574 688.518L0.90909 682.975L0.384412 677.413L0.08196 671.838L0 666.253L0.136477 660.661L0.489019 655.067L1.05494 649.473L1.83124 643.884L2.81463 638.303L4.0015 632.734L5.38797 627.18L6.96988 621.644L8.74279 616.129L10.702 610.64L12.8426 605.178L15.1593 599.748L17.6468 594.351L20.2994 588.991L23.1113 583.67L26.0766 578.391L29.1889 573.156L32.442 567.967L35.8293 562.827L39.3444 557.737L42.9805 552.699L46.7309 547.716L50.5885 542.787L54.5466 537.916L58.5983 533.102L62.7365 528.347L66.9543 523.652L71.2447 519.017L75.6009 514.444L80.0161 509.931L84.4834 505.481L88.9962 501.092L93.548 496.765L98.1322 492.499L102.743 488.294L107.373 484.149L112.018 480.065L116.671 476.039L121.326 472.072L125.979 468.162L130.624 464.309L135.257 460.51L139.872 456.765L144.465 453.072L149.032 449.43L153.569 445.837L158.072 442.291L162.539 438.792L166.967 435.337L171.352 431.924L175.692 428.553L179.986 425.22L184.232 421.924L188.427 418.664L192.572 415.438L196.664 412.243L200.703 409.079L204.689 405.942L208.621 402.832L212.499 399.747L216.323 396.685L220.094 393.645L223.81 390.624L227.473 387.621L231.083 384.635L234.641 381.663L238.145 378.705L241.598 375.757L244.999 372.82L248.348 369.89L251.645 366.966L254.89 364.047L258.084 361.13L261.224 358.214L264.31 355.295L267.342 352.373L270.319 349.444L273.238 346.506L276.098 343.556L278.9 340.593L281.642 337.613L284.324 334.614L286.947 331.593L289.509 328.549L292.013 325.479L294.458 322.38L296.846 319.251L299.178 316.088L301.455 312.891L303.679 309.656L305.853 306.383L307.978 303.069L310.057 299.712L312.093 296.311L314.089 292.865L316.048 289.372L317.974 285.831L319.87 282.24L321.74 278.6L323.587 274.909L325.418 271.166L327.234 267.371L329.042 263.524L330.846 259.625L332.651 255.674L334.461 251.67L336.282 247.616L338.119 243.51L339.976 239.354L341.86 235.15L343.775 230.897L345.727 226.598L347.722 222.254L349.764 217.866L351.858 213.438L354.011 208.969L356.227 204.464L358.511 199.925L360.869 195.353L363.305 190.752L365.825 186.124L368.432 181.474L371.133 176.802L373.93 172.114L376.829 167.413L379.833 162.701L382.946 157.983L386.172 153.262L389.514 148.542L392.977 143.828L396.561 139.122L400.272 134.429L404.11 129.753L408.078 125.098L412.178 120.468L416.412 115.867L420.782 111.3L425.288 106.77L429.932 102.281L434.714 97.8378L439.634 93.4439L444.693 89.1034L449.891 84.8203L455.227 80.5987L460.701 76.4426L466.313 72.3561L472.061 68.3432L477.944 64.4081L483.96 60.5548L490.11 56.7872L496.389 53.1093L502.797 49.5251L509.332 46.0384L515.99 42.653L522.768 39.3725L529.665 36.2007L536.676 33.141L543.799 30.1969L551.03 27.3718L558.364 24.6688L565.799 22.0911L573.329 19.6418L580.951 17.3238L588.66 15.1398L596.451 13.0925L604.32 11.1847L612.261 9.41879L620.27 7.79717L628.34 6.32219L636.468 4.99612L644.646 3.82114L652.871 2.79938L661.135 1.93295L669.433 1.2239L677.759 0.674266L686.107 0.286027L694.471 0.0608488L702.844 0L711.22 0.104337L719.593 0.374295L727.955 0.809883L736.301 1.41068L744.624 2.17582L752.917 3.10403L761.174 4.19356L769.388 5.44227L777.555 6.84757L785.667 8.40645L793.72 10.1155L801.707 11.9709L809.623 13.9685L817.465 16.1037L825.227 18.3715L832.905 20.7667L840.495 23.2837L847.995 25.9167L855.401 28.6594L862.71 31.5055L869.921 34.4483L877.032 37.481L884.043 40.5965L890.951 43.7878L897.758 47.0475L904.463 50.3684L911.068 53.7429L917.574 57.1637L923.983 60.6232L930.297 64.1143L936.518 67.6293L942.651 71.1613L948.698 74.7029L954.664 78.2474L960.554 81.7879L966.372 85.3179L972.123 88.831L977.813 92.3212L983.447 95.7828L989.033 99.2103L994.575 102.599L1000.08 105.943L1005.56 109.239L1011.01 112.483L1016.44 115.671L1021.87 118.8L1027.29 121.868L1032.72 124.871L1038.16 127.809L1043.61 130.68L1049.08 133.483L1054.59 136.218L1060.13 138.885L1065.71 141.484L1071.34 144.016L1077.01 146.483L1082.74 148.887L1088.53 151.23L1094.38 153.514L1100.29 155.743L1106.27 157.92L1112.32 160.048L1118.44 162.133L1124.63 164.178L1130.89 166.187L1137.22 168.165L1143.62 170.114L1150.1 172.041L1156.64 173.95L1163.26 175.844L1169.94 177.729L1176.68 179.61L1183.49 181.49L1190.36 183.375L1197.29 185.269L1204.27 187.177L1211.3 189.105L1218.37 191.056L1225.48 193.035L1232.62 195.046L1239.79 197.095L1246.99 199.185L1254.2 201.321L1261.41 203.507L1268.63 205.746L1275.84 208.042L1283.04 210.399L1290.23 212.82L1297.38 215.307L1304.5 217.863L1311.58 220.491L1318.61 223.193L1325.59 225.97L1332.5 228.824L1339.35 231.756L1346.12 234.766L1352.81 237.856L1359.42 241.024L1365.94 244.272L1372.37 247.6L1378.69 251.007L1384.91 254.493L1391.02 258.057L1397.01 261.7L1402.88 265.42L1408.62 269.216L1414.24 273.088L1419.71 277.035L1425.05 281.054L1430.25 285.145L1435.3 289.306L1440.2 293.535L1444.95 297.831L1449.54 302.191L1453.97 306.614L1458.24 311.097L1462.34 315.639L1466.28 320.236L1470.05 324.887L1473.66 329.59L1477.09 334.34L1480.36 339.137L1483.45 343.978L1486.38 348.859L1489.14 353.778L1491.73 358.733L1494.15 363.721L1496.4 368.74L1498.49 373.786L1500.42 378.857L1502.19 383.951L1503.81 389.066L1505.26 394.198L1506.57 399.346L1507.72 404.506L1508.73 409.678L1509.6 414.859L1510.32 420.047L1510.92 425.239L1511.38 430.435L1511.71 435.632L1511.91 440.829L1512 446.024L1511.97 451.216L1511.83 456.403L1511.57 461.585L1511.21 466.76L1510.75 471.927L1510.19 477.085L1509.53 482.234L1508.78 487.372L1507.95 492.499Z" fill="url(#paint0_linear_721_2888)" fill-opacity="0.5"/>
</g>
<defs>
<filter id="filter0_f_721_2888" x="-250" y="-250" width="2012" height="1482" filterUnits="userSpaceOnUse" color-interpolation-filters="sRGB">
<feFlood flood-opacity="0" result="BackgroundImageFix"/>
<feBlend mode="normal" in="SourceGraphic" in2="BackgroundImageFix" result="shape"/>
<feGaussianBlur stdDeviation="125" result="effect1_foregroundBlur_721_2888"/>
</filter>
<linearGradient id="paint0_linear_721_2888" x1="1063.85" y1="1045.29" x2="1954.13" y2="139.196" gradientUnits="userSpaceOnUse">
<stop stop-color="#7F7FBF" stop-opacity="0.5"/>
<stop offset="0.339489" stop-color="#ABEBFF"/>
</linearGradient>
</defs>
</svg>
