<svg width="1158" height="445" viewBox="0 0 1158 445" fill="none" xmlns="http://www.w3.org/2000/svg">
<g filter="url(#filter0_f_1145_14945)">
<path fill-rule="evenodd" clip-rule="evenodd" d="M1155.57 347.798L1155.01 348.813L1154.4 349.827L1153.74 350.837L1153.04 351.846L1152.29 352.851L1151.49 353.854L1150.64 354.854L1149.75 355.85L1148.82 356.844L1147.84 357.835L1146.82 358.823L1145.75 359.808L1144.65 360.789L1143.5 361.767L1142.31 362.742L1141.08 363.713L1139.81 364.681L1138.5 365.646L1137.15 366.607L1135.77 367.565L1134.34 368.519L1132.88 369.47L1131.38 370.418L1129.84 371.361L1128.27 372.301L1126.65 373.238L1125.01 374.17L1123.32 375.099L1121.59 376.024L1119.83 376.945L1118.03 377.862L1116.19 378.775L1114.32 379.684L1112.4 380.589L1110.45 381.489L1108.45 382.385L1106.42 383.277L1104.35 384.164L1102.25 385.047L1100.1 385.925L1097.92 386.799L1095.7 387.668L1093.44 388.532L1091.15 389.392L1088.83 390.247L1086.47 391.098L1084.08 391.945L1081.66 392.787L1079.21 393.624L1076.72 394.458L1074.2 395.286L1071.65 396.111L1069.07 396.93L1066.46 397.746L1063.82 398.557L1061.15 399.363L1058.45 400.165L1055.71 400.962L1052.94 401.754L1050.15 402.542L1047.32 403.324L1044.46 404.102L1041.57 404.875L1038.65 405.643L1035.69 406.406L1032.7 407.164L1029.69 407.916L1026.63 408.663L1023.55 409.405L1020.44 410.142L1017.29 410.872L1014.11 411.598L1010.9 412.317L1007.66 413.031L1004.39 413.74L1001.08 414.442L997.748 415.139L994.381 415.83L990.983 416.515L987.555 417.194L984.097 417.867L980.608 418.535L977.09 419.196L973.543 419.851L969.966 420.501L966.36 421.144L962.726 421.782L959.063 422.413L955.372 423.039L951.654 423.658L947.908 424.272L944.134 424.88L940.333 425.481L936.505 426.077L932.65 426.667L928.768 427.251L924.86 427.828L920.924 428.4L916.962 428.965L912.974 429.524L908.958 430.077L904.916 430.624L900.847 431.163L896.75 431.696L892.627 432.223L888.476 432.742L884.298 433.253L880.092 433.758L875.859 434.255L871.597 434.743L867.308 435.224L862.992 435.696L858.647 436.16L854.276 436.616L849.876 437.062L845.45 437.499L840.996 437.927L836.516 438.345L832.009 438.753L827.475 439.152L822.915 439.539L818.329 439.917L813.718 440.283L809.081 440.638L804.42 440.981L799.734 441.312L795.025 441.631L790.292 441.937L785.537 442.231L780.76 442.511L775.962 442.777L771.143 443.03L766.305 443.268L761.449 443.491L756.574 443.7L751.684 443.894L746.778 444.072L741.858 444.235L736.926 444.382L731.982 444.514L727.027 444.63L722.064 444.73L717.093 444.814L712.116 444.882L707.134 444.935L702.148 444.972L697.16 444.994L692.17 445L687.181 444.991L682.193 444.966L677.208 444.926L672.227 444.871L667.251 444.801L662.281 444.717L657.318 444.617L652.363 444.503L647.418 444.375L642.483 444.233L637.559 444.078L632.648 443.908L627.749 443.726L622.864 443.53L617.994 443.322L613.138 443.101L608.298 442.869L603.474 442.624L598.667 442.369L593.876 442.102L589.102 441.825L584.346 441.538L579.607 441.241L574.884 440.935L570.179 440.62L565.491 440.296L560.82 439.965L556.164 439.625L551.525 439.279L546.9 438.925L542.29 438.565L537.695 438.199L533.112 437.827L528.542 437.45L523.983 437.068L519.434 436.682L514.896 436.291L510.365 435.895L505.843 435.497L501.327 435.094L496.816 434.689L492.309 434.28L487.806 433.868L483.306 433.454L478.806 433.036L474.307 432.616L469.807 432.193L465.306 431.768L460.803 431.34L456.297 430.908L451.788 430.474L447.275 430.037L442.758 429.597L438.237 429.152L433.711 428.704L429.182 428.252L424.649 427.796L420.112 427.334L415.573 426.868L411.033 426.395L406.492 425.917L401.952 425.432L397.414 424.939L392.882 424.439L388.356 423.931L383.839 423.413L379.335 422.886L374.845 422.349L370.374 421.8L365.923 421.241L361.498 420.669L357.101 420.085L352.736 419.488L348.408 418.877L344.121 418.252L339.88 417.612L335.687 416.957L331.549 416.286L327.47 415.599L323.455 414.896L319.508 414.177L315.633 413.44L311.836 412.687L308.122 411.916L304.494 411.128L300.957 410.323L297.515 409.501L294.173 408.662L290.934 407.805L287.801 406.933L284.778 406.043L281.867 405.138L279.072 404.217L276.395 403.282L273.837 402.331L271.402 401.367L269.091 400.389L266.907 399.398L264.85 398.394L262.923 397.379L261.127 396.353L259.463 395.316L257.932 394.269L256.535 393.213L255.273 392.148L254.146 391.076L253.155 389.996L252.299 388.91L251.58 387.819L250.995 386.722L250.546 385.621L250.231 384.517L250.049 383.41L250 382.301L250.082 381.19L250.294 380.079L250.634 378.969L251.1 377.859L251.69 376.751L252.403 375.645L253.236 374.542L254.186 373.442L255.25 372.347L256.427 371.257L257.712 370.173L259.104 369.094L260.597 368.023L262.19 366.958L263.879 365.902L265.66 364.854L267.529 363.814L269.482 362.784L271.517 361.763L273.627 360.752L275.811 359.752L278.063 358.762L280.38 357.784L282.757 356.816L285.19 355.86L287.675 354.916L290.208 353.984L292.785 353.064L295.401 352.155L298.052 351.259L300.735 350.376L303.445 349.504L306.178 348.645L308.931 347.798L311.7 346.963L314.481 346.14L317.27 345.329L320.064 344.529L322.86 343.741L325.654 342.965L328.444 342.2L331.226 341.445L333.997 340.702L336.755 339.968L339.498 339.245L342.222 338.532L344.927 337.828L347.61 337.133L350.268 336.447L352.902 335.769L355.508 335.1L358.087 334.438L360.637 333.783L363.156 333.136L365.645 332.495L368.102 331.861L370.528 331.232L372.922 330.61L375.283 329.992L377.612 329.38L379.909 328.772L382.173 328.168L384.405 327.568L386.604 326.972L388.772 326.379L390.909 325.789L393.013 325.201L395.087 324.616L397.129 324.032L399.14 323.451L401.12 322.87L403.069 322.29L404.987 321.711L406.872 321.132L408.726 320.553L410.547 319.972L412.334 319.391L414.087 318.807L415.805 318.221L417.488 317.633L419.134 317.041L420.745 316.446L422.32 315.846L423.859 315.241L425.362 314.632L426.831 314.016L428.265 313.395L429.665 312.767L431.032 312.132L432.368 311.49L433.674 310.84L434.95 310.182L436.198 309.515L437.421 308.84L438.62 308.156L439.796 307.462L440.953 306.759L442.091 306.046L443.214 305.323L444.324 304.59L445.423 303.847L446.514 303.093L447.6 302.329L448.683 301.555L449.766 300.77L450.854 299.975L451.947 299.17L453.05 298.355L454.166 297.53L455.297 296.695L456.447 295.85L457.619 294.997L458.817 294.134L460.043 293.263L461.301 292.383L462.594 291.496L463.925 290.601L465.296 289.7L466.712 288.792L468.175 287.878L469.688 286.96L471.254 286.036L472.876 285.108L474.556 284.177L476.297 283.244L478.101 282.308L479.97 281.371L481.907 280.434L483.915 279.497L485.994 278.56L488.147 277.626L490.375 276.694L492.68 275.766L495.063 274.841L497.525 273.922L500.068 273.008L502.692 272.101L505.398 271.202L508.187 270.31L511.058 269.428L514.013 268.556L517.051 267.694L520.173 266.843L523.377 266.005L526.665 265.18L530.034 264.368L533.486 263.571L537.019 262.79L540.632 262.025L544.325 261.276L548.096 260.546L551.944 259.834L555.868 259.142L559.867 258.47L563.938 257.818L568.079 257.189L572.29 256.581L576.567 255.996L580.909 255.435L585.314 254.899L589.779 254.387L594.301 253.9L598.878 253.44L603.507 253.006L608.186 252.6L612.912 252.221L617.681 251.87L622.49 251.548L627.337 251.255L632.217 250.992L637.129 250.759L642.068 250.556L647.031 250.384L652.014 250.243L657.014 250.134L662.027 250.057L667.05 250.012L672.078 250L677.109 250.021L682.136 250.074L687.158 250.161L692.17 250.28L697.168 250.432L702.148 250.616L707.107 250.833L712.04 251.081L716.944 251.36L721.816 251.669L726.652 252.009L731.448 252.377L736.202 252.774L740.912 253.198L745.573 253.648L750.184 254.124L754.742 254.624L759.246 255.146L763.693 255.691L768.083 256.256L772.413 256.841L776.683 257.443L780.893 258.061L785.042 258.695L789.13 259.342L793.157 260.002L797.123 260.672L801.03 261.351L804.879 262.038L808.67 262.731L812.406 263.429L816.089 264.131L819.721 264.834L823.304 265.538L826.841 266.241L830.334 266.942L833.788 267.64L837.205 268.333L840.589 269.02L843.943 269.701L847.271 270.373L850.577 271.038L853.866 271.692L857.14 272.336L860.404 272.969L863.663 273.591L866.919 274.2L870.178 274.796L873.443 275.38L876.718 275.95L880.006 276.506L883.312 277.049L886.639 277.579L889.99 278.095L893.368 278.598L896.776 279.088L900.217 279.565L903.693 280.03L907.205 280.484L910.757 280.926L914.348 281.359L917.98 281.782L921.654 282.196L925.371 282.602L929.13 283.001L932.932 283.393L936.778 283.78L940.666 284.163L944.597 284.542L948.569 284.918L952.581 285.292L956.633 285.666L960.723 286.039L964.848 286.414L969.008 286.79L973.199 287.169L977.419 287.551L981.666 287.939L985.936 288.332L990.226 288.731L994.532 289.138L998.852 289.553L1003.18 289.977L1007.51 290.411L1011.85 290.856L1016.18 291.312L1020.51 291.78L1024.82 292.261L1029.11 292.754L1033.39 293.262L1037.64 293.784L1041.86 294.32L1046.05 294.872L1050.21 295.439L1054.32 296.021L1058.38 296.619L1062.4 297.232L1066.37 297.861L1070.29 298.506L1074.15 299.167L1077.94 299.844L1081.68 300.536L1085.35 301.244L1088.94 301.967L1092.47 302.706L1095.92 303.459L1099.29 304.228L1102.58 305.012L1105.79 305.81L1108.91 306.622L1111.94 307.449L1114.88 308.288L1117.73 309.142L1120.49 310.007L1123.15 310.886L1125.71 311.776L1128.18 312.678L1130.54 313.591L1132.81 314.514L1134.97 315.448L1137.04 316.391L1139 317.344L1140.86 318.305L1142.61 319.274L1144.27 320.251L1145.82 321.235L1147.28 322.226L1148.63 323.222L1149.89 324.224L1151.05 325.231L1152.11 326.243L1153.08 327.258L1153.95 328.278L1154.74 329.3L1155.43 330.325L1156.04 331.352L1156.56 332.38L1156.99 333.41L1157.35 334.442L1157.62 335.473L1157.82 336.505L1157.95 337.537L1158 338.569L1157.98 339.6L1157.9 340.63L1157.74 341.659L1157.53 342.687L1157.25 343.713L1156.91 344.737L1156.52 345.759L1156.07 346.779L1155.57 347.798Z" fill="url(#paint0_linear_1145_14945)" fill-opacity="0.7"/>
<path fill-rule="evenodd" clip-rule="evenodd" d="M1155.57 347.798L1155.01 348.813L1154.4 349.827L1153.74 350.837L1153.04 351.846L1152.29 352.851L1151.49 353.854L1150.64 354.854L1149.75 355.85L1148.82 356.844L1147.84 357.835L1146.82 358.823L1145.75 359.808L1144.65 360.789L1143.5 361.767L1142.31 362.742L1141.08 363.713L1139.81 364.681L1138.5 365.646L1137.15 366.607L1135.77 367.565L1134.34 368.519L1132.88 369.47L1131.38 370.418L1129.84 371.361L1128.27 372.301L1126.65 373.238L1125.01 374.17L1123.32 375.099L1121.59 376.024L1119.83 376.945L1118.03 377.862L1116.19 378.775L1114.32 379.684L1112.4 380.589L1110.45 381.489L1108.45 382.385L1106.42 383.277L1104.35 384.164L1102.25 385.047L1100.1 385.925L1097.92 386.799L1095.7 387.668L1093.44 388.532L1091.15 389.392L1088.83 390.247L1086.47 391.098L1084.08 391.945L1081.66 392.787L1079.21 393.624L1076.72 394.458L1074.2 395.286L1071.65 396.111L1069.07 396.93L1066.46 397.746L1063.82 398.557L1061.15 399.363L1058.45 400.165L1055.71 400.962L1052.94 401.754L1050.15 402.542L1047.32 403.324L1044.46 404.102L1041.57 404.875L1038.65 405.643L1035.69 406.406L1032.7 407.164L1029.69 407.916L1026.63 408.663L1023.55 409.405L1020.44 410.142L1017.29 410.872L1014.11 411.598L1010.9 412.317L1007.66 413.031L1004.39 413.74L1001.08 414.442L997.748 415.139L994.381 415.83L990.983 416.515L987.555 417.194L984.097 417.867L980.608 418.535L977.09 419.196L973.543 419.851L969.966 420.501L966.36 421.144L962.726 421.782L959.063 422.413L955.372 423.039L951.654 423.658L947.908 424.272L944.134 424.88L940.333 425.481L936.505 426.077L932.65 426.667L928.768 427.251L924.86 427.828L920.924 428.4L916.962 428.965L912.974 429.524L908.958 430.077L904.916 430.624L900.847 431.163L896.75 431.696L892.627 432.223L888.476 432.742L884.298 433.253L880.092 433.758L875.859 434.255L871.597 434.743L867.308 435.224L862.992 435.696L858.647 436.16L854.276 436.616L849.876 437.062L845.45 437.499L840.996 437.927L836.516 438.345L832.009 438.753L827.475 439.152L822.915 439.539L818.329 439.917L813.718 440.283L809.081 440.638L804.42 440.981L799.734 441.312L795.025 441.631L790.292 441.937L785.537 442.231L780.76 442.511L775.962 442.777L771.143 443.03L766.305 443.268L761.449 443.491L756.574 443.7L751.684 443.894L746.778 444.072L741.858 444.235L736.926 444.382L731.982 444.514L727.027 444.63L722.064 444.73L717.093 444.814L712.116 444.882L707.134 444.935L702.148 444.972L697.16 444.994L692.17 445L687.181 444.991L682.193 444.966L677.208 444.926L672.227 444.871L667.251 444.801L662.281 444.717L657.318 444.617L652.363 444.503L647.418 444.375L642.483 444.233L637.559 444.078L632.648 443.908L627.749 443.726L622.864 443.53L617.994 443.322L613.138 443.101L608.298 442.869L603.474 442.624L598.667 442.369L593.876 442.102L589.102 441.825L584.346 441.538L579.607 441.241L574.884 440.935L570.179 440.62L565.491 440.296L560.82 439.965L556.164 439.625L551.525 439.279L546.9 438.925L542.29 438.565L537.695 438.199L533.112 437.827L528.542 437.45L523.983 437.068L519.434 436.682L514.896 436.291L510.365 435.895L505.843 435.497L501.327 435.094L496.816 434.689L492.309 434.28L487.806 433.868L483.306 433.454L478.806 433.036L474.307 432.616L469.807 432.193L465.306 431.768L460.803 431.34L456.297 430.908L451.788 430.474L447.275 430.037L442.758 429.597L438.237 429.152L433.711 428.704L429.182 428.252L424.649 427.796L420.112 427.334L415.573 426.868L411.033 426.395L406.492 425.917L401.952 425.432L397.414 424.939L392.882 424.439L388.356 423.931L383.839 423.413L379.335 422.886L374.845 422.349L370.374 421.8L365.923 421.241L361.498 420.669L357.101 420.085L352.736 419.488L348.408 418.877L344.121 418.252L339.88 417.612L335.687 416.957L331.549 416.286L327.47 415.599L323.455 414.896L319.508 414.177L315.633 413.44L311.836 412.687L308.122 411.916L304.494 411.128L300.957 410.323L297.515 409.501L294.173 408.662L290.934 407.805L287.801 406.933L284.778 406.043L281.867 405.138L279.072 404.217L276.395 403.282L273.837 402.331L271.402 401.367L269.091 400.389L266.907 399.398L264.85 398.394L262.923 397.379L261.127 396.353L259.463 395.316L257.932 394.269L256.535 393.213L255.273 392.148L254.146 391.076L253.155 389.996L252.299 388.91L251.58 387.819L250.995 386.722L250.546 385.621L250.231 384.517L250.049 383.41L250 382.301L250.082 381.19L250.294 380.079L250.634 378.969L251.1 377.859L251.69 376.751L252.403 375.645L253.236 374.542L254.186 373.442L255.25 372.347L256.427 371.257L257.712 370.173L259.104 369.094L260.597 368.023L262.19 366.958L263.879 365.902L265.66 364.854L267.529 363.814L269.482 362.784L271.517 361.763L273.627 360.752L275.811 359.752L278.063 358.762L280.38 357.784L282.757 356.816L285.19 355.86L287.675 354.916L290.208 353.984L292.785 353.064L295.401 352.155L298.052 351.259L300.735 350.376L303.445 349.504L306.178 348.645L308.931 347.798L311.7 346.963L314.481 346.14L317.27 345.329L320.064 344.529L322.86 343.741L325.654 342.965L328.444 342.2L331.226 341.445L333.997 340.702L336.755 339.968L339.498 339.245L342.222 338.532L344.927 337.828L347.61 337.133L350.268 336.447L352.902 335.769L355.508 335.1L358.087 334.438L360.637 333.783L363.156 333.136L365.645 332.495L368.102 331.861L370.528 331.232L372.922 330.61L375.283 329.992L377.612 329.38L379.909 328.772L382.173 328.168L384.405 327.568L386.604 326.972L388.772 326.379L390.909 325.789L393.013 325.201L395.087 324.616L397.129 324.032L399.14 323.451L401.12 322.87L403.069 322.29L404.987 321.711L406.872 321.132L408.726 320.553L410.547 319.972L412.334 319.391L414.087 318.807L415.805 318.221L417.488 317.633L419.134 317.041L420.745 316.446L422.32 315.846L423.859 315.241L425.362 314.632L426.831 314.016L428.265 313.395L429.665 312.767L431.032 312.132L432.368 311.49L433.674 310.84L434.95 310.182L436.198 309.515L437.421 308.84L438.62 308.156L439.796 307.462L440.953 306.759L442.091 306.046L443.214 305.323L444.324 304.59L445.423 303.847L446.514 303.093L447.6 302.329L448.683 301.555L449.766 300.77L450.854 299.975L451.947 299.17L453.05 298.355L454.166 297.53L455.297 296.695L456.447 295.85L457.619 294.997L458.817 294.134L460.043 293.263L461.301 292.383L462.594 291.496L463.925 290.601L465.296 289.7L466.712 288.792L468.175 287.878L469.688 286.96L471.254 286.036L472.876 285.108L474.556 284.177L476.297 283.244L478.101 282.308L479.97 281.371L481.907 280.434L483.915 279.497L485.994 278.56L488.147 277.626L490.375 276.694L492.68 275.766L495.063 274.841L497.525 273.922L500.068 273.008L502.692 272.101L505.398 271.202L508.187 270.31L511.058 269.428L514.013 268.556L517.051 267.694L520.173 266.843L523.377 266.005L526.665 265.18L530.034 264.368L533.486 263.571L537.019 262.79L540.632 262.025L544.325 261.276L548.096 260.546L551.944 259.834L555.868 259.142L559.867 258.47L563.938 257.818L568.079 257.189L572.29 256.581L576.567 255.996L580.909 255.435L585.314 254.899L589.779 254.387L594.301 253.9L598.878 253.44L603.507 253.006L608.186 252.6L612.912 252.221L617.681 251.87L622.49 251.548L627.337 251.255L632.217 250.992L637.129 250.759L642.068 250.556L647.031 250.384L652.014 250.243L657.014 250.134L662.027 250.057L667.05 250.012L672.078 250L677.109 250.021L682.136 250.074L687.158 250.161L692.17 250.28L697.168 250.432L702.148 250.616L707.107 250.833L712.04 251.081L716.944 251.36L721.816 251.669L726.652 252.009L731.448 252.377L736.202 252.774L740.912 253.198L745.573 253.648L750.184 254.124L754.742 254.624L759.246 255.146L763.693 255.691L768.083 256.256L772.413 256.841L776.683 257.443L780.893 258.061L785.042 258.695L789.13 259.342L793.157 260.002L797.123 260.672L801.03 261.351L804.879 262.038L808.67 262.731L812.406 263.429L816.089 264.131L819.721 264.834L823.304 265.538L826.841 266.241L830.334 266.942L833.788 267.64L837.205 268.333L840.589 269.02L843.943 269.701L847.271 270.373L850.577 271.038L853.866 271.692L857.14 272.336L860.404 272.969L863.663 273.591L866.919 274.2L870.178 274.796L873.443 275.38L876.718 275.95L880.006 276.506L883.312 277.049L886.639 277.579L889.99 278.095L893.368 278.598L896.776 279.088L900.217 279.565L903.693 280.03L907.205 280.484L910.757 280.926L914.348 281.359L917.98 281.782L921.654 282.196L925.371 282.602L929.13 283.001L932.932 283.393L936.778 283.78L940.666 284.163L944.597 284.542L948.569 284.918L952.581 285.292L956.633 285.666L960.723 286.039L964.848 286.414L969.008 286.79L973.199 287.169L977.419 287.551L981.666 287.939L985.936 288.332L990.226 288.731L994.532 289.138L998.852 289.553L1003.18 289.977L1007.51 290.411L1011.85 290.856L1016.18 291.312L1020.51 291.78L1024.82 292.261L1029.11 292.754L1033.39 293.262L1037.64 293.784L1041.86 294.32L1046.05 294.872L1050.21 295.439L1054.32 296.021L1058.38 296.619L1062.4 297.232L1066.37 297.861L1070.29 298.506L1074.15 299.167L1077.94 299.844L1081.68 300.536L1085.35 301.244L1088.94 301.967L1092.47 302.706L1095.92 303.459L1099.29 304.228L1102.58 305.012L1105.79 305.81L1108.91 306.622L1111.94 307.449L1114.88 308.288L1117.73 309.142L1120.49 310.007L1123.15 310.886L1125.71 311.776L1128.18 312.678L1130.54 313.591L1132.81 314.514L1134.97 315.448L1137.04 316.391L1139 317.344L1140.86 318.305L1142.61 319.274L1144.27 320.251L1145.82 321.235L1147.28 322.226L1148.63 323.222L1149.89 324.224L1151.05 325.231L1152.11 326.243L1153.08 327.258L1153.95 328.278L1154.74 329.3L1155.43 330.325L1156.04 331.352L1156.56 332.38L1156.99 333.41L1157.35 334.442L1157.62 335.473L1157.82 336.505L1157.95 337.537L1158 338.569L1157.98 339.6L1157.9 340.63L1157.74 341.659L1157.53 342.687L1157.25 343.713L1156.91 344.737L1156.52 345.759L1156.07 346.779L1155.57 347.798Z" stroke="black"/>
</g>
<defs>
<filter id="filter0_f_1145_14945" x="0" y="0" width="1408" height="695" filterUnits="userSpaceOnUse" color-interpolation-filters="sRGB">
<feFlood flood-opacity="0" result="BackgroundImageFix"/>
<feBlend mode="normal" in="SourceGraphic" in2="BackgroundImageFix" result="shape"/>
<feGaussianBlur stdDeviation="125" result="effect1_foregroundBlur_1145_14945"/>
</filter>
<linearGradient id="paint0_linear_1145_14945" x1="888.875" y1="457.567" x2="992.797" y2="137.703" gradientUnits="userSpaceOnUse">
<stop stop-color="#7F7FBF" stop-opacity="0.5"/>
<stop offset="0.339489" stop-color="#ABEBFF"/>
</linearGradient>
</defs>
</svg>
