<svg width="973" height="415" viewBox="0 0 973 415" fill="none" xmlns="http://www.w3.org/2000/svg">
<g filter="url(#filter0_f_1145_14946)">
<path fill-rule="evenodd" clip-rule="evenodd" d="M920.198 82.7518L919.786 83.6113L919.337 84.4687L918.85 85.324L918.329 86.177L917.772 87.0278L917.18 87.8762L916.555 88.7222L915.897 89.5658L915.205 90.4067L914.481 91.2452L913.725 92.0809L912.937 92.9141L912.118 93.7444L911.268 94.5721L910.387 95.3969L909.477 96.2189L908.537 97.0381L907.568 97.8544L906.57 98.6678L905.544 99.4782L904.49 100.286L903.408 101.09L902.298 101.892L901.16 102.69L899.995 103.486L898.802 104.278L897.581 105.067L896.333 105.853L895.056 106.636L893.752 107.415L892.419 108.191L891.059 108.964L889.67 109.733L888.252 110.498L886.806 111.26L885.331 112.018L883.828 112.773L882.297 113.524L880.737 114.27L879.149 115.013L877.534 115.753L875.891 116.488L874.222 117.219L872.528 117.947L870.808 118.671L869.063 119.391L867.294 120.107L865.501 120.82L863.685 121.528L861.845 122.233L859.982 122.935L858.096 123.632L856.186 124.326L854.254 125.016L852.299 125.702L850.321 126.384L848.321 127.062L846.297 127.737L844.25 128.407L842.18 129.074L840.087 129.736L837.97 130.394L835.83 131.048L833.667 131.698L831.48 132.344L829.27 132.985L827.036 133.621L824.778 134.254L822.497 134.881L820.192 135.504L817.863 136.123L815.511 136.737L813.135 137.346L810.736 137.95L808.314 138.549L805.868 139.144L803.399 139.733L800.907 140.318L798.393 140.897L795.856 141.472L793.296 142.042L790.715 142.606L788.111 143.166L785.485 143.72L782.838 144.27L780.17 144.814L777.48 145.354L774.769 145.888L772.038 146.417L769.286 146.942L766.513 147.461L763.72 147.975L760.907 148.484L758.074 148.988L755.221 149.487L752.348 149.981L749.456 150.47L746.543 150.954L743.611 151.432L740.659 151.905L737.687 152.373L734.695 152.835L731.684 153.292L728.652 153.743L725.6 154.188L722.529 154.628L719.436 155.061L716.324 155.487L713.19 155.908L710.037 156.321L706.863 156.728L703.668 157.128L700.453 157.52L697.217 157.905L693.961 158.283L690.685 158.653L687.389 159.015L684.073 159.369L680.738 159.714L677.382 160.051L674.008 160.38L670.614 160.699L667.201 161.008L663.77 161.309L660.32 161.599L656.852 161.879L653.367 162.149L649.864 162.409L646.345 162.657L642.809 162.894L639.258 163.119L635.692 163.333L632.111 163.534L628.517 163.724L624.91 163.9L621.29 164.064L617.66 164.215L614.019 164.353L610.368 164.477L606.709 164.589L603.042 164.687L599.369 164.771L595.69 164.842L592.006 164.9L588.319 164.945L584.629 164.977L580.937 164.995L577.245 165L573.553 164.992L569.861 164.971L566.172 164.938L562.485 164.891L558.802 164.832L555.124 164.76L551.451 164.676L547.784 164.58L544.124 164.472L540.472 164.351L536.828 164.219L533.193 164.076L529.568 163.922L525.952 163.756L522.348 163.58L518.754 163.393L515.172 163.197L511.602 162.99L508.044 162.774L504.499 162.548L500.966 162.314L497.445 162.071L493.938 161.82L490.443 161.56L486.961 161.294L483.491 161.02L480.034 160.739L476.588 160.452L473.155 160.159L469.732 159.86L466.321 159.555L462.919 159.245L459.528 158.931L456.145 158.612L452.771 158.288L449.405 157.961L446.046 157.63L442.693 157.296L439.346 156.959L436.004 156.618L432.665 156.275L429.33 155.929L425.998 155.581L422.667 155.23L419.337 154.877L416.007 154.521L412.677 154.164L409.345 153.804L406.013 153.441L402.678 153.076L399.341 152.709L396.001 152.339L392.658 151.966L389.312 151.591L385.963 151.211L382.61 150.829L379.255 150.443L375.898 150.052L372.539 149.657L369.178 149.258L365.817 148.853L362.458 148.442L359.1 148.026L355.745 147.602L352.396 147.172L349.053 146.734L345.719 146.288L342.397 145.833L339.087 145.37L335.793 144.896L332.518 144.413L329.264 143.918L326.034 143.413L322.831 142.896L319.658 142.367L316.519 141.825L313.416 141.271L310.354 140.704L307.335 140.123L304.363 139.528L301.442 138.919L298.574 138.296L295.764 137.658L293.015 137.006L290.33 136.339L287.713 135.658L285.166 134.962L282.692 134.252L280.294 133.528L277.976 132.789L275.739 132.037L273.585 131.271L271.516 130.492L269.534 129.7L267.642 128.896L265.84 128.08L264.129 127.252L262.513 126.414L260.99 125.565L259.564 124.705L258.235 123.837L257.003 122.96L255.87 122.074L254.836 121.18L253.902 120.279L253.068 119.372L252.335 118.458L251.702 117.54L251.169 116.616L250.737 115.688L250.404 114.756L250.171 113.822L250.036 112.885L250 111.947L250.061 111.007L250.217 110.067L250.469 109.127L250.814 108.188L251.251 107.251L251.778 106.315L252.395 105.381L253.098 104.451L253.886 103.525L254.756 102.602L255.708 101.685L256.737 100.772L257.843 99.8655L259.022 98.9648L260.272 98.0708L261.59 97.1837L262.973 96.3041L264.419 95.4323L265.924 94.5686L267.486 93.7134L269.102 92.867L270.769 92.0296L272.484 91.2015L274.243 90.383L276.044 89.5741L277.883 88.7752L279.757 87.9863L281.664 87.2076L283.6 86.4391L285.563 85.6809L287.548 84.9331L289.554 84.1957L291.577 83.4686L293.614 82.7518L295.663 82.0453L297.721 81.3489L299.786 80.6626L301.854 79.9863L303.923 79.3197L305.991 78.6627L308.055 78.0152L310.114 77.3769L312.165 76.7476L314.206 76.1271L316.236 75.5152L318.253 74.9114L320.254 74.3158L322.24 73.7278L324.207 73.1472L326.156 72.5739L328.086 72.0073L329.994 71.4473L331.881 70.8936L333.745 70.3458L335.587 69.8037L337.406 69.2669L339.201 68.7352L340.973 68.2082L342.721 67.6857L344.444 67.1673L346.144 66.6529L347.819 66.142L349.471 65.6344L351.099 65.1299L352.704 64.6281L354.285 64.1287L355.842 63.6316L357.377 63.1364L358.888 62.6428L360.377 62.1506L361.842 61.6593L363.285 61.1688L364.704 60.6787L366.099 60.1886L367.471 59.6983L368.819 59.2072L370.142 58.7151L371.439 58.2214L372.71 57.7258L373.956 57.2279L375.174 56.7272L376.366 56.2233L377.532 55.7158L378.671 55.2043L379.784 54.6884L380.87 54.1677L381.932 53.6419L382.968 53.1105L383.98 52.5733L384.969 52.0298L385.935 51.4798L386.879 50.923L387.803 50.359L388.708 49.7876L389.595 49.2085L390.466 48.6216L391.322 48.0266L392.164 47.4233L392.995 46.8116L393.817 46.1914L394.63 45.5625L395.437 44.9249L396.241 44.2785L397.043 43.6233L397.845 42.9594L398.649 42.2868L399.459 41.6055L400.275 40.9156L401.101 40.2174L401.938 39.5109L402.789 38.7963L403.657 38.074L404.543 37.3441L405.451 36.6069L406.381 35.8627L407.338 35.112L408.323 34.355L409.338 33.5922L410.386 32.8241L411.469 32.051L412.589 31.2735L413.748 30.492L414.948 29.7071L416.191 28.9194L417.479 28.1294L418.814 27.3377L420.198 26.545L421.632 25.7518L423.118 24.9587L424.656 24.1666L426.249 23.3759L427.898 22.5874L429.604 21.8017L431.368 21.0195L433.19 20.2416L435.072 19.4686L437.014 18.7011L439.017 17.9399L441.081 17.1857L443.206 16.4391L445.393 15.7009L447.641 14.9716L449.952 14.2519L452.323 13.5426L454.756 12.8442L457.25 12.1576L459.805 11.4833L462.419 10.8221L465.094 10.1747L467.827 9.54163L470.617 8.92366L473.466 8.32143L476.37 7.73557L479.329 7.16674L482.341 6.61554L485.407 6.0826L488.523 5.5685L491.688 5.07382L494.902 4.59912L498.162 4.14496L501.466 3.71185L504.813 3.3003L508.2 2.91081L511.627 2.54385L515.089 2.19987L518.587 1.87931L522.116 1.58259L525.675 1.31011L529.262 1.06228L532.875 0.83947L536.509 0.642044L540.165 0.470365L543.838 0.324783L547.526 0.205645L551.226 0.113293L554.936 0.0480595L558.654 0.0102241L562.375 0L566.098 0.0175311L569.819 0.0628907L573.536 0.13608L577.245 0.237028L580.944 0.365592L584.63 0.521552L588.299 0.704621L591.95 0.914434L595.58 1.15056L599.185 1.41249L602.764 1.69965L606.314 2.01141L609.833 2.34705L613.318 2.70581L616.768 3.08686L620.18 3.48931L623.554 3.91223L626.887 4.35464L630.178 4.81548L633.427 5.29369L636.632 5.78815L639.792 6.29772L642.908 6.82121L645.978 7.35742L649.004 7.90514L651.984 8.46312L654.919 9.03012L657.811 9.60489L660.659 10.1862L663.465 10.7728L666.23 11.3634L668.956 11.9568L671.644 12.5519L674.295 13.1475L676.913 13.7424L679.499 14.3355L682.055 14.9258L684.583 15.5122L687.088 16.0938L689.57 16.6697L692.033 17.2391L694.48 17.801L696.914 18.3548L699.337 18.8999L701.753 19.4356L704.164 19.9613L706.574 20.4767L708.986 20.9814L711.402 21.4751L713.826 21.9575L716.26 22.4285L718.707 22.888L721.169 23.3361L723.649 23.7728L726.149 24.1982L728.671 24.6128L731.218 25.0167L733.79 25.4103L736.39 25.7941L739.018 26.1686L741.676 26.5343L744.364 26.8921L747.083 27.2424L749.834 27.586L752.616 27.9235L755.43 28.2557L758.276 28.5834L761.154 28.9072L764.063 29.2278L767.002 29.5461L769.972 29.8629L772.971 30.1788L775.997 30.4947L779.051 30.8114L782.129 31.1297L785.231 31.4504L788.354 31.7742L791.497 32.102L794.657 32.4345L797.832 32.7725L801.02 33.1168L804.216 33.468L807.42 33.8269L810.627 34.1941L813.836 34.5704L817.041 34.9562L820.242 35.3522L823.433 35.7589L826.613 36.1768L829.778 36.6063L832.924 37.0479L836.049 37.5019L839.149 37.9685L842.222 38.4481L845.265 38.9407L848.275 39.4465L851.251 39.9656L854.188 40.498L857.086 41.0437L859.941 41.6028L862.752 42.1753L865.516 42.761L868.23 43.3599L870.893 43.972L873.501 44.597L876.054 45.2349L878.549 45.8855L880.984 46.5486L883.358 47.2239L885.667 47.9113L887.912 48.6104L890.089 49.321L892.199 50.0428L894.239 50.7755L896.208 51.5186L898.105 52.2719L899.929 53.035L901.68 53.8075L903.356 54.589L904.958 55.3791L906.485 56.1774L907.936 56.9834L909.312 57.7967L910.613 58.6168L911.838 59.4434L912.989 60.276L914.065 61.1141L915.068 61.9573L915.998 62.8052L916.855 63.6573L917.642 64.5132L918.358 65.3726L919.005 66.2349L919.585 67.0998L920.098 67.967L920.547 68.836L920.932 69.7065L921.255 70.5781L921.518 71.4506L921.722 72.3236L921.87 73.1968L921.962 74.07L922 74.9429L921.986 75.8153L921.922 76.6869L921.81 77.5576L921.65 78.4271L921.445 79.2953L921.196 80.1619L920.904 81.027L920.571 81.8904L920.198 82.7518Z" fill="url(#paint0_linear_1145_14946)" fill-opacity="0.5"/>
<path fill-rule="evenodd" clip-rule="evenodd" d="M920.198 82.7518L919.786 83.6113L919.337 84.4687L918.85 85.324L918.329 86.177L917.772 87.0278L917.18 87.8762L916.555 88.7222L915.897 89.5658L915.205 90.4067L914.481 91.2452L913.725 92.0809L912.937 92.9141L912.118 93.7444L911.268 94.5721L910.387 95.3969L909.477 96.2189L908.537 97.0381L907.568 97.8544L906.57 98.6678L905.544 99.4782L904.49 100.286L903.408 101.09L902.298 101.892L901.16 102.69L899.995 103.486L898.802 104.278L897.581 105.067L896.333 105.853L895.056 106.636L893.752 107.415L892.419 108.191L891.059 108.964L889.67 109.733L888.252 110.498L886.806 111.26L885.331 112.018L883.828 112.773L882.297 113.524L880.737 114.27L879.149 115.013L877.534 115.753L875.891 116.488L874.222 117.219L872.528 117.947L870.808 118.671L869.063 119.391L867.294 120.107L865.501 120.82L863.685 121.528L861.845 122.233L859.982 122.935L858.096 123.632L856.186 124.326L854.254 125.016L852.299 125.702L850.321 126.384L848.321 127.062L846.297 127.737L844.25 128.407L842.18 129.074L840.087 129.736L837.97 130.394L835.83 131.048L833.667 131.698L831.48 132.344L829.27 132.985L827.036 133.621L824.778 134.254L822.497 134.881L820.192 135.504L817.863 136.123L815.511 136.737L813.135 137.346L810.736 137.95L808.314 138.549L805.868 139.144L803.399 139.733L800.907 140.318L798.393 140.897L795.856 141.472L793.296 142.042L790.715 142.606L788.111 143.166L785.485 143.72L782.838 144.27L780.17 144.814L777.48 145.354L774.769 145.888L772.038 146.417L769.286 146.942L766.513 147.461L763.72 147.975L760.907 148.484L758.074 148.988L755.221 149.487L752.348 149.981L749.456 150.47L746.543 150.954L743.611 151.432L740.659 151.905L737.687 152.373L734.695 152.835L731.684 153.292L728.652 153.743L725.6 154.188L722.529 154.628L719.436 155.061L716.324 155.487L713.19 155.908L710.037 156.321L706.863 156.728L703.668 157.128L700.453 157.52L697.217 157.905L693.961 158.283L690.685 158.653L687.389 159.015L684.073 159.369L680.738 159.714L677.382 160.051L674.008 160.38L670.614 160.699L667.201 161.008L663.77 161.309L660.32 161.599L656.852 161.879L653.367 162.149L649.864 162.409L646.345 162.657L642.809 162.894L639.258 163.119L635.692 163.333L632.111 163.534L628.517 163.724L624.91 163.9L621.29 164.064L617.66 164.215L614.019 164.353L610.368 164.477L606.709 164.589L603.042 164.687L599.369 164.771L595.69 164.842L592.006 164.9L588.319 164.945L584.629 164.977L580.937 164.995L577.245 165L573.553 164.992L569.861 164.971L566.172 164.938L562.485 164.891L558.802 164.832L555.124 164.76L551.451 164.676L547.784 164.58L544.124 164.472L540.472 164.351L536.828 164.219L533.193 164.076L529.568 163.922L525.952 163.756L522.348 163.58L518.754 163.393L515.172 163.197L511.602 162.99L508.044 162.774L504.499 162.548L500.966 162.314L497.445 162.071L493.938 161.82L490.443 161.56L486.961 161.294L483.491 161.02L480.034 160.739L476.588 160.452L473.155 160.159L469.732 159.86L466.321 159.555L462.919 159.245L459.528 158.931L456.145 158.612L452.771 158.288L449.405 157.961L446.046 157.63L442.693 157.296L439.346 156.959L436.004 156.618L432.665 156.275L429.33 155.929L425.998 155.581L422.667 155.23L419.337 154.877L416.007 154.521L412.677 154.164L409.345 153.804L406.013 153.441L402.678 153.076L399.341 152.709L396.001 152.339L392.658 151.966L389.312 151.591L385.963 151.211L382.61 150.829L379.255 150.443L375.898 150.052L372.539 149.657L369.178 149.258L365.817 148.853L362.458 148.442L359.1 148.026L355.745 147.602L352.396 147.172L349.053 146.734L345.719 146.288L342.397 145.833L339.087 145.37L335.793 144.896L332.518 144.413L329.264 143.918L326.034 143.413L322.831 142.896L319.658 142.367L316.519 141.825L313.416 141.271L310.354 140.704L307.335 140.123L304.363 139.528L301.442 138.919L298.574 138.296L295.764 137.658L293.015 137.006L290.33 136.339L287.713 135.658L285.166 134.962L282.692 134.252L280.294 133.528L277.976 132.789L275.739 132.037L273.585 131.271L271.516 130.492L269.534 129.7L267.642 128.896L265.84 128.08L264.129 127.252L262.513 126.414L260.99 125.565L259.564 124.705L258.235 123.837L257.003 122.96L255.87 122.074L254.836 121.18L253.902 120.279L253.068 119.372L252.335 118.458L251.702 117.54L251.169 116.616L250.737 115.688L250.404 114.756L250.171 113.822L250.036 112.885L250 111.947L250.061 111.007L250.217 110.067L250.469 109.127L250.814 108.188L251.251 107.251L251.778 106.315L252.395 105.381L253.098 104.451L253.886 103.525L254.756 102.602L255.708 101.685L256.737 100.772L257.843 99.8655L259.022 98.9648L260.272 98.0708L261.59 97.1837L262.973 96.3041L264.419 95.4323L265.924 94.5686L267.486 93.7134L269.102 92.867L270.769 92.0296L272.484 91.2015L274.243 90.383L276.044 89.5741L277.883 88.7752L279.757 87.9863L281.664 87.2076L283.6 86.4391L285.563 85.6809L287.548 84.9331L289.554 84.1957L291.577 83.4686L293.614 82.7518L295.663 82.0453L297.721 81.3489L299.786 80.6626L301.854 79.9863L303.923 79.3197L305.991 78.6627L308.055 78.0152L310.114 77.3769L312.165 76.7476L314.206 76.1271L316.236 75.5152L318.253 74.9114L320.254 74.3158L322.24 73.7278L324.207 73.1472L326.156 72.5739L328.086 72.0073L329.994 71.4473L331.881 70.8936L333.745 70.3458L335.587 69.8037L337.406 69.2669L339.201 68.7352L340.973 68.2082L342.721 67.6857L344.444 67.1673L346.144 66.6529L347.819 66.142L349.471 65.6344L351.099 65.1299L352.704 64.6281L354.285 64.1287L355.842 63.6316L357.377 63.1364L358.888 62.6428L360.377 62.1506L361.842 61.6593L363.285 61.1688L364.704 60.6787L366.099 60.1886L367.471 59.6983L368.819 59.2072L370.142 58.7151L371.439 58.2214L372.71 57.7258L373.956 57.2279L375.174 56.7272L376.366 56.2233L377.532 55.7158L378.671 55.2043L379.784 54.6884L380.87 54.1677L381.932 53.6419L382.968 53.1105L383.98 52.5733L384.969 52.0298L385.935 51.4798L386.879 50.923L387.803 50.359L388.708 49.7876L389.595 49.2085L390.466 48.6216L391.322 48.0266L392.164 47.4233L392.995 46.8116L393.817 46.1914L394.63 45.5625L395.437 44.9249L396.241 44.2785L397.043 43.6233L397.845 42.9594L398.649 42.2868L399.459 41.6055L400.275 40.9156L401.101 40.2174L401.938 39.5109L402.789 38.7963L403.657 38.074L404.543 37.3441L405.451 36.6069L406.381 35.8627L407.338 35.112L408.323 34.355L409.338 33.5922L410.386 32.8241L411.469 32.051L412.589 31.2735L413.748 30.492L414.948 29.7071L416.191 28.9194L417.479 28.1294L418.814 27.3377L420.198 26.545L421.632 25.7518L423.118 24.9587L424.656 24.1666L426.249 23.3759L427.898 22.5874L429.604 21.8017L431.368 21.0195L433.19 20.2416L435.072 19.4686L437.014 18.7011L439.017 17.9399L441.081 17.1857L443.206 16.4391L445.393 15.7009L447.641 14.9716L449.952 14.2519L452.323 13.5426L454.756 12.8442L457.25 12.1576L459.805 11.4833L462.419 10.8221L465.094 10.1747L467.827 9.54163L470.617 8.92366L473.466 8.32143L476.37 7.73557L479.329 7.16674L482.341 6.61554L485.407 6.0826L488.523 5.5685L491.688 5.07382L494.902 4.59912L498.162 4.14496L501.466 3.71185L504.813 3.3003L508.2 2.91081L511.627 2.54385L515.089 2.19987L518.587 1.87931L522.116 1.58259L525.675 1.31011L529.262 1.06228L532.875 0.83947L536.509 0.642044L540.165 0.470365L543.838 0.324783L547.526 0.205645L551.226 0.113293L554.936 0.0480595L558.654 0.0102241L562.375 0L566.098 0.0175311L569.819 0.0628907L573.536 0.13608L577.245 0.237028L580.944 0.365592L584.63 0.521552L588.299 0.704621L591.95 0.914434L595.58 1.15056L599.185 1.41249L602.764 1.69965L606.314 2.01141L609.833 2.34705L613.318 2.70581L616.768 3.08686L620.18 3.48931L623.554 3.91223L626.887 4.35464L630.178 4.81548L633.427 5.29369L636.632 5.78815L639.792 6.29772L642.908 6.82121L645.978 7.35742L649.004 7.90514L651.984 8.46312L654.919 9.03012L657.811 9.60489L660.659 10.1862L663.465 10.7728L666.23 11.3634L668.956 11.9568L671.644 12.5519L674.295 13.1475L676.913 13.7424L679.499 14.3355L682.055 14.9258L684.583 15.5122L687.088 16.0938L689.57 16.6697L692.033 17.2391L694.48 17.801L696.914 18.3548L699.337 18.8999L701.753 19.4356L704.164 19.9613L706.574 20.4767L708.986 20.9814L711.402 21.4751L713.826 21.9575L716.26 22.4285L718.707 22.888L721.169 23.3361L723.649 23.7728L726.149 24.1982L728.671 24.6128L731.218 25.0167L733.79 25.4103L736.39 25.7941L739.018 26.1686L741.676 26.5343L744.364 26.8921L747.083 27.2424L749.834 27.586L752.616 27.9235L755.43 28.2557L758.276 28.5834L761.154 28.9072L764.063 29.2278L767.002 29.5461L769.972 29.8629L772.971 30.1788L775.997 30.4947L779.051 30.8114L782.129 31.1297L785.231 31.4504L788.354 31.7742L791.497 32.102L794.657 32.4345L797.832 32.7725L801.02 33.1168L804.216 33.468L807.42 33.8269L810.627 34.1941L813.836 34.5704L817.041 34.9562L820.242 35.3522L823.433 35.7589L826.613 36.1768L829.778 36.6063L832.924 37.0479L836.049 37.5019L839.149 37.9685L842.222 38.4481L845.265 38.9407L848.275 39.4465L851.251 39.9656L854.188 40.498L857.086 41.0437L859.941 41.6028L862.752 42.1753L865.516 42.761L868.23 43.3599L870.893 43.972L873.501 44.597L876.054 45.2349L878.549 45.8855L880.984 46.5486L883.358 47.2239L885.667 47.9113L887.912 48.6104L890.089 49.321L892.199 50.0428L894.239 50.7755L896.208 51.5186L898.105 52.2719L899.929 53.035L901.68 53.8075L903.356 54.589L904.958 55.3791L906.485 56.1774L907.936 56.9834L909.312 57.7967L910.613 58.6168L911.838 59.4434L912.989 60.276L914.065 61.1141L915.068 61.9573L915.998 62.8052L916.855 63.6573L917.642 64.5132L918.358 65.3726L919.005 66.2349L919.585 67.0998L920.098 67.967L920.547 68.836L920.932 69.7065L921.255 70.5781L921.518 71.4506L921.722 72.3236L921.87 73.1968L921.962 74.07L922 74.9429L921.986 75.8153L921.922 76.6869L921.81 77.5576L921.65 78.4271L921.445 79.2953L921.196 80.1619L920.904 81.027L920.571 81.8904L920.198 82.7518Z" stroke="black"/>
</g>
<defs>
<filter id="filter0_f_1145_14946" x="0" y="-250" width="1172" height="665" filterUnits="userSpaceOnUse" color-interpolation-filters="sRGB">
<feFlood flood-opacity="0" result="BackgroundImageFix"/>
<feBlend mode="normal" in="SourceGraphic" in2="BackgroundImageFix" result="shape"/>
<feGaussianBlur stdDeviation="125" result="effect1_foregroundBlur_1145_14946"/>
</filter>
<linearGradient id="paint0_linear_1145_14946" x1="722.824" y1="175.634" x2="820.496" y2="-87.3088" gradientUnits="userSpaceOnUse">
<stop stop-color="#7F7FBF" stop-opacity="0.5"/>
<stop offset="0.339489" stop-color="#ABEBFF"/>
</linearGradient>
</defs>
</svg>
