<svg width="1469" height="372" viewBox="0 0 1469 372" fill="none" xmlns="http://www.w3.org/2000/svg">
<g filter="url(#filter0_f_698_12203)">
<path fill-rule="evenodd" clip-rule="evenodd" d="M1465.73 311.186L1464.98 311.822L1464.17 312.456L1463.29 313.088L1462.34 313.719L1461.33 314.348L1460.26 314.975L1459.12 315.601L1457.93 316.224L1456.67 316.846L1455.36 317.466L1453.99 318.084L1452.56 318.7L1451.07 319.314L1449.53 319.926L1447.93 320.536L1446.28 321.144L1444.58 321.749L1442.82 322.353L1441.01 322.954L1439.15 323.554L1437.24 324.151L1435.27 324.746L1433.26 325.338L1431.2 325.929L1429.08 326.517L1426.92 327.102L1424.7 327.686L1422.44 328.267L1420.12 328.846L1417.76 329.422L1415.34 329.996L1412.87 330.567L1410.35 331.136L1407.78 331.702L1405.16 332.265L1402.48 332.826L1399.76 333.384L1396.98 333.939L1394.15 334.491L1391.27 335.04L1388.34 335.587L1385.36 336.131L1382.33 336.671L1379.26 337.209L1376.14 337.745L1372.97 338.277L1369.76 338.806L1366.51 339.333L1363.22 339.857L1359.88 340.379L1356.5 340.897L1353.08 341.413L1349.62 341.926L1346.11 342.436L1342.56 342.943L1338.98 343.448L1335.35 343.949L1331.68 344.448L1327.96 344.944L1324.21 345.436L1320.41 345.926L1316.57 346.413L1312.69 346.896L1308.76 347.377L1304.8 347.854L1300.79 348.328L1296.74 348.799L1292.64 349.266L1288.5 349.73L1284.32 350.191L1280.1 350.648L1275.83 351.102L1271.52 351.552L1267.17 351.999L1262.77 352.442L1258.34 352.882L1253.86 353.318L1249.34 353.75L1244.78 354.179L1240.18 354.603L1235.53 355.025L1230.85 355.442L1226.13 355.856L1221.36 356.266L1216.56 356.672L1211.72 357.075L1206.84 357.474L1201.93 357.869L1196.97 358.26L1191.98 358.648L1186.95 359.032L1181.88 359.412L1176.78 359.788L1171.64 360.161L1166.47 360.53L1161.25 360.895L1156.01 361.257L1150.72 361.614L1145.4 361.968L1140.05 362.318L1134.66 362.664L1129.23 363.006L1123.77 363.343L1118.27 363.677L1112.73 364.006L1107.16 364.331L1101.55 364.651L1095.91 364.966L1090.22 365.277L1084.5 365.583L1078.74 365.884L1072.95 366.179L1067.12 366.47L1061.25 366.754L1055.34 367.034L1049.4 367.307L1043.42 367.575L1037.4 367.836L1031.35 368.092L1025.27 368.341L1019.14 368.584L1012.99 368.82L1006.8 369.049L1000.57 369.271L994.315 369.485L988.025 369.693L981.702 369.892L975.349 370.084L968.965 370.267L962.551 370.443L956.109 370.609L949.64 370.767L943.145 370.916L936.625 371.056L930.082 371.187L923.516 371.308L916.93 371.42L910.325 371.521L903.703 371.614L897.066 371.696L890.414 371.768L883.751 371.831L877.077 371.884L870.395 371.926L863.707 371.959L857.013 371.983L850.317 371.996L843.618 372L836.92 371.994L830.224 371.979L823.532 371.954L816.844 371.919L810.164 371.876L803.491 371.823L796.829 371.761L790.177 371.689L783.538 371.609L776.913 371.52L770.303 371.423L763.709 371.317L757.132 371.203L750.574 371.08L744.035 370.95L737.517 370.812L731.019 370.667L724.543 370.514L718.089 370.354L711.657 370.187L705.249 370.014L698.863 369.834L692.5 369.648L686.161 369.457L679.844 369.26L673.55 369.057L667.279 368.85L661.029 368.637L654.8 368.42L648.592 368.199L642.403 367.974L636.233 367.745L630.081 367.512L623.945 367.277L617.825 367.038L611.719 366.796L605.625 366.551L599.543 366.304L593.472 366.054L587.409 365.803L581.353 365.549L575.303 365.293L569.258 365.035L563.215 364.776L557.175 364.515L551.134 364.252L545.094 363.988L539.051 363.721L533.005 363.453L526.956 363.184L520.902 362.912L514.844 362.639L508.78 362.363L502.71 362.085L496.634 361.805L490.554 361.522L484.468 361.236L478.377 360.948L472.284 360.656L466.188 360.36L460.092 360.061L453.997 359.757L447.905 359.449L441.82 359.136L435.744 358.818L429.681 358.494L423.634 358.164L417.606 357.828L411.603 357.485L405.628 357.135L399.687 356.778L393.784 356.412L387.925 356.039L382.114 355.656L376.359 355.265L370.664 354.865L365.036 354.455L359.481 354.035L354.005 353.606L348.614 353.166L343.315 352.716L338.113 352.255L333.016 351.784L328.029 351.301L323.159 350.809L318.41 350.305L313.79 349.79L309.303 349.265L304.954 348.73L300.748 348.183L296.689 347.627L292.782 347.061L289.03 346.485L285.435 345.899L282.002 345.305L278.733 344.701L275.63 344.089L272.698 343.469L269.936 342.842L267.349 342.206L264.938 341.564L262.704 340.916L260.648 340.261L258.773 339.6L257.079 338.934L255.566 338.263L254.235 337.587L253.087 336.908L252.121 336.225L251.336 335.539L250.733 334.85L250.31 334.159L250.066 333.467L250 332.773L250.11 332.078L250.394 331.383L250.851 330.688L251.476 329.994L252.269 329.3L253.226 328.608L254.344 327.918L255.619 327.231L257.049 326.546L258.628 325.864L260.354 325.185L262.222 324.51L264.227 323.84L266.366 323.174L268.633 322.513L271.023 321.857L273.533 321.207L276.155 320.562L278.886 319.923L281.72 319.291L284.652 318.665L287.675 318.046L290.785 317.434L293.976 316.829L297.243 316.231L300.579 315.64L303.98 315.057L307.439 314.481L310.951 313.913L314.51 313.352L318.112 312.799L321.75 312.254L325.42 311.716L329.116 311.186L332.833 310.664L336.566 310.149L340.311 309.641L344.062 309.141L347.815 308.648L351.567 308.163L355.312 307.684L359.046 307.212L362.767 306.747L366.47 306.288L370.152 305.835L373.81 305.389L377.441 304.949L381.042 304.514L384.611 304.085L388.147 303.661L391.646 303.242L395.108 302.828L398.531 302.418L401.913 302.013L405.255 301.612L408.554 301.216L411.81 300.822L415.024 300.433L418.194 300.046L421.321 299.663L424.404 299.283L427.443 298.905L430.44 298.53L433.393 298.157L436.303 297.786L439.171 297.416L441.997 297.049L444.781 296.683L447.522 296.318L450.222 295.954L452.881 295.591L455.497 295.228L458.071 294.865L460.603 294.503L463.092 294.141L465.536 293.777L467.935 293.414L470.289 293.049L472.595 292.682L474.854 292.314L477.065 291.944L479.227 291.571L481.341 291.196L483.407 290.818L485.426 290.436L487.397 290.051L489.322 289.662L491.202 289.27L493.038 288.872L494.831 288.471L496.584 288.064L498.297 287.652L499.973 287.235L501.615 286.813L503.224 286.384L504.804 285.951L506.356 285.511L507.884 285.064L509.392 284.612L510.882 284.154L512.357 283.689L513.822 283.217L515.28 282.739L516.734 282.255L518.189 281.764L519.648 281.267L521.116 280.763L522.597 280.253L524.095 279.736L525.613 279.214L527.157 278.686L528.731 278.152L530.339 277.612L531.985 277.067L533.674 276.517L535.41 275.962L537.196 275.402L539.038 274.838L540.939 274.27L542.903 273.698L544.934 273.123L547.036 272.546L549.213 271.965L551.469 271.383L553.806 270.799L556.227 270.213L558.737 269.627L561.338 269.041L564.033 268.454L566.824 267.869L569.715 267.284L572.706 266.701L575.8 266.12L578.999 265.542L582.305 264.967L585.719 264.395L589.242 263.827L592.875 263.265L596.618 262.707L600.474 262.155L604.44 261.609L608.519 261.07L612.71 260.538L617.012 260.013L621.425 259.497L625.949 258.989L630.583 258.491L635.326 258.002L640.177 257.523L645.135 257.055L650.197 256.598L655.364 256.153L660.632 255.72L665.999 255.299L671.465 254.891L677.025 254.497L682.678 254.117L688.42 253.752L694.249 253.401L700.163 253.065L706.156 252.745L712.228 252.44L718.373 252.152L724.588 251.881L730.869 251.627L737.213 251.39L743.615 251.17L750.072 250.969L756.579 250.785L763.131 250.621L769.725 250.475L776.355 250.348L783.018 250.24L789.708 250.152L796.421 250.084L803.151 250.036L809.894 250.008L816.645 250L823.398 250.013L830.148 250.047L836.89 250.101L843.618 250.175L850.328 250.27L857.014 250.386L863.671 250.521L870.294 250.676L876.878 250.851L883.418 251.044L889.91 251.257L896.35 251.487L902.732 251.735L909.054 252.001L915.312 252.282L921.502 252.58L927.622 252.893L933.668 253.22L939.639 253.561L945.532 253.914L951.345 254.28L957.078 254.656L962.73 255.044L968.3 255.44L973.788 255.845L979.194 256.258L984.519 256.677L989.764 257.102L994.931 257.532L1000.02 257.965L1005.04 258.402L1009.98 258.841L1014.86 259.281L1019.67 259.721L1024.41 260.161L1029.11 260.6L1033.74 261.036L1038.33 261.47L1042.87 261.9L1047.37 262.326L1051.84 262.746L1056.28 263.162L1060.7 263.571L1065.09 263.974L1069.47 264.371L1073.85 264.759L1078.22 265.14L1082.6 265.514L1086.98 265.879L1091.38 266.235L1095.79 266.583L1100.23 266.923L1104.69 267.255L1109.19 267.577L1113.73 267.892L1118.3 268.199L1122.92 268.497L1127.59 268.788L1132.31 269.072L1137.07 269.349L1141.89 269.619L1146.77 269.884L1151.7 270.143L1156.69 270.397L1161.74 270.646L1166.84 270.892L1172.01 271.134L1177.23 271.374L1182.5 271.611L1187.84 271.846L1193.22 272.08L1198.66 272.314L1204.15 272.548L1209.69 272.782L1215.28 273.017L1220.9 273.254L1226.57 273.494L1232.27 273.736L1238 273.982L1243.76 274.232L1249.54 274.486L1255.34 274.746L1261.15 275.011L1266.97 275.283L1272.79 275.561L1278.61 275.846L1284.41 276.139L1290.2 276.44L1295.97 276.749L1301.71 277.067L1307.42 277.393L1313.09 277.729L1318.71 278.074L1324.28 278.428L1329.8 278.792L1335.26 279.166L1340.66 279.55L1345.99 279.944L1351.25 280.347L1356.43 280.761L1361.52 281.184L1366.54 281.617L1371.46 282.06L1376.29 282.513L1381.02 282.975L1385.66 283.446L1390.18 283.927L1394.6 284.418L1398.9 284.917L1403.09 285.425L1407.16 285.942L1411.11 286.468L1414.94 287.001L1418.64 287.543L1422.21 288.093L1425.65 288.65L1428.96 289.214L1432.14 289.785L1435.18 290.363L1438.09 290.947L1440.86 291.537L1443.49 292.133L1445.98 292.734L1448.34 293.341L1450.57 293.952L1452.65 294.568L1454.61 295.187L1456.43 295.811L1458.11 296.438L1459.67 297.068L1461.09 297.701L1462.39 298.336L1463.57 298.974L1464.62 299.613L1465.55 300.254L1466.36 300.897L1467.06 301.541L1467.65 302.185L1468.13 302.83L1468.5 303.476L1468.76 304.121L1468.93 304.767L1469 305.412L1468.98 306.057L1468.86 306.702L1468.66 307.346L1468.37 307.989L1467.99 308.63L1467.54 309.271L1467.01 309.911L1466.41 310.549L1465.73 311.186Z" fill="url(#paint0_linear_698_12203)" fill-opacity="0.7"/>
<path fill-rule="evenodd" clip-rule="evenodd" d="M1465.73 311.186L1464.98 311.822L1464.17 312.456L1463.29 313.088L1462.34 313.719L1461.33 314.348L1460.26 314.975L1459.12 315.601L1457.93 316.224L1456.67 316.846L1455.36 317.466L1453.99 318.084L1452.56 318.7L1451.07 319.314L1449.53 319.926L1447.93 320.536L1446.28 321.144L1444.58 321.749L1442.82 322.353L1441.01 322.954L1439.15 323.554L1437.24 324.151L1435.27 324.746L1433.26 325.338L1431.2 325.929L1429.08 326.517L1426.92 327.102L1424.7 327.686L1422.44 328.267L1420.12 328.846L1417.76 329.422L1415.34 329.996L1412.87 330.567L1410.35 331.136L1407.78 331.702L1405.16 332.265L1402.48 332.826L1399.76 333.384L1396.98 333.939L1394.15 334.491L1391.27 335.04L1388.34 335.587L1385.36 336.131L1382.33 336.671L1379.26 337.209L1376.14 337.745L1372.97 338.277L1369.76 338.806L1366.51 339.333L1363.22 339.857L1359.88 340.379L1356.5 340.897L1353.08 341.413L1349.62 341.926L1346.11 342.436L1342.56 342.943L1338.98 343.448L1335.35 343.949L1331.68 344.448L1327.96 344.944L1324.21 345.436L1320.41 345.926L1316.57 346.413L1312.69 346.896L1308.76 347.377L1304.8 347.854L1300.79 348.328L1296.74 348.799L1292.64 349.266L1288.5 349.73L1284.32 350.191L1280.1 350.648L1275.83 351.102L1271.52 351.552L1267.17 351.999L1262.77 352.442L1258.34 352.882L1253.86 353.318L1249.34 353.75L1244.78 354.179L1240.18 354.603L1235.53 355.025L1230.85 355.442L1226.13 355.856L1221.36 356.266L1216.56 356.672L1211.72 357.075L1206.84 357.474L1201.93 357.869L1196.97 358.26L1191.98 358.648L1186.95 359.032L1181.88 359.412L1176.78 359.788L1171.64 360.161L1166.47 360.53L1161.25 360.895L1156.01 361.257L1150.72 361.614L1145.4 361.968L1140.05 362.318L1134.66 362.664L1129.23 363.006L1123.77 363.343L1118.27 363.677L1112.73 364.006L1107.16 364.331L1101.55 364.651L1095.91 364.966L1090.22 365.277L1084.5 365.583L1078.74 365.884L1072.95 366.179L1067.12 366.47L1061.25 366.754L1055.34 367.034L1049.4 367.307L1043.42 367.575L1037.4 367.836L1031.35 368.092L1025.27 368.341L1019.14 368.584L1012.99 368.82L1006.8 369.049L1000.57 369.271L994.315 369.485L988.025 369.693L981.702 369.892L975.349 370.084L968.965 370.267L962.551 370.443L956.109 370.609L949.64 370.767L943.145 370.916L936.625 371.056L930.082 371.187L923.516 371.308L916.93 371.42L910.325 371.521L903.703 371.614L897.066 371.696L890.414 371.768L883.751 371.831L877.077 371.884L870.395 371.926L863.707 371.959L857.013 371.983L850.317 371.996L843.618 372L836.92 371.994L830.224 371.979L823.532 371.954L816.844 371.919L810.164 371.876L803.491 371.823L796.829 371.761L790.177 371.689L783.538 371.609L776.913 371.52L770.303 371.423L763.709 371.317L757.132 371.203L750.574 371.08L744.035 370.95L737.517 370.812L731.019 370.667L724.543 370.514L718.089 370.354L711.657 370.187L705.249 370.014L698.863 369.834L692.5 369.648L686.161 369.457L679.844 369.26L673.55 369.057L667.279 368.85L661.029 368.637L654.8 368.42L648.592 368.199L642.403 367.974L636.233 367.745L630.081 367.512L623.945 367.277L617.825 367.038L611.719 366.796L605.625 366.551L599.543 366.304L593.472 366.054L587.409 365.803L581.353 365.549L575.303 365.293L569.258 365.035L563.215 364.776L557.175 364.515L551.134 364.252L545.094 363.988L539.051 363.721L533.005 363.453L526.956 363.184L520.902 362.912L514.844 362.639L508.78 362.363L502.71 362.085L496.634 361.805L490.554 361.522L484.468 361.236L478.377 360.948L472.284 360.656L466.188 360.36L460.092 360.061L453.997 359.757L447.905 359.449L441.82 359.136L435.744 358.818L429.681 358.494L423.634 358.164L417.606 357.828L411.603 357.485L405.628 357.135L399.687 356.778L393.784 356.412L387.925 356.039L382.114 355.656L376.359 355.265L370.664 354.865L365.036 354.455L359.481 354.035L354.005 353.606L348.614 353.166L343.315 352.716L338.113 352.255L333.016 351.784L328.029 351.301L323.159 350.809L318.41 350.305L313.79 349.79L309.303 349.265L304.954 348.73L300.748 348.183L296.689 347.627L292.782 347.061L289.03 346.485L285.435 345.899L282.002 345.305L278.733 344.701L275.63 344.089L272.698 343.469L269.936 342.842L267.349 342.206L264.938 341.564L262.704 340.916L260.648 340.261L258.773 339.6L257.079 338.934L255.566 338.263L254.235 337.587L253.087 336.908L252.121 336.225L251.336 335.539L250.733 334.85L250.31 334.159L250.066 333.467L250 332.773L250.11 332.078L250.394 331.383L250.851 330.688L251.476 329.994L252.269 329.3L253.226 328.608L254.344 327.918L255.619 327.231L257.049 326.546L258.628 325.864L260.354 325.185L262.222 324.51L264.227 323.84L266.366 323.174L268.633 322.513L271.023 321.857L273.533 321.207L276.155 320.562L278.886 319.923L281.72 319.291L284.652 318.665L287.675 318.046L290.785 317.434L293.976 316.829L297.243 316.231L300.579 315.64L303.98 315.057L307.439 314.481L310.951 313.913L314.51 313.352L318.112 312.799L321.75 312.254L325.42 311.716L329.116 311.186L332.833 310.664L336.566 310.149L340.311 309.641L344.062 309.141L347.815 308.648L351.567 308.163L355.312 307.684L359.046 307.212L362.767 306.747L366.47 306.288L370.152 305.835L373.81 305.389L377.441 304.949L381.042 304.514L384.611 304.085L388.147 303.661L391.646 303.242L395.108 302.828L398.531 302.418L401.913 302.013L405.255 301.612L408.554 301.216L411.81 300.822L415.024 300.433L418.194 300.046L421.321 299.663L424.404 299.283L427.443 298.905L430.44 298.53L433.393 298.157L436.303 297.786L439.171 297.416L441.997 297.049L444.781 296.683L447.522 296.318L450.222 295.954L452.881 295.591L455.497 295.228L458.071 294.865L460.603 294.503L463.092 294.141L465.536 293.777L467.935 293.414L470.289 293.049L472.595 292.682L474.854 292.314L477.065 291.944L479.227 291.571L481.341 291.196L483.407 290.818L485.426 290.436L487.397 290.051L489.322 289.662L491.202 289.27L493.038 288.872L494.831 288.471L496.584 288.064L498.297 287.652L499.973 287.235L501.615 286.813L503.224 286.384L504.804 285.951L506.356 285.511L507.884 285.064L509.392 284.612L510.882 284.154L512.357 283.689L513.822 283.217L515.28 282.739L516.734 282.255L518.189 281.764L519.648 281.267L521.116 280.763L522.597 280.253L524.095 279.736L525.613 279.214L527.157 278.686L528.731 278.152L530.339 277.612L531.985 277.067L533.674 276.517L535.41 275.962L537.196 275.402L539.038 274.838L540.939 274.27L542.903 273.698L544.934 273.123L547.036 272.546L549.213 271.965L551.469 271.383L553.806 270.799L556.227 270.213L558.737 269.627L561.338 269.041L564.033 268.454L566.824 267.869L569.715 267.284L572.706 266.701L575.8 266.12L578.999 265.542L582.305 264.967L585.719 264.395L589.242 263.827L592.875 263.265L596.618 262.707L600.474 262.155L604.44 261.609L608.519 261.07L612.71 260.538L617.012 260.013L621.425 259.497L625.949 258.989L630.583 258.491L635.326 258.002L640.177 257.523L645.135 257.055L650.197 256.598L655.364 256.153L660.632 255.72L665.999 255.299L671.465 254.891L677.025 254.497L682.678 254.117L688.42 253.752L694.249 253.401L700.163 253.065L706.156 252.745L712.228 252.44L718.373 252.152L724.588 251.881L730.869 251.627L737.213 251.39L743.615 251.17L750.072 250.969L756.579 250.785L763.131 250.621L769.725 250.475L776.355 250.348L783.018 250.24L789.708 250.152L796.421 250.084L803.151 250.036L809.894 250.008L816.645 250L823.398 250.013L830.148 250.047L836.89 250.101L843.618 250.175L850.328 250.27L857.014 250.386L863.671 250.521L870.294 250.676L876.878 250.851L883.418 251.044L889.91 251.257L896.35 251.487L902.732 251.735L909.054 252.001L915.312 252.282L921.502 252.58L927.622 252.893L933.668 253.22L939.639 253.561L945.532 253.914L951.345 254.28L957.078 254.656L962.73 255.044L968.3 255.44L973.788 255.845L979.194 256.258L984.519 256.677L989.764 257.102L994.931 257.532L1000.02 257.965L1005.04 258.402L1009.98 258.841L1014.86 259.281L1019.67 259.721L1024.41 260.161L1029.11 260.6L1033.74 261.036L1038.33 261.47L1042.87 261.9L1047.37 262.326L1051.84 262.746L1056.28 263.162L1060.7 263.571L1065.09 263.974L1069.47 264.371L1073.85 264.759L1078.22 265.14L1082.6 265.514L1086.98 265.879L1091.38 266.235L1095.79 266.583L1100.23 266.923L1104.69 267.255L1109.19 267.577L1113.73 267.892L1118.3 268.199L1122.92 268.497L1127.59 268.788L1132.31 269.072L1137.07 269.349L1141.89 269.619L1146.77 269.884L1151.7 270.143L1156.69 270.397L1161.74 270.646L1166.84 270.892L1172.01 271.134L1177.23 271.374L1182.5 271.611L1187.84 271.846L1193.22 272.08L1198.66 272.314L1204.15 272.548L1209.69 272.782L1215.28 273.017L1220.9 273.254L1226.57 273.494L1232.27 273.736L1238 273.982L1243.76 274.232L1249.54 274.486L1255.34 274.746L1261.15 275.011L1266.97 275.283L1272.79 275.561L1278.61 275.846L1284.41 276.139L1290.2 276.44L1295.97 276.749L1301.71 277.067L1307.42 277.393L1313.09 277.729L1318.71 278.074L1324.28 278.428L1329.8 278.792L1335.26 279.166L1340.66 279.55L1345.99 279.944L1351.25 280.347L1356.43 280.761L1361.52 281.184L1366.54 281.617L1371.46 282.06L1376.29 282.513L1381.02 282.975L1385.66 283.446L1390.18 283.927L1394.6 284.418L1398.9 284.917L1403.09 285.425L1407.16 285.942L1411.11 286.468L1414.94 287.001L1418.64 287.543L1422.21 288.093L1425.65 288.65L1428.96 289.214L1432.14 289.785L1435.18 290.363L1438.09 290.947L1440.86 291.537L1443.49 292.133L1445.98 292.734L1448.34 293.341L1450.57 293.952L1452.65 294.568L1454.61 295.187L1456.43 295.811L1458.11 296.438L1459.67 297.068L1461.09 297.701L1462.39 298.336L1463.57 298.974L1464.62 299.613L1465.55 300.254L1466.36 300.897L1467.06 301.541L1467.65 302.185L1468.13 302.83L1468.5 303.476L1468.76 304.121L1468.93 304.767L1469 305.412L1468.98 306.057L1468.86 306.702L1468.66 307.346L1468.37 307.989L1467.99 308.63L1467.54 309.271L1467.01 309.911L1466.41 310.549L1465.73 311.186Z" stroke="black"/>
</g>
<defs>
<filter id="filter0_f_698_12203" x="0" y="0" width="1719" height="622" filterUnits="userSpaceOnUse" color-interpolation-filters="sRGB">
<feFlood flood-opacity="0" result="BackgroundImageFix"/>
<feBlend mode="normal" in="SourceGraphic" in2="BackgroundImageFix" result="shape"/>
<feGaussianBlur stdDeviation="125" result="effect1_foregroundBlur_698_12203"/>
</filter>
<linearGradient id="paint0_linear_698_12203" x1="1107.7" y1="379.863" x2="1140.44" y2="163.577" gradientUnits="userSpaceOnUse">
<stop stop-color="#7F7FBF" stop-opacity="0.5"/>
<stop offset="0.339489" stop-color="#ABEBFF"/>
</linearGradient>
</defs>
</svg>
