<svg width="1512" height="916" viewBox="0 0 1512 916" fill="none" xmlns="http://www.w3.org/2000/svg">
<g filter="url(#filter0_f_774_17078)">
<path fill-rule="evenodd" clip-rule="evenodd" d="M1507.95 334.016L1507.02 337.486L1506.01 340.946L1504.91 344.399L1503.74 347.842L1502.49 351.276L1501.16 354.7L1499.75 358.115L1498.27 361.52L1496.71 364.914L1495.08 368.299L1493.38 371.672L1491.61 375.035L1489.76 378.387L1487.85 381.727L1485.87 385.057L1483.82 388.375L1481.71 391.681L1479.53 394.976L1477.28 398.259L1474.97 401.53L1472.6 404.79L1470.17 408.037L1467.67 411.272L1465.11 414.495L1462.49 417.706L1459.8 420.904L1457.06 424.089L1454.25 427.261L1451.38 430.42L1448.44 433.566L1445.44 436.698L1442.38 439.816L1439.26 442.921L1436.07 446.011L1432.81 449.086L1429.5 452.147L1426.11 455.192L1422.67 458.222L1419.16 461.237L1415.59 464.236L1411.95 467.22L1408.26 470.188L1404.5 473.14L1400.69 476.077L1396.82 478.999L1392.89 481.905L1388.91 484.796L1384.88 487.672L1380.79 490.533L1376.65 493.378L1372.46 496.209L1368.22 499.024L1363.92 501.824L1359.57 504.609L1355.17 507.378L1350.72 510.132L1346.22 512.87L1341.67 515.592L1337.06 518.298L1332.4 520.988L1327.69 523.662L1322.93 526.319L1318.12 528.958L1313.25 531.581L1308.33 534.187L1303.36 536.775L1298.33 539.345L1293.25 541.896L1288.12 544.43L1282.93 546.945L1277.69 549.441L1272.4 551.919L1267.05 554.377L1261.66 556.815L1256.21 559.234L1250.7 561.634L1245.15 564.013L1239.54 566.373L1233.88 568.713L1228.18 571.032L1222.42 573.331L1216.61 575.61L1210.75 577.869L1204.84 580.107L1198.89 582.325L1192.88 584.523L1186.83 586.7L1180.73 588.857L1174.58 590.993L1168.39 593.11L1162.15 595.206L1155.87 597.281L1149.54 599.336L1143.17 601.371L1136.75 603.386L1130.28 605.379L1123.78 607.352L1117.22 609.304L1110.62 611.235L1103.98 613.145L1097.3 615.033L1090.56 616.899L1083.79 618.742L1076.97 620.563L1070.1 622.36L1063.19 624.133L1056.23 625.881L1049.23 627.604L1042.18 629.3L1035.08 630.969L1027.94 632.611L1020.75 634.225L1013.52 635.809L1006.24 637.364L998.913 638.888L991.542 640.381L984.126 641.842L976.665 643.271L969.159 644.665L961.61 646.025L954.017 647.35L946.381 648.638L938.702 649.889L930.981 651.101L923.219 652.273L915.417 653.404L907.575 654.494L899.694 655.54L891.776 656.542L883.821 657.498L875.831 658.408L867.807 659.271L859.75 660.084L851.663 660.848L843.547 661.561L835.403 662.222L827.234 662.832L819.042 663.388L810.828 663.891L802.595 664.34L794.345 664.735L786.08 665.076L777.802 665.364L769.514 665.598L761.218 665.778L752.916 665.905L744.609 665.979L736.301 666L727.993 665.968L719.688 665.884L711.387 665.748L703.092 665.56L694.805 665.321L686.529 665.032L678.265 664.693L670.014 664.304L661.78 663.867L653.562 663.382L645.363 662.85L637.184 662.271L629.027 661.647L620.893 660.979L612.782 660.268L604.697 659.515L596.637 658.721L588.605 657.886L580.599 657.013L572.622 656.103L564.673 655.157L556.752 654.177L548.86 653.163L540.997 652.117L533.162 651.041L525.355 649.935L517.576 648.802L509.824 647.643L502.098 646.459L494.398 645.252L486.721 644.022L479.068 642.772L471.437 641.502L463.827 640.215L456.235 638.91L448.662 637.589L441.104 636.254L433.56 634.905L426.029 633.543L418.509 632.168L410.997 630.783L403.493 629.387L395.995 627.981L388.5 626.564L381.007 625.139L373.515 623.704L366.022 622.26L358.527 620.807L351.029 619.344L343.525 617.872L336.017 616.389L328.502 614.896L320.98 613.391L313.451 611.875L305.916 610.344L298.373 608.801L290.825 607.241L283.27 605.665L275.712 604.072L268.151 602.458L260.589 600.824L253.029 599.167L245.474 597.485L237.926 595.777L230.39 594.04L222.869 592.272L215.368 590.472L207.892 588.637L200.446 586.765L193.035 584.854L185.666 582.902L178.344 580.907L171.076 578.867L163.869 576.78L156.731 574.645L149.667 572.459L142.686 570.222L135.796 567.931L129.003 565.586L122.317 563.185L115.744 560.727L109.292 558.212L102.97 555.638L96.7843 553.006L90.7431 550.315L84.8535 547.566L79.1224 544.757L73.5567 541.891L68.1624 538.966L62.9457 535.985L57.9117 532.948L53.0653 529.856L48.4108 526.712L43.9524 523.516L39.6939 520.27L35.6389 516.976L31.791 513.636L28.1532 510.251L24.7284 506.824L21.5192 503.357L18.5281 499.851L15.757 496.31L13.2077 492.734L10.8817 489.127L8.78013 485.491L6.90385 481.829L5.25339 478.141L3.82896 474.432L2.63044 470.704L1.6574 466.959L0.90909 463.199L0.384412 459.427L0.08196 455.646L0 451.858L0.136477 448.066L0.489019 444.271L1.05494 440.478L1.83124 436.687L2.81463 432.902L4.0015 429.125L5.38797 425.358L6.96988 421.603L8.74279 417.864L10.702 414.141L12.8426 410.437L15.1593 406.753L17.6468 403.093L20.2994 399.458L23.1113 395.849L26.0766 392.269L29.1889 388.718L32.442 385.199L35.8293 381.713L39.3444 378.261L42.9805 374.845L46.7308 371.465L50.5885 368.122L54.5466 364.819L58.5983 361.554L62.7365 358.329L66.9542 355.145L71.2447 352.002L75.6009 348.9L80.0161 345.839L84.4834 342.821L88.9962 339.844L93.548 336.91L98.1322 334.016L102.743 331.165L107.373 328.354L112.018 325.584L116.671 322.854L121.326 320.163L125.979 317.511L130.624 314.898L135.257 312.321L139.872 309.781L144.465 307.277L149.032 304.807L153.569 302.37L158.072 299.965L162.539 297.592L166.967 295.249L171.352 292.934L175.692 290.648L179.986 288.387L184.232 286.152L188.427 283.941L192.572 281.753L196.664 279.586L200.703 277.44L204.689 275.313L208.621 273.204L212.499 271.112L216.323 269.035L220.094 266.973L223.81 264.924L227.473 262.888L231.083 260.862L234.641 258.847L238.145 256.84L241.598 254.841L244.999 252.849L248.348 250.862L251.645 248.879L254.89 246.9L258.084 244.921L261.224 242.943L264.31 240.964L267.342 238.982L270.319 236.995L273.238 235.003L276.098 233.003L278.9 230.993L281.642 228.972L284.324 226.938L286.947 224.889L289.509 222.825L292.013 220.742L294.458 218.641L296.846 216.518L299.178 214.373L301.455 212.205L303.679 210.011L305.853 207.791L307.978 205.544L310.057 203.267L312.093 200.961L314.089 198.623L316.048 196.254L317.974 193.853L319.87 191.418L321.74 188.949L323.587 186.445L325.418 183.907L327.234 181.333L329.042 178.724L330.846 176.08L332.651 173.4L334.461 170.685L336.282 167.935L338.119 165.15L339.976 162.332L341.86 159.48L343.775 156.596L345.727 153.68L347.722 150.734L349.764 147.759L351.858 144.755L354.011 141.725L356.227 138.669L358.511 135.59L360.869 132.49L363.305 129.369L365.825 126.231L368.432 123.077L371.133 119.909L373.93 116.729L376.829 113.541L379.833 110.345L382.946 107.145L386.172 103.944L389.514 100.743L392.977 97.545L396.561 94.3535L400.271 91.1708L404.11 87.9995L408.078 84.8425L412.178 81.7025L416.412 78.5822L420.782 75.4845L425.288 72.4122L429.932 69.3679L434.714 66.3544L439.634 63.3744L444.693 60.4306L449.891 57.5258L455.227 54.6627L460.701 51.844L466.313 49.0725L472.061 46.3509L477.944 43.6821L483.96 41.0687L490.11 38.5135L496.389 36.0192L502.797 33.5883L509.332 31.2236L515.99 28.9276L522.768 26.7027L529.665 24.5516L536.676 22.4765L543.799 20.4798L551.03 18.5637L558.364 16.7306L565.799 14.9824L573.329 13.3212L580.951 11.7491L588.66 10.2679L596.451 8.87947L604.32 7.58556L612.261 6.38789L620.27 5.2881L628.34 4.28776L636.468 3.3884L644.646 2.59152L652.87 1.89856L661.135 1.31094L669.433 0.830057L677.759 0.457293L686.107 0.193986L694.471 0.0412681L702.844 0L711.22 0.070762L719.593 0.25385L727.955 0.549269L736.301 0.956733L744.624 1.47566L752.917 2.10518L761.174 2.84411L769.388 3.69099L777.555 4.64407L785.667 5.70132L793.719 6.86041L801.707 8.11877L809.623 9.47354L817.465 10.9216L825.227 12.4597L832.905 14.0841L840.495 15.7912L847.995 17.5769L855.401 19.437L862.71 21.3673L869.921 23.3631L877.032 25.4199L884.043 27.5329L890.951 29.6972L897.758 31.908L904.463 34.1602L911.068 36.4488L917.574 38.7688L923.983 41.1152L930.297 43.4828L936.518 45.8667L942.651 48.2621L948.698 50.6641L954.664 53.068L960.554 55.4692L966.372 57.8632L972.123 60.2458L977.813 62.6129L983.447 64.9606L989.033 67.2852L994.575 69.5831L1000.08 71.8513L1005.56 74.0868L1011.01 76.2868L1016.44 78.4489L1021.87 80.5711L1027.29 82.6515L1032.72 84.6886L1038.16 86.6812L1043.61 88.6283L1049.08 90.5294L1054.59 92.3842L1060.13 94.1928L1065.71 95.9555L1071.34 97.6729L1077.01 99.3461L1082.74 100.976L1088.53 102.565L1094.38 104.114L1100.29 105.626L1106.27 107.102L1112.32 108.546L1118.44 109.96L1124.63 111.347L1130.89 112.709L1137.22 114.05L1143.62 115.373L1150.1 116.68L1156.64 117.974L1163.26 119.259L1169.94 120.537L1176.68 121.813L1183.49 123.088L1190.36 124.366L1197.29 125.651L1204.27 126.945L1211.3 128.252L1218.37 129.575L1225.48 130.918L1232.62 132.282L1239.79 133.671L1246.99 135.089L1254.2 136.538L1261.41 138.02L1268.63 139.539L1275.84 141.096L1283.04 142.694L1290.23 144.336L1297.38 146.023L1304.5 147.757L1311.58 149.539L1318.61 151.371L1325.59 153.255L1332.5 155.19L1339.35 157.179L1346.12 159.22L1352.81 161.316L1359.42 163.465L1365.94 165.667L1372.37 167.924L1378.69 170.235L1384.91 172.599L1391.02 175.016L1397.01 177.487L1402.88 180.01L1408.62 182.585L1414.24 185.211L1419.71 187.887L1425.05 190.613L1430.25 193.387L1435.3 196.209L1440.2 199.078L1444.95 201.991L1449.54 204.948L1453.97 207.948L1458.24 210.989L1462.34 214.069L1466.28 217.187L1470.05 220.341L1473.66 223.53L1477.09 226.752L1480.36 230.006L1483.45 233.288L1486.38 236.599L1489.14 239.935L1491.72 243.296L1494.15 246.679L1496.4 250.082L1498.49 253.505L1500.42 256.944L1502.19 260.399L1503.81 263.867L1505.26 267.348L1506.57 270.839L1507.72 274.339L1508.73 277.847L1509.6 281.361L1510.32 284.879L1510.92 288.401L1511.38 291.924L1511.71 295.449L1511.91 298.974L1512 302.497L1511.97 306.018L1511.83 309.536L1511.57 313.051L1511.21 316.56L1510.75 320.064L1510.19 323.563L1509.53 327.055L1508.78 330.539L1507.95 334.016Z" fill="url(#paint0_linear_774_17078)" fill-opacity="0.5"/>
<path fill-rule="evenodd" clip-rule="evenodd" d="M1507.95 334.016L1507.02 337.486L1506.01 340.946L1504.91 344.399L1503.74 347.842L1502.49 351.276L1501.16 354.7L1499.75 358.115L1498.27 361.52L1496.71 364.914L1495.08 368.299L1493.38 371.672L1491.61 375.035L1489.76 378.387L1487.85 381.727L1485.87 385.057L1483.82 388.375L1481.71 391.681L1479.53 394.976L1477.28 398.259L1474.97 401.53L1472.6 404.79L1470.17 408.037L1467.67 411.272L1465.11 414.495L1462.49 417.706L1459.8 420.904L1457.06 424.089L1454.25 427.261L1451.38 430.42L1448.44 433.566L1445.44 436.698L1442.38 439.816L1439.26 442.921L1436.07 446.011L1432.81 449.086L1429.5 452.147L1426.11 455.192L1422.67 458.222L1419.16 461.237L1415.59 464.236L1411.95 467.22L1408.26 470.188L1404.5 473.14L1400.69 476.077L1396.82 478.999L1392.89 481.905L1388.91 484.796L1384.88 487.672L1380.79 490.533L1376.65 493.378L1372.46 496.209L1368.22 499.024L1363.92 501.824L1359.57 504.609L1355.17 507.378L1350.72 510.132L1346.22 512.87L1341.67 515.592L1337.06 518.298L1332.4 520.988L1327.69 523.662L1322.93 526.319L1318.12 528.958L1313.25 531.581L1308.33 534.187L1303.36 536.775L1298.33 539.345L1293.25 541.896L1288.12 544.43L1282.93 546.945L1277.69 549.441L1272.4 551.919L1267.05 554.377L1261.66 556.815L1256.21 559.234L1250.7 561.634L1245.15 564.013L1239.54 566.373L1233.88 568.713L1228.18 571.032L1222.42 573.331L1216.61 575.61L1210.75 577.869L1204.84 580.107L1198.89 582.325L1192.88 584.523L1186.83 586.7L1180.73 588.857L1174.58 590.993L1168.39 593.11L1162.15 595.206L1155.87 597.281L1149.54 599.336L1143.17 601.371L1136.75 603.386L1130.28 605.379L1123.78 607.352L1117.22 609.304L1110.62 611.235L1103.98 613.145L1097.3 615.033L1090.56 616.899L1083.79 618.742L1076.97 620.563L1070.1 622.36L1063.19 624.133L1056.23 625.881L1049.23 627.604L1042.18 629.3L1035.08 630.969L1027.94 632.611L1020.75 634.225L1013.52 635.809L1006.24 637.364L998.913 638.888L991.542 640.381L984.126 641.842L976.665 643.271L969.159 644.665L961.61 646.025L954.017 647.35L946.381 648.638L938.702 649.889L930.981 651.101L923.219 652.273L915.417 653.404L907.575 654.494L899.694 655.54L891.776 656.542L883.821 657.498L875.831 658.408L867.807 659.271L859.75 660.084L851.663 660.848L843.547 661.561L835.403 662.222L827.234 662.832L819.042 663.388L810.828 663.891L802.595 664.34L794.345 664.735L786.08 665.076L777.802 665.364L769.514 665.598L761.218 665.778L752.916 665.905L744.609 665.979L736.301 666L727.993 665.968L719.688 665.884L711.387 665.748L703.092 665.56L694.805 665.321L686.529 665.032L678.265 664.693L670.014 664.304L661.78 663.867L653.562 663.382L645.363 662.85L637.184 662.271L629.027 661.647L620.893 660.979L612.782 660.268L604.697 659.515L596.637 658.721L588.605 657.886L580.599 657.013L572.622 656.103L564.673 655.157L556.752 654.177L548.86 653.163L540.997 652.117L533.162 651.041L525.355 649.935L517.576 648.802L509.824 647.643L502.098 646.459L494.398 645.252L486.721 644.022L479.068 642.772L471.437 641.502L463.827 640.215L456.235 638.91L448.662 637.589L441.104 636.254L433.56 634.905L426.029 633.543L418.509 632.168L410.997 630.783L403.493 629.387L395.995 627.981L388.5 626.564L381.007 625.139L373.515 623.704L366.022 622.26L358.527 620.807L351.029 619.344L343.525 617.872L336.017 616.389L328.502 614.896L320.98 613.391L313.451 611.875L305.916 610.344L298.373 608.801L290.825 607.241L283.27 605.665L275.712 604.072L268.151 602.458L260.589 600.824L253.029 599.167L245.474 597.485L237.926 595.777L230.39 594.04L222.869 592.272L215.368 590.472L207.892 588.637L200.446 586.765L193.035 584.854L185.666 582.902L178.344 580.907L171.076 578.867L163.869 576.78L156.731 574.645L149.667 572.459L142.686 570.222L135.796 567.931L129.003 565.586L122.317 563.185L115.744 560.727L109.292 558.212L102.97 555.638L96.7843 553.006L90.7431 550.315L84.8535 547.566L79.1224 544.757L73.5567 541.891L68.1624 538.966L62.9457 535.985L57.9117 532.948L53.0653 529.856L48.4108 526.712L43.9524 523.516L39.6939 520.27L35.6389 516.976L31.791 513.636L28.1532 510.251L24.7284 506.824L21.5192 503.357L18.5281 499.851L15.757 496.31L13.2077 492.734L10.8817 489.127L8.78013 485.491L6.90385 481.829L5.25339 478.141L3.82896 474.432L2.63044 470.704L1.6574 466.959L0.90909 463.199L0.384412 459.427L0.08196 455.646L0 451.858L0.136477 448.066L0.489019 444.271L1.05494 440.478L1.83124 436.687L2.81463 432.902L4.0015 429.125L5.38797 425.358L6.96988 421.603L8.74279 417.864L10.702 414.141L12.8426 410.437L15.1593 406.753L17.6468 403.093L20.2994 399.458L23.1113 395.849L26.0766 392.269L29.1889 388.718L32.442 385.199L35.8293 381.713L39.3444 378.261L42.9805 374.845L46.7308 371.465L50.5885 368.122L54.5466 364.819L58.5983 361.554L62.7365 358.329L66.9542 355.145L71.2447 352.002L75.6009 348.9L80.0161 345.839L84.4834 342.821L88.9962 339.844L93.548 336.91L98.1322 334.016L102.743 331.165L107.373 328.354L112.018 325.584L116.671 322.854L121.326 320.163L125.979 317.511L130.624 314.898L135.257 312.321L139.872 309.781L144.465 307.277L149.032 304.807L153.569 302.37L158.072 299.965L162.539 297.592L166.967 295.249L171.352 292.934L175.692 290.648L179.986 288.387L184.232 286.152L188.427 283.941L192.572 281.753L196.664 279.586L200.703 277.44L204.689 275.313L208.621 273.204L212.499 271.112L216.323 269.035L220.094 266.973L223.81 264.924L227.473 262.888L231.083 260.862L234.641 258.847L238.145 256.84L241.598 254.841L244.999 252.849L248.348 250.862L251.645 248.879L254.89 246.9L258.084 244.921L261.224 242.943L264.31 240.964L267.342 238.982L270.319 236.995L273.238 235.003L276.098 233.003L278.9 230.993L281.642 228.972L284.324 226.938L286.947 224.889L289.509 222.825L292.013 220.742L294.458 218.641L296.846 216.518L299.178 214.373L301.455 212.205L303.679 210.011L305.853 207.791L307.978 205.544L310.057 203.267L312.093 200.961L314.089 198.623L316.048 196.254L317.974 193.853L319.87 191.418L321.74 188.949L323.587 186.445L325.418 183.907L327.234 181.333L329.042 178.724L330.846 176.08L332.651 173.4L334.461 170.685L336.282 167.935L338.119 165.15L339.976 162.332L341.86 159.48L343.775 156.596L345.727 153.68L347.722 150.734L349.764 147.759L351.858 144.755L354.011 141.725L356.227 138.669L358.511 135.59L360.869 132.49L363.305 129.369L365.825 126.231L368.432 123.077L371.133 119.909L373.93 116.729L376.829 113.541L379.833 110.345L382.946 107.145L386.172 103.944L389.514 100.743L392.977 97.545L396.561 94.3535L400.271 91.1708L404.11 87.9995L408.078 84.8425L412.178 81.7025L416.412 78.5822L420.782 75.4845L425.288 72.4122L429.932 69.3679L434.714 66.3544L439.634 63.3744L444.693 60.4306L449.891 57.5258L455.227 54.6627L460.701 51.844L466.313 49.0725L472.061 46.3509L477.944 43.6821L483.96 41.0687L490.11 38.5135L496.389 36.0192L502.797 33.5883L509.332 31.2236L515.99 28.9276L522.768 26.7027L529.665 24.5516L536.676 22.4765L543.799 20.4798L551.03 18.5637L558.364 16.7306L565.799 14.9824L573.329 13.3212L580.951 11.7491L588.66 10.2679L596.451 8.87947L604.32 7.58556L612.261 6.38789L620.27 5.2881L628.34 4.28776L636.468 3.3884L644.646 2.59152L652.87 1.89856L661.135 1.31094L669.433 0.830057L677.759 0.457293L686.107 0.193986L694.471 0.0412681L702.844 0L711.22 0.070762L719.593 0.25385L727.955 0.549269L736.301 0.956733L744.624 1.47566L752.917 2.10518L761.174 2.84411L769.388 3.69099L777.555 4.64407L785.667 5.70132L793.719 6.86041L801.707 8.11877L809.623 9.47354L817.465 10.9216L825.227 12.4597L832.905 14.0841L840.495 15.7912L847.995 17.5769L855.401 19.437L862.71 21.3673L869.921 23.3631L877.032 25.4199L884.043 27.5329L890.951 29.6972L897.758 31.908L904.463 34.1602L911.068 36.4488L917.574 38.7688L923.983 41.1152L930.297 43.4828L936.518 45.8667L942.651 48.2621L948.698 50.6641L954.664 53.068L960.554 55.4692L966.372 57.8632L972.123 60.2458L977.813 62.6129L983.447 64.9606L989.033 67.2852L994.575 69.5831L1000.08 71.8513L1005.56 74.0868L1011.01 76.2868L1016.44 78.4489L1021.87 80.5711L1027.29 82.6515L1032.72 84.6886L1038.16 86.6812L1043.61 88.6283L1049.08 90.5294L1054.59 92.3842L1060.13 94.1928L1065.71 95.9555L1071.34 97.6729L1077.01 99.3461L1082.74 100.976L1088.53 102.565L1094.38 104.114L1100.29 105.626L1106.27 107.102L1112.32 108.546L1118.44 109.96L1124.63 111.347L1130.89 112.709L1137.22 114.05L1143.62 115.373L1150.1 116.68L1156.64 117.974L1163.26 119.259L1169.94 120.537L1176.68 121.813L1183.49 123.088L1190.36 124.366L1197.29 125.651L1204.27 126.945L1211.3 128.252L1218.37 129.575L1225.48 130.918L1232.62 132.282L1239.79 133.671L1246.99 135.089L1254.2 136.538L1261.41 138.02L1268.63 139.539L1275.84 141.096L1283.04 142.694L1290.23 144.336L1297.38 146.023L1304.5 147.757L1311.58 149.539L1318.61 151.371L1325.59 153.255L1332.5 155.19L1339.35 157.179L1346.12 159.22L1352.81 161.316L1359.42 163.465L1365.94 165.667L1372.37 167.924L1378.69 170.235L1384.91 172.599L1391.02 175.016L1397.01 177.487L1402.88 180.01L1408.62 182.585L1414.24 185.211L1419.71 187.887L1425.05 190.613L1430.25 193.387L1435.3 196.209L1440.2 199.078L1444.95 201.991L1449.54 204.948L1453.97 207.948L1458.24 210.989L1462.34 214.069L1466.28 217.187L1470.05 220.341L1473.66 223.53L1477.09 226.752L1480.36 230.006L1483.45 233.288L1486.38 236.599L1489.14 239.935L1491.72 243.296L1494.15 246.679L1496.4 250.082L1498.49 253.505L1500.42 256.944L1502.19 260.399L1503.81 263.867L1505.26 267.348L1506.57 270.839L1507.72 274.339L1508.73 277.847L1509.6 281.361L1510.32 284.879L1510.92 288.401L1511.38 291.924L1511.71 295.449L1511.91 298.974L1512 302.497L1511.97 306.018L1511.83 309.536L1511.57 313.051L1511.21 316.56L1510.75 320.064L1510.19 323.563L1509.53 327.055L1508.78 330.539L1507.95 334.016Z" stroke="black"/>
</g>
<defs>
<filter id="filter0_f_774_17078" x="-250" y="-250" width="2012" height="1166" filterUnits="userSpaceOnUse" color-interpolation-filters="sRGB">
<feFlood flood-opacity="0" result="BackgroundImageFix"/>
<feBlend mode="normal" in="SourceGraphic" in2="BackgroundImageFix" result="shape"/>
<feGaussianBlur stdDeviation="125" result="effect1_foregroundBlur_774_17078"/>
</filter>
<linearGradient id="paint0_linear_774_17078" x1="1063.85" y1="708.922" x2="1621.19" y2="-127.457" gradientUnits="userSpaceOnUse">
<stop stop-color="#7F7FBF" stop-opacity="0.5"/>
<stop offset="0.339489" stop-color="#ABEBFF"/>
</linearGradient>
</defs>
</svg>
