<svg width="914" height="350" viewBox="0 0 914 350" fill="none" xmlns="http://www.w3.org/2000/svg">
<g filter="url(#filter0_f_758_11545)">
<path fill-rule="evenodd" clip-rule="evenodd" d="M861.356 50.1526L860.98 50.6735L860.57 51.1932L860.127 51.7115L859.651 52.2285L859.143 52.7441L858.604 53.2583L858.033 53.771L857.433 54.2823L856.802 54.792L856.141 55.3001L855.452 55.8066L854.733 56.3115L853.985 56.8148L853.21 57.3164L852.407 57.8163L851.576 58.3145L850.719 58.811L849.835 59.3057L848.925 59.7986L847.989 60.2898L847.028 60.7792L846.04 61.2668L845.028 61.7526L843.99 62.2365L842.927 62.7186L841.839 63.1987L840.725 63.677L839.586 64.1533L838.422 64.6276L837.232 65.1L836.017 65.5703L834.775 66.0385L833.508 66.5046L832.215 66.9686L830.896 67.4303L829.551 67.8899L828.18 68.3472L826.783 68.8021L825.36 69.2548L823.911 69.7051L822.438 70.1531L820.939 70.5988L819.417 71.0421L817.871 71.4831L816.302 71.9217L814.711 72.3581L813.097 72.7922L811.462 73.224L809.805 73.6536L808.126 74.0808L806.427 74.5058L804.706 74.9286L802.965 75.349L801.202 75.7671L799.419 76.1829L797.615 76.5964L795.789 77.0075L793.943 77.4162L792.076 77.8226L790.188 78.2265L788.278 78.6279L786.348 79.0268L784.396 79.4232L782.422 79.817L780.427 80.2082L778.411 80.5968L776.373 80.9827L774.314 81.3658L772.233 81.7463L770.13 82.1239L768.006 82.4987L765.861 82.8707L763.693 83.2397L761.505 83.6059L759.295 83.9691L757.064 84.3294L754.812 84.6867L752.539 85.041L750.245 85.3923L747.931 85.7405L745.596 86.0858L743.241 86.428L740.866 86.7671L738.471 87.1032L736.056 87.4362L733.622 87.7662L731.169 88.0931L728.696 88.417L726.204 88.7378L723.694 89.0555L721.165 89.3702L718.617 89.6819L716.051 89.9905L713.467 90.296L710.864 90.5984L708.243 90.8978L705.605 91.194L702.948 91.4872L700.273 91.7771L697.58 92.0638L694.869 92.3473L692.14 92.6275L689.393 92.9043L686.628 93.1776L683.844 93.4475L681.042 93.7137L678.221 93.9761L675.382 94.2348L672.523 94.4895L669.647 94.7402L666.751 94.9867L663.837 95.2289L660.904 95.4668L657.953 95.7003L654.983 95.9291L651.994 96.1533L648.988 96.3727L645.963 96.5872L642.92 96.7966L639.859 97.0008L636.781 97.1997L633.685 97.3931L630.572 97.5809L627.442 97.7628L624.295 97.9389L621.131 98.1087L617.952 98.2723L614.757 98.4294L611.547 98.5799L608.322 98.7235L605.082 98.8601L601.829 98.9896L598.563 99.1117L595.284 99.2264L591.994 99.3335L588.692 99.4328L585.38 99.5243L582.059 99.6078L578.729 99.6833L575.391 99.7507L572.046 99.8101L568.695 99.8613L565.339 99.9045L561.979 99.9396L558.616 99.9667L555.25 99.9858L551.882 99.9969L548.514 100L545.145 99.9952L541.778 99.9826L538.413 99.9622L535.05 99.934L531.69 99.8981L528.335 99.8547L524.984 99.8037L521.639 99.7454L518.301 99.6797L514.969 99.6069L511.645 99.527L508.329 99.4401L505.022 99.3465L501.724 99.2462L498.436 99.1394L495.158 99.0263L491.891 98.907L488.634 98.7817L485.388 98.6507L482.154 98.514L478.931 98.372L475.72 98.2247L472.521 98.0725L469.333 97.9155L466.156 97.7538L462.991 97.5879L459.837 97.4178L456.695 97.2437L453.562 97.0659L450.44 96.8846L447.328 96.7L444.226 96.5123L441.132 96.3217L438.046 96.1283L434.968 95.9324L431.898 95.7341L428.834 95.5336L425.775 95.331L422.722 95.1265L419.673 94.9202L416.628 94.7122L413.586 94.5025L410.545 94.2914L407.507 94.0788L404.469 93.8647L401.432 93.6493L398.394 93.4325L395.355 93.2143L392.315 92.9946L389.273 92.7736L386.229 92.5509L383.182 92.3267L380.133 92.1008L377.08 91.8731L374.025 91.6433L370.967 91.4115L367.907 91.1774L364.844 90.9407L361.78 90.7014L358.715 90.4592L355.649 90.2138L352.584 89.965L349.521 89.7125L346.461 89.456L343.405 89.1952L340.356 88.9297L337.315 88.6594L334.284 88.3839L331.265 88.1028L328.261 87.8158L325.273 87.5228L322.305 87.2232L319.358 86.9169L316.437 86.6036L313.542 86.283L310.679 85.9548L307.848 85.6189L305.055 85.2749L302.301 84.9228L299.59 84.5623L296.925 84.1932L294.31 83.8156L291.746 83.4292L289.239 83.034L286.789 82.63L284.402 82.2171L282.078 81.7954L279.822 81.365L277.635 80.9259L275.52 80.4782L273.479 80.0222L271.514 79.558L269.627 79.0859L267.819 78.606L266.093 78.1186L264.449 77.624L262.889 77.1225L261.414 76.6143L260.025 76.0997L258.724 75.5791L257.512 75.0527L256.388 74.521L255.355 73.9841L254.412 73.4426L253.56 72.8966L252.799 72.3466L252.13 71.793L251.552 71.2361L251.066 70.6763L250.672 70.1139L250.369 69.5494L250.156 68.983L250.033 68.4153L250 67.8465L250.055 67.2771L250.198 66.7074L250.428 66.1378L250.742 65.5687L251.141 65.0003L251.622 64.4332L252.184 63.8676L252.826 63.3038L253.545 62.7423L254.339 62.1833L255.207 61.6271L256.146 61.0741L257.154 60.5245L258.23 59.9787L259.37 59.4368L260.572 58.8992L261.834 58.3661L263.153 57.8378L264.526 57.3143L265.951 56.796L267.425 56.283L268.946 55.7755L270.51 55.2736L272.114 54.7776L273.757 54.2874L275.435 53.8032L277.145 53.325L278.884 52.8531L280.65 52.3873L282.44 51.9278L284.252 51.4746L286.081 51.0277L287.927 50.587L289.785 50.1526L291.654 49.7244L293.532 49.3024L295.415 48.8864L297.301 48.4765L299.189 48.0725L301.075 47.6744L302.958 47.2819L304.836 46.8951L306.707 46.5137L308.569 46.1377L310.421 45.7668L312.26 45.4009L314.086 45.0398L315.897 44.6835L317.692 44.3317L319.47 43.9842L321.23 43.6408L322.971 43.3014L324.692 42.9658L326.393 42.6338L328.073 42.3053L329.732 41.98L331.37 41.6577L332.986 41.3383L334.58 41.0216L336.152 40.7075L337.703 40.3957L339.231 40.086L340.738 39.7784L342.223 39.4726L343.687 39.1685L345.129 38.8659L346.55 38.5646L347.95 38.2645L349.328 37.9653L350.686 37.667L352.023 37.3693L353.339 37.072L354.633 36.775L355.906 36.478L357.158 36.1808L358.387 35.8832L359.593 35.5849L360.777 35.2857L361.937 34.9854L363.073 34.6836L364.184 34.3801L365.272 34.0747L366.335 33.7672L367.374 33.4572L368.389 33.1445L369.38 32.8289L370.348 32.5102L371.294 32.1882L372.217 31.8626L373.119 31.5332L374 31.1999L374.861 30.8624L375.704 30.5206L376.53 30.1743L377.339 29.8233L378.133 29.4676L378.914 29.107L379.683 28.7414L380.441 28.3707L381.19 27.9948L381.932 27.6136L382.668 27.2272L383.401 26.8354L384.133 26.4384L384.864 26.036L385.598 25.6283L386.337 25.2154L387.081 24.7973L387.834 24.3742L388.598 23.946L389.375 23.5129L390.166 23.0751L390.975 22.6328L391.802 22.186L392.652 21.735L393.524 21.28L394.423 20.8212L395.349 20.3589L396.305 19.8934L397.292 19.4248L398.314 18.9536L399.371 18.48L400.466 18.0043L401.6 17.5269L402.775 17.0481L403.993 16.5683L405.255 16.0879L406.563 15.6071L407.918 15.1265L409.322 14.6464L410.775 14.1672L412.279 13.6893L413.835 13.2131L415.444 12.7391L417.107 12.2676L418.823 11.7991L420.595 11.334L422.422 10.8727L424.304 10.4156L426.243 9.96312L428.238 9.51567L430.289 9.07367L432.396 8.63751L434.56 8.20761L436.779 7.78438L439.054 7.36824L441.384 6.9596L443.769 6.55887L446.209 6.16647L448.702 5.78281L451.248 5.40828L453.846 5.04329L456.495 4.68823L459.194 4.34348L461.942 4.00942L464.738 3.68642L467.581 3.37485L470.469 3.07504L473.4 2.78735L476.374 2.5121L479.388 2.24961L482.441 2.00018L485.531 1.76413L488.656 1.54173L491.815 1.33325L495.005 1.13897L498.225 0.959143L501.472 0.794009L504.744 0.643807L508.039 0.508769L511.355 0.389118L514.689 0.28507L518.039 0.196838L521.404 0.124633L524.779 0.0686625L528.164 0.029127L531.555 0.00619642L534.949 0L538.345 0.0106249L541.74 0.0381156L545.13 0.0824728L548.514 0.143654L551.888 0.221571L555.25 0.316092L558.598 0.427043L561.928 0.554202L565.239 0.697308L568.528 0.856054L571.792 1.03009L575.031 1.21903L578.24 1.42245L581.419 1.63988L584.566 1.87082L587.679 2.11474L590.756 2.37105L593.797 2.63917L596.799 2.91847L599.763 3.2083L602.686 3.50797L605.569 3.8168L608.411 4.13406L611.212 4.45904L613.972 4.79099L616.691 5.12916L619.368 5.4728L622.006 5.82115L624.604 6.17345L627.164 6.52895L629.686 6.8869L632.173 7.24657L634.624 7.60722L637.043 7.96817L639.431 8.32871L641.79 8.68817L644.121 9.04592L646.428 9.40134L648.712 9.75385L650.977 10.1029L653.224 10.4479L655.456 10.7885L657.676 11.1241L659.886 11.4545L662.09 11.7791L664.29 12.0978L666.488 12.4101L668.688 12.716L670.892 13.0152L673.103 13.3076L675.323 13.593L677.555 13.8715L679.801 14.1431L682.064 14.4077L684.344 14.6656L686.645 14.9168L688.968 15.1616L691.315 15.4002L693.686 15.6328L696.084 15.8597L698.508 16.0814L700.96 16.2982L703.441 16.5105L705.95 16.7188L708.488 16.9233L711.055 17.1247L713.651 17.3233L716.276 17.5195L718.929 17.7138L721.611 17.9067L724.32 18.0987L727.055 18.2902L729.816 18.4816L732.601 18.6736L735.409 18.8665L738.239 19.0608L741.088 19.2571L743.955 19.4558L746.838 19.6573L749.734 19.8621L752.641 20.0708L755.558 20.2836L758.48 20.5012L761.406 20.7237L764.332 20.9517L767.257 21.1856L770.176 21.4256L773.087 21.6721L775.988 21.9253L778.875 22.1857L781.745 22.4533L784.595 22.7284L787.423 23.0112L790.227 23.3019L793.002 23.6004L795.748 23.907L798.462 24.2215L801.142 24.5442L803.785 24.875L806.39 25.2138L808.954 25.5608L811.475 25.9158L813.951 26.2788L816.38 26.6497L818.76 27.0285L821.088 27.4151L823.364 27.8094L825.585 28.2113L827.75 28.6206L829.857 29.0371L831.905 29.4609L833.891 29.8915L835.815 30.329L837.676 30.773L839.472 31.2234L841.203 31.68L842.867 32.1424L844.464 32.6106L845.993 33.0843L847.454 33.5631L848.847 34.0469L850.171 34.5354L851.426 35.0283L852.613 35.5253L853.73 36.0263L854.78 36.5309L855.762 37.0388L856.677 37.5499L857.525 38.0637L858.307 38.5802L859.024 39.0989L859.678 39.6197L860.268 40.1424L860.797 40.6666L861.265 41.1921L861.674 41.7188L862.026 42.2463L862.32 42.7746L862.56 43.3034L862.747 43.8325L862.881 44.3617L862.965 44.8909L863 45.42L862.988 45.9487L862.929 46.4769L862.827 47.0046L862.681 47.5316L862.494 48.0577L862.266 48.583L862 49.1073L861.696 49.6305L861.356 50.1526Z" fill="url(#paint0_linear_758_11545)" fill-opacity="0.7"/>
<path fill-rule="evenodd" clip-rule="evenodd" d="M861.356 50.1526L860.98 50.6735L860.57 51.1932L860.127 51.7115L859.651 52.2285L859.143 52.7441L858.604 53.2583L858.033 53.771L857.433 54.2823L856.802 54.792L856.141 55.3001L855.452 55.8066L854.733 56.3115L853.985 56.8148L853.21 57.3164L852.407 57.8163L851.576 58.3145L850.719 58.811L849.835 59.3057L848.925 59.7986L847.989 60.2898L847.028 60.7792L846.04 61.2668L845.028 61.7526L843.99 62.2365L842.927 62.7186L841.839 63.1987L840.725 63.677L839.586 64.1533L838.422 64.6276L837.232 65.1L836.017 65.5703L834.775 66.0385L833.508 66.5046L832.215 66.9686L830.896 67.4303L829.551 67.8899L828.18 68.3472L826.783 68.8021L825.36 69.2548L823.911 69.7051L822.438 70.1531L820.939 70.5988L819.417 71.0421L817.871 71.4831L816.302 71.9217L814.711 72.3581L813.097 72.7922L811.462 73.224L809.805 73.6536L808.126 74.0808L806.427 74.5058L804.706 74.9286L802.965 75.349L801.202 75.7671L799.419 76.1829L797.615 76.5964L795.789 77.0075L793.943 77.4162L792.076 77.8226L790.188 78.2265L788.278 78.6279L786.348 79.0268L784.396 79.4232L782.422 79.817L780.427 80.2082L778.411 80.5968L776.373 80.9827L774.314 81.3658L772.233 81.7463L770.13 82.1239L768.006 82.4987L765.861 82.8707L763.693 83.2397L761.505 83.6059L759.295 83.9691L757.064 84.3294L754.812 84.6867L752.539 85.041L750.245 85.3923L747.931 85.7405L745.596 86.0858L743.241 86.428L740.866 86.7671L738.471 87.1032L736.056 87.4362L733.622 87.7662L731.169 88.0931L728.696 88.417L726.204 88.7378L723.694 89.0555L721.165 89.3702L718.617 89.6819L716.051 89.9905L713.467 90.296L710.864 90.5984L708.243 90.8978L705.605 91.194L702.948 91.4872L700.273 91.7771L697.58 92.0638L694.869 92.3473L692.14 92.6275L689.393 92.9043L686.628 93.1776L683.844 93.4475L681.042 93.7137L678.221 93.9761L675.382 94.2348L672.523 94.4895L669.647 94.7402L666.751 94.9867L663.837 95.2289L660.904 95.4668L657.953 95.7003L654.983 95.9291L651.994 96.1533L648.988 96.3727L645.963 96.5872L642.92 96.7966L639.859 97.0008L636.781 97.1997L633.685 97.3931L630.572 97.5809L627.442 97.7628L624.295 97.9389L621.131 98.1087L617.952 98.2723L614.757 98.4294L611.547 98.5799L608.322 98.7235L605.082 98.8601L601.829 98.9896L598.563 99.1117L595.284 99.2264L591.994 99.3335L588.692 99.4328L585.38 99.5243L582.059 99.6078L578.729 99.6833L575.391 99.7507L572.046 99.8101L568.695 99.8613L565.339 99.9045L561.979 99.9396L558.616 99.9667L555.25 99.9858L551.882 99.9969L548.514 100L545.145 99.9952L541.778 99.9826L538.413 99.9622L535.05 99.934L531.69 99.8981L528.335 99.8547L524.984 99.8037L521.639 99.7454L518.301 99.6797L514.969 99.6069L511.645 99.527L508.329 99.4401L505.022 99.3465L501.724 99.2462L498.436 99.1394L495.158 99.0263L491.891 98.907L488.634 98.7817L485.388 98.6507L482.154 98.514L478.931 98.372L475.72 98.2247L472.521 98.0725L469.333 97.9155L466.156 97.7538L462.991 97.5879L459.837 97.4178L456.695 97.2437L453.562 97.0659L450.44 96.8846L447.328 96.7L444.226 96.5123L441.132 96.3217L438.046 96.1283L434.968 95.9324L431.898 95.7341L428.834 95.5336L425.775 95.331L422.722 95.1265L419.673 94.9202L416.628 94.7122L413.586 94.5025L410.545 94.2914L407.507 94.0788L404.469 93.8647L401.432 93.6493L398.394 93.4325L395.355 93.2143L392.315 92.9946L389.273 92.7736L386.229 92.5509L383.182 92.3267L380.133 92.1008L377.08 91.8731L374.025 91.6433L370.967 91.4115L367.907 91.1774L364.844 90.9407L361.78 90.7014L358.715 90.4592L355.649 90.2138L352.584 89.965L349.521 89.7125L346.461 89.456L343.405 89.1952L340.356 88.9297L337.315 88.6594L334.284 88.3839L331.265 88.1028L328.261 87.8158L325.273 87.5228L322.305 87.2232L319.358 86.9169L316.437 86.6036L313.542 86.283L310.679 85.9548L307.848 85.6189L305.055 85.2749L302.301 84.9228L299.59 84.5623L296.925 84.1932L294.31 83.8156L291.746 83.4292L289.239 83.034L286.789 82.63L284.402 82.2171L282.078 81.7954L279.822 81.365L277.635 80.9259L275.52 80.4782L273.479 80.0222L271.514 79.558L269.627 79.0859L267.819 78.606L266.093 78.1186L264.449 77.624L262.889 77.1225L261.414 76.6143L260.025 76.0997L258.724 75.5791L257.512 75.0527L256.388 74.521L255.355 73.9841L254.412 73.4426L253.56 72.8966L252.799 72.3466L252.13 71.793L251.552 71.2361L251.066 70.6763L250.672 70.1139L250.369 69.5494L250.156 68.983L250.033 68.4153L250 67.8465L250.055 67.2771L250.198 66.7074L250.428 66.1378L250.742 65.5687L251.141 65.0003L251.622 64.4332L252.184 63.8676L252.826 63.3038L253.545 62.7423L254.339 62.1833L255.207 61.6271L256.146 61.0741L257.154 60.5245L258.23 59.9787L259.37 59.4368L260.572 58.8992L261.834 58.3661L263.153 57.8378L264.526 57.3143L265.951 56.796L267.425 56.283L268.946 55.7755L270.51 55.2736L272.114 54.7776L273.757 54.2874L275.435 53.8032L277.145 53.325L278.884 52.8531L280.65 52.3873L282.44 51.9278L284.252 51.4746L286.081 51.0277L287.927 50.587L289.785 50.1526L291.654 49.7244L293.532 49.3024L295.415 48.8864L297.301 48.4765L299.189 48.0725L301.075 47.6744L302.958 47.2819L304.836 46.8951L306.707 46.5137L308.569 46.1377L310.421 45.7668L312.26 45.4009L314.086 45.0398L315.897 44.6835L317.692 44.3317L319.47 43.9842L321.23 43.6408L322.971 43.3014L324.692 42.9658L326.393 42.6338L328.073 42.3053L329.732 41.98L331.37 41.6577L332.986 41.3383L334.58 41.0216L336.152 40.7075L337.703 40.3957L339.231 40.086L340.738 39.7784L342.223 39.4726L343.687 39.1685L345.129 38.8659L346.55 38.5646L347.95 38.2645L349.328 37.9653L350.686 37.667L352.023 37.3693L353.339 37.072L354.633 36.775L355.906 36.478L357.158 36.1808L358.387 35.8832L359.593 35.5849L360.777 35.2857L361.937 34.9854L363.073 34.6836L364.184 34.3801L365.272 34.0747L366.335 33.7672L367.374 33.4572L368.389 33.1445L369.38 32.8289L370.348 32.5102L371.294 32.1882L372.217 31.8626L373.119 31.5332L374 31.1999L374.861 30.8624L375.704 30.5206L376.53 30.1743L377.339 29.8233L378.133 29.4676L378.914 29.107L379.683 28.7414L380.441 28.3707L381.19 27.9948L381.932 27.6136L382.668 27.2272L383.401 26.8354L384.133 26.4384L384.864 26.036L385.598 25.6283L386.337 25.2154L387.081 24.7973L387.834 24.3742L388.598 23.946L389.375 23.5129L390.166 23.0751L390.975 22.6328L391.802 22.186L392.652 21.735L393.524 21.28L394.423 20.8212L395.349 20.3589L396.305 19.8934L397.292 19.4248L398.314 18.9536L399.371 18.48L400.466 18.0043L401.6 17.5269L402.775 17.0481L403.993 16.5683L405.255 16.0879L406.563 15.6071L407.918 15.1265L409.322 14.6464L410.775 14.1672L412.279 13.6893L413.835 13.2131L415.444 12.7391L417.107 12.2676L418.823 11.7991L420.595 11.334L422.422 10.8727L424.304 10.4156L426.243 9.96312L428.238 9.51567L430.289 9.07367L432.396 8.63751L434.56 8.20761L436.779 7.78438L439.054 7.36824L441.384 6.9596L443.769 6.55887L446.209 6.16647L448.702 5.78281L451.248 5.40828L453.846 5.04329L456.495 4.68823L459.194 4.34348L461.942 4.00942L464.738 3.68642L467.581 3.37485L470.469 3.07504L473.4 2.78735L476.374 2.5121L479.388 2.24961L482.441 2.00018L485.531 1.76413L488.656 1.54173L491.815 1.33325L495.005 1.13897L498.225 0.959143L501.472 0.794009L504.744 0.643807L508.039 0.508769L511.355 0.389118L514.689 0.28507L518.039 0.196838L521.404 0.124633L524.779 0.0686625L528.164 0.029127L531.555 0.00619642L534.949 0L538.345 0.0106249L541.74 0.0381156L545.13 0.0824728L548.514 0.143654L551.888 0.221571L555.25 0.316092L558.598 0.427043L561.928 0.554202L565.239 0.697308L568.528 0.856054L571.792 1.03009L575.031 1.21903L578.24 1.42245L581.419 1.63988L584.566 1.87082L587.679 2.11474L590.756 2.37105L593.797 2.63917L596.799 2.91847L599.763 3.2083L602.686 3.50797L605.569 3.8168L608.411 4.13406L611.212 4.45904L613.972 4.79099L616.691 5.12916L619.368 5.4728L622.006 5.82115L624.604 6.17345L627.164 6.52895L629.686 6.8869L632.173 7.24657L634.624 7.60722L637.043 7.96817L639.431 8.32871L641.79 8.68817L644.121 9.04592L646.428 9.40134L648.712 9.75385L650.977 10.1029L653.224 10.4479L655.456 10.7885L657.676 11.1241L659.886 11.4545L662.09 11.7791L664.29 12.0978L666.488 12.4101L668.688 12.716L670.892 13.0152L673.103 13.3076L675.323 13.593L677.555 13.8715L679.801 14.1431L682.064 14.4077L684.344 14.6656L686.645 14.9168L688.968 15.1616L691.315 15.4002L693.686 15.6328L696.084 15.8597L698.508 16.0814L700.96 16.2982L703.441 16.5105L705.95 16.7188L708.488 16.9233L711.055 17.1247L713.651 17.3233L716.276 17.5195L718.929 17.7138L721.611 17.9067L724.32 18.0987L727.055 18.2902L729.816 18.4816L732.601 18.6736L735.409 18.8665L738.239 19.0608L741.088 19.2571L743.955 19.4558L746.838 19.6573L749.734 19.8621L752.641 20.0708L755.558 20.2836L758.48 20.5012L761.406 20.7237L764.332 20.9517L767.257 21.1856L770.176 21.4256L773.087 21.6721L775.988 21.9253L778.875 22.1857L781.745 22.4533L784.595 22.7284L787.423 23.0112L790.227 23.3019L793.002 23.6004L795.748 23.907L798.462 24.2215L801.142 24.5442L803.785 24.875L806.39 25.2138L808.954 25.5608L811.475 25.9158L813.951 26.2788L816.38 26.6497L818.76 27.0285L821.088 27.4151L823.364 27.8094L825.585 28.2113L827.75 28.6206L829.857 29.0371L831.905 29.4609L833.891 29.8915L835.815 30.329L837.676 30.773L839.472 31.2234L841.203 31.68L842.867 32.1424L844.464 32.6106L845.993 33.0843L847.454 33.5631L848.847 34.0469L850.171 34.5354L851.426 35.0283L852.613 35.5253L853.73 36.0263L854.78 36.5309L855.762 37.0388L856.677 37.5499L857.525 38.0637L858.307 38.5802L859.024 39.0989L859.678 39.6197L860.268 40.1424L860.797 40.6666L861.265 41.1921L861.674 41.7188L862.026 42.2463L862.32 42.7746L862.56 43.3034L862.747 43.8325L862.881 44.3617L862.965 44.8909L863 45.42L862.988 45.9487L862.929 46.4769L862.827 47.0046L862.681 47.5316L862.494 48.0577L862.266 48.583L862 49.1073L861.696 49.6305L861.356 50.1526Z" stroke="black"/>
</g>
<defs>
<filter id="filter0_f_758_11545" x="0" y="-250" width="1113" height="600" filterUnits="userSpaceOnUse" color-interpolation-filters="sRGB">
<feFlood flood-opacity="0" result="BackgroundImageFix"/>
<feBlend mode="normal" in="SourceGraphic" in2="BackgroundImageFix" result="shape"/>
<feGaussianBlur stdDeviation="125" result="effect1_foregroundBlur_758_11545"/>
</filter>
<linearGradient id="paint0_linear_758_11545" x1="681.311" y1="106.445" x2="723.497" y2="-64.4917" gradientUnits="userSpaceOnUse">
<stop stop-color="#7F7FBF" stop-opacity="0.5"/>
<stop offset="0.339489" stop-color="#ABEBFF"/>
</linearGradient>
</defs>
</svg>
