<svg width="1512" height="889" viewBox="0 0 1512 889" fill="none" xmlns="http://www.w3.org/2000/svg">
<g filter="url(#filter0_f_725_2982)">
<path fill-rule="evenodd" clip-rule="evenodd" d="M1366.71 570.475L1365.95 573.804L1365.13 577.124L1364.24 580.437L1363.29 583.74L1362.27 587.035L1361.19 590.321L1360.05 593.597L1358.85 596.864L1357.58 600.121L1356.26 603.368L1354.88 606.604L1353.44 609.831L1351.94 613.047L1350.39 616.252L1348.78 619.446L1347.12 622.63L1345.4 625.802L1343.63 628.963L1341.8 632.113L1339.93 635.252L1338 638.379L1336.03 641.495L1334 644.599L1331.92 647.691L1329.79 650.772L1327.61 653.84L1325.38 656.896L1323.1 659.94L1320.76 662.971L1318.38 665.989L1315.95 668.994L1313.46 671.986L1310.92 674.964L1308.33 677.929L1305.69 680.88L1302.99 683.816L1300.25 686.738L1297.45 689.646L1294.6 692.538L1291.69 695.416L1288.74 698.279L1285.74 701.126L1282.69 703.959L1279.6 706.777L1276.45 709.58L1273.26 712.368L1270.03 715.142L1266.76 717.902L1263.44 720.646L1260.07 723.377L1256.67 726.092L1253.22 728.793L1249.73 731.48L1246.2 734.152L1242.63 736.809L1239.02 739.451L1235.36 742.078L1231.66 744.69L1227.92 747.286L1224.14 749.867L1220.31 752.432L1216.45 754.981L1212.53 757.514L1208.58 760.031L1204.59 762.531L1200.55 765.013L1196.46 767.479L1192.34 769.928L1188.17 772.359L1183.96 774.772L1179.7 777.167L1175.4 779.543L1171.06 781.902L1166.68 784.242L1162.25 786.563L1157.78 788.865L1153.27 791.148L1148.72 793.412L1144.12 795.657L1139.49 797.882L1134.81 800.088L1130.09 802.275L1125.33 804.442L1120.54 806.589L1115.7 808.717L1110.82 810.826L1105.91 812.915L1100.95 814.984L1095.96 817.034L1090.93 819.065L1085.87 821.076L1080.76 823.067L1075.62 825.039L1070.45 826.991L1065.23 828.924L1059.98 830.837L1054.7 832.73L1049.37 834.603L1044.02 836.456L1038.62 838.288L1033.19 840.099L1027.72 841.89L1022.22 843.658L1016.68 845.405L1011.1 847.129L1005.49 848.83L999.839 850.508L994.151 852.16L988.425 853.788L982.662 855.39L976.862 856.965L971.024 858.513L965.149 860.033L959.236 861.525L953.286 862.987L947.3 864.42L941.277 865.822L935.217 867.192L929.122 868.53L922.99 869.835L916.823 871.106L910.621 872.342L904.385 873.542L898.115 874.705L891.81 875.829L885.474 876.915L879.104 877.96L872.704 878.964L866.273 879.925L859.812 880.843L853.323 881.716L846.806 882.543L840.263 883.324L833.695 884.057L827.103 884.741L820.489 885.375L813.854 885.96L807.201 886.494L800.53 886.976L793.843 887.407L787.142 887.786L780.43 888.114L773.707 888.39L766.976 888.614L760.238 888.787L753.495 888.909L746.749 888.98L740.001 889L733.254 888.969L726.508 888.889L719.766 888.758L713.03 888.578L706.3 888.349L699.578 888.071L692.866 887.746L686.165 887.373L679.477 886.953L672.803 886.488L666.144 885.977L659.501 885.422L652.876 884.824L646.27 884.183L639.683 883.501L633.116 882.778L626.571 882.016L620.047 881.215L613.545 880.378L607.066 879.505L600.61 878.597L594.177 877.656L587.767 876.683L581.381 875.68L575.018 874.647L568.677 873.586L562.359 872.499L556.063 871.387L549.789 870.251L543.535 869.093L537.3 867.913L531.085 866.714L524.887 865.495L518.706 864.26L512.54 863.008L506.389 861.741L500.251 860.46L494.124 859.165L488.008 857.858L481.9 856.54L475.799 855.211L469.705 853.871L463.615 852.522L457.528 851.163L451.443 849.795L445.358 848.419L439.272 847.033L433.185 845.639L427.095 844.236L421.001 842.823L414.902 841.401L408.799 839.968L402.69 838.524L396.576 837.069L390.455 835.601L384.33 834.119L378.199 832.623L372.064 831.111L365.925 829.582L359.784 828.034L353.643 826.466L347.503 824.876L341.366 823.263L335.236 821.624L329.116 819.957L323.008 818.261L316.916 816.534L310.844 814.773L304.796 812.977L298.777 811.143L292.792 809.27L286.845 807.356L280.943 805.399L275.09 803.397L269.292 801.348L263.555 799.251L257.886 797.105L252.289 794.907L246.773 792.657L241.342 790.353L236.004 787.995L230.764 785.582L225.629 783.112L220.605 780.587L215.699 778.005L210.915 775.367L206.261 772.673L201.74 769.922L197.359 767.116L193.123 764.256L189.034 761.342L185.098 758.376L181.318 755.359L177.697 752.292L174.238 749.178L170.945 746.017L167.82 742.813L164.865 739.565L162.084 736.277L159.477 732.95L157.048 729.587L154.797 726.189L152.727 722.759L150.838 719.298L149.131 715.809L147.607 712.295L146.267 708.757L145.11 705.199L144.136 701.621L143.346 698.028L142.738 694.42L142.312 690.802L142.067 687.174L142 683.539L142.111 679.901L142.397 676.26L142.857 672.621L143.487 668.984L144.286 665.352L145.25 661.728L146.376 658.114L147.661 654.511L149.101 650.923L150.692 647.351L152.43 643.797L154.312 640.263L156.332 636.752L158.487 633.264L160.77 629.801L163.179 626.366L165.706 622.96L168.348 619.583L171.1 616.238L173.954 612.926L176.907 609.648L179.953 606.406L183.086 603.199L186.301 600.029L189.592 596.896L192.953 593.802L196.378 590.747L199.863 587.731L203.401 584.755L206.987 581.819L210.615 578.923L214.28 576.067L217.977 573.251L221.7 570.475L225.444 567.739L229.205 565.042L232.977 562.384L236.756 559.765L240.538 557.183L244.316 554.639L248.089 552.132L251.851 549.66L255.599 547.223L259.33 544.82L263.039 542.45L266.724 540.112L270.382 537.805L274.009 535.528L277.605 533.279L281.167 531.059L284.692 528.865L288.179 526.696L291.627 524.552L295.035 522.43L298.401 520.331L301.724 518.252L305.005 516.193L308.242 514.152L311.436 512.128L314.585 510.121L317.691 508.128L320.753 506.15L323.772 504.184L326.747 502.23L329.679 500.287L332.568 498.353L335.414 496.428L338.219 494.51L340.981 492.599L343.701 490.692L346.378 488.79L349.014 486.89L351.608 484.992L354.158 483.094L356.665 481.195L359.127 479.293L361.544 477.388L363.915 475.476L366.239 473.556L368.514 471.628L370.741 469.689L372.92 467.737L375.049 465.772L377.131 463.791L379.164 461.793L381.15 459.777L383.089 457.74L384.983 455.683L386.832 453.602L388.639 451.497L390.404 449.367L392.13 447.211L393.819 445.027L395.473 442.814L397.094 440.571L398.685 438.298L400.249 435.994L401.788 433.657L403.307 431.289L404.808 428.887L406.294 426.451L407.77 423.982L409.238 421.479L410.703 418.941L412.169 416.37L413.639 413.765L415.118 411.127L416.61 408.455L418.118 405.751L419.648 403.015L421.204 400.248L422.789 397.45L424.409 394.623L426.067 391.768L427.768 388.887L429.517 385.979L431.316 383.048L433.172 380.094L435.087 377.119L437.065 374.125L439.112 371.114L441.23 368.087L443.423 365.048L445.694 361.997L448.049 358.938L450.488 355.872L453.017 352.801L455.637 349.73L458.352 346.658L461.164 343.591L464.075 340.528L467.088 337.475L470.205 334.432L473.428 331.403L476.758 328.39L480.197 325.396L483.746 322.424L487.406 319.477L491.177 316.556L495.061 313.664L499.057 310.805L503.166 307.981L507.388 305.194L511.722 302.447L516.167 299.742L520.725 297.083L525.393 294.472L530.171 291.911L535.058 289.404L540.052 286.952L545.152 284.559L550.357 282.227L555.664 279.958L561.071 277.755L566.576 275.62L572.178 273.556L577.872 271.565L583.657 269.65L589.529 267.811L595.486 266.052L601.524 264.375L607.64 262.781L613.831 261.273L620.092 259.852L626.419 258.519L632.81 257.278L639.26 256.129L645.764 255.074L652.319 254.114L658.919 253.251L665.562 252.486L672.241 251.822L678.953 251.258L685.693 250.796L692.455 250.439L699.235 250.186L706.028 250.04L712.828 250L719.631 250.068L726.431 250.244L733.223 250.527L740.001 250.918L746.761 251.416L753.496 252.02L760.202 252.729L766.874 253.541L773.506 254.456L780.095 255.47L786.635 256.582L793.122 257.79L799.551 259.089L805.92 260.479L812.224 261.955L818.46 263.513L824.625 265.151L830.716 266.864L836.73 268.649L842.667 270.501L848.523 272.416L854.299 274.389L859.992 276.417L865.603 278.493L871.131 280.614L876.577 282.775L881.942 284.971L887.226 287.197L892.431 289.448L897.558 291.72L902.611 294.007L907.592 296.306L912.504 298.61L917.349 300.917L922.133 303.22L926.857 305.517L931.528 307.803L936.15 310.075L940.726 312.327L945.262 314.557L949.763 316.762L954.235 318.938L958.682 321.083L963.11 323.194L967.525 325.269L971.931 327.305L976.336 329.301L980.743 331.255L985.158 333.167L989.587 335.035L994.035 336.859L998.506 338.639L1003.01 340.374L1007.54 342.065L1012.11 343.713L1016.72 345.319L1021.37 346.883L1026.07 348.407L1030.82 349.893L1035.62 351.344L1040.48 352.76L1045.39 354.146L1050.36 355.502L1055.39 356.833L1060.47 358.14L1065.61 359.427L1070.81 360.696L1076.07 361.95L1081.39 363.191L1086.76 364.424L1092.19 365.651L1097.67 366.874L1103.2 368.098L1108.78 369.324L1114.4 370.557L1120.07 371.799L1125.78 373.053L1131.52 374.322L1137.3 375.61L1143.1 376.919L1148.92 378.252L1154.76 379.612L1160.62 381.002L1166.48 382.425L1172.34 383.882L1178.2 385.376L1184.05 386.909L1189.88 388.484L1195.69 390.103L1201.47 391.766L1207.22 393.477L1212.93 395.235L1218.6 397.042L1224.22 398.899L1229.78 400.807L1235.28 402.765L1240.71 404.776L1246.08 406.838L1251.38 408.951L1256.6 411.116L1261.73 413.333L1266.78 415.602L1271.74 417.921L1276.61 420.292L1281.37 422.712L1286.04 425.183L1290.6 427.702L1295.05 430.27L1299.39 432.885L1303.61 435.547L1307.71 438.255L1311.69 441.007L1315.54 443.802L1319.27 446.639L1322.87 449.518L1326.33 452.435L1329.67 455.39L1332.87 458.382L1335.93 461.408L1338.86 464.468L1341.65 467.56L1344.3 470.681L1346.81 473.831L1349.19 477.007L1351.43 480.208L1353.53 483.432L1355.5 486.678L1357.33 489.944L1359.03 493.227L1360.6 496.527L1362.04 499.842L1363.34 503.17L1364.53 506.51L1365.59 509.859L1366.52 513.217L1367.34 516.583L1368.05 519.954L1368.64 523.33L1369.12 526.709L1369.49 530.09L1369.76 533.471L1369.93 536.853L1370 540.234L1369.98 543.612L1369.86 546.988L1369.65 550.359L1369.36 553.727L1368.99 557.089L1368.53 560.445L1368 563.796L1367.39 567.139L1366.71 570.475Z" fill="url(#paint0_linear_725_2982)" fill-opacity="0.5"/>
<path fill-rule="evenodd" clip-rule="evenodd" d="M1366.71 570.475L1365.95 573.804L1365.13 577.124L1364.24 580.437L1363.29 583.74L1362.27 587.035L1361.19 590.321L1360.05 593.597L1358.85 596.864L1357.58 600.121L1356.26 603.368L1354.88 606.604L1353.44 609.831L1351.94 613.047L1350.39 616.252L1348.78 619.446L1347.12 622.63L1345.4 625.802L1343.63 628.963L1341.8 632.113L1339.93 635.252L1338 638.379L1336.03 641.495L1334 644.599L1331.92 647.691L1329.79 650.772L1327.61 653.84L1325.38 656.896L1323.1 659.94L1320.76 662.971L1318.38 665.989L1315.95 668.994L1313.46 671.986L1310.92 674.964L1308.33 677.929L1305.69 680.88L1302.99 683.816L1300.25 686.738L1297.45 689.646L1294.6 692.538L1291.69 695.416L1288.74 698.279L1285.74 701.126L1282.69 703.959L1279.6 706.777L1276.45 709.58L1273.26 712.368L1270.03 715.142L1266.76 717.902L1263.44 720.646L1260.07 723.377L1256.67 726.092L1253.22 728.793L1249.73 731.48L1246.2 734.152L1242.63 736.809L1239.02 739.451L1235.36 742.078L1231.66 744.69L1227.92 747.286L1224.14 749.867L1220.31 752.432L1216.45 754.981L1212.53 757.514L1208.58 760.031L1204.59 762.531L1200.55 765.013L1196.46 767.479L1192.34 769.928L1188.17 772.359L1183.96 774.772L1179.7 777.167L1175.4 779.543L1171.06 781.902L1166.68 784.242L1162.25 786.563L1157.78 788.865L1153.27 791.148L1148.72 793.412L1144.12 795.657L1139.49 797.882L1134.81 800.088L1130.09 802.275L1125.33 804.442L1120.54 806.589L1115.7 808.717L1110.82 810.826L1105.91 812.915L1100.95 814.984L1095.96 817.034L1090.93 819.065L1085.87 821.076L1080.76 823.067L1075.62 825.039L1070.45 826.991L1065.23 828.924L1059.98 830.837L1054.7 832.73L1049.37 834.603L1044.02 836.456L1038.62 838.288L1033.19 840.099L1027.72 841.89L1022.22 843.658L1016.68 845.405L1011.1 847.129L1005.49 848.83L999.839 850.508L994.151 852.16L988.425 853.788L982.662 855.39L976.862 856.965L971.024 858.513L965.149 860.033L959.236 861.525L953.286 862.987L947.3 864.42L941.277 865.822L935.217 867.192L929.122 868.53L922.99 869.835L916.823 871.106L910.621 872.342L904.385 873.542L898.115 874.705L891.81 875.829L885.474 876.915L879.104 877.96L872.704 878.964L866.273 879.925L859.812 880.843L853.323 881.716L846.806 882.543L840.263 883.324L833.695 884.057L827.103 884.741L820.489 885.375L813.854 885.96L807.201 886.494L800.53 886.976L793.843 887.407L787.142 887.786L780.43 888.114L773.707 888.39L766.976 888.614L760.238 888.787L753.495 888.909L746.749 888.98L740.001 889L733.254 888.969L726.508 888.889L719.766 888.758L713.03 888.578L706.3 888.349L699.578 888.071L692.866 887.746L686.165 887.373L679.477 886.953L672.803 886.488L666.144 885.977L659.501 885.422L652.876 884.824L646.27 884.183L639.683 883.501L633.116 882.778L626.571 882.016L620.047 881.215L613.545 880.378L607.066 879.505L600.61 878.597L594.177 877.656L587.767 876.683L581.381 875.68L575.018 874.647L568.677 873.586L562.359 872.499L556.063 871.387L549.789 870.251L543.535 869.093L537.3 867.913L531.085 866.714L524.887 865.495L518.706 864.26L512.54 863.008L506.389 861.741L500.251 860.46L494.124 859.165L488.008 857.858L481.9 856.54L475.799 855.211L469.705 853.871L463.615 852.522L457.528 851.163L451.443 849.795L445.358 848.419L439.272 847.033L433.185 845.639L427.095 844.236L421.001 842.823L414.902 841.401L408.799 839.968L402.69 838.524L396.576 837.069L390.455 835.601L384.33 834.119L378.199 832.623L372.064 831.111L365.925 829.582L359.784 828.034L353.643 826.466L347.503 824.876L341.366 823.263L335.236 821.624L329.116 819.957L323.008 818.261L316.916 816.534L310.844 814.773L304.796 812.977L298.777 811.143L292.792 809.27L286.845 807.356L280.943 805.399L275.09 803.397L269.292 801.348L263.555 799.251L257.886 797.105L252.289 794.907L246.773 792.657L241.342 790.353L236.004 787.995L230.764 785.582L225.629 783.112L220.605 780.587L215.699 778.005L210.915 775.367L206.261 772.673L201.74 769.922L197.359 767.116L193.123 764.256L189.034 761.342L185.098 758.376L181.318 755.359L177.697 752.292L174.238 749.178L170.945 746.017L167.82 742.813L164.865 739.565L162.084 736.277L159.477 732.95L157.048 729.587L154.797 726.189L152.727 722.759L150.838 719.298L149.131 715.809L147.607 712.295L146.267 708.757L145.11 705.199L144.136 701.621L143.346 698.028L142.738 694.42L142.312 690.802L142.067 687.174L142 683.539L142.111 679.901L142.397 676.26L142.857 672.621L143.487 668.984L144.286 665.352L145.25 661.728L146.376 658.114L147.661 654.511L149.101 650.923L150.692 647.351L152.43 643.797L154.312 640.263L156.332 636.752L158.487 633.264L160.77 629.801L163.179 626.366L165.706 622.96L168.348 619.583L171.1 616.238L173.954 612.926L176.907 609.648L179.953 606.406L183.086 603.199L186.301 600.029L189.592 596.896L192.953 593.802L196.378 590.747L199.863 587.731L203.401 584.755L206.987 581.819L210.615 578.923L214.28 576.067L217.977 573.251L221.7 570.475L225.444 567.739L229.205 565.042L232.977 562.384L236.756 559.765L240.538 557.183L244.316 554.639L248.089 552.132L251.851 549.66L255.599 547.223L259.33 544.82L263.039 542.45L266.724 540.112L270.382 537.805L274.009 535.528L277.605 533.279L281.167 531.059L284.692 528.865L288.179 526.696L291.627 524.552L295.035 522.43L298.401 520.331L301.724 518.252L305.005 516.193L308.242 514.152L311.436 512.128L314.585 510.121L317.691 508.128L320.753 506.15L323.772 504.184L326.747 502.23L329.679 500.287L332.568 498.353L335.414 496.428L338.219 494.51L340.981 492.599L343.701 490.692L346.378 488.79L349.014 486.89L351.608 484.992L354.158 483.094L356.665 481.195L359.127 479.293L361.544 477.388L363.915 475.476L366.239 473.556L368.514 471.628L370.741 469.689L372.92 467.737L375.049 465.772L377.131 463.791L379.164 461.793L381.15 459.777L383.089 457.74L384.983 455.683L386.832 453.602L388.639 451.497L390.404 449.367L392.13 447.211L393.819 445.027L395.473 442.814L397.094 440.571L398.685 438.298L400.249 435.994L401.788 433.657L403.307 431.289L404.808 428.887L406.294 426.451L407.77 423.982L409.238 421.479L410.703 418.941L412.169 416.37L413.639 413.765L415.118 411.127L416.61 408.455L418.118 405.751L419.648 403.015L421.204 400.248L422.789 397.45L424.409 394.623L426.067 391.768L427.768 388.887L429.517 385.979L431.316 383.048L433.172 380.094L435.087 377.119L437.065 374.125L439.112 371.114L441.23 368.087L443.423 365.048L445.694 361.997L448.049 358.938L450.488 355.872L453.017 352.801L455.637 349.73L458.352 346.658L461.164 343.591L464.075 340.528L467.088 337.475L470.205 334.432L473.428 331.403L476.758 328.39L480.197 325.396L483.746 322.424L487.406 319.477L491.177 316.556L495.061 313.664L499.057 310.805L503.166 307.981L507.388 305.194L511.722 302.447L516.167 299.742L520.725 297.083L525.393 294.472L530.171 291.911L535.058 289.404L540.052 286.952L545.152 284.559L550.357 282.227L555.664 279.958L561.071 277.755L566.576 275.62L572.178 273.556L577.872 271.565L583.657 269.65L589.529 267.811L595.486 266.052L601.524 264.375L607.64 262.781L613.831 261.273L620.092 259.852L626.419 258.519L632.81 257.278L639.26 256.129L645.764 255.074L652.319 254.114L658.919 253.251L665.562 252.486L672.241 251.822L678.953 251.258L685.693 250.796L692.455 250.439L699.235 250.186L706.028 250.04L712.828 250L719.631 250.068L726.431 250.244L733.223 250.527L740.001 250.918L746.761 251.416L753.496 252.02L760.202 252.729L766.874 253.541L773.506 254.456L780.095 255.47L786.635 256.582L793.122 257.79L799.551 259.089L805.92 260.479L812.224 261.955L818.46 263.513L824.625 265.151L830.716 266.864L836.73 268.649L842.667 270.501L848.523 272.416L854.299 274.389L859.992 276.417L865.603 278.493L871.131 280.614L876.577 282.775L881.942 284.971L887.226 287.197L892.431 289.448L897.558 291.72L902.611 294.007L907.592 296.306L912.504 298.61L917.349 300.917L922.133 303.22L926.857 305.517L931.528 307.803L936.15 310.075L940.726 312.327L945.262 314.557L949.763 316.762L954.235 318.938L958.682 321.083L963.11 323.194L967.525 325.269L971.931 327.305L976.336 329.301L980.743 331.255L985.158 333.167L989.587 335.035L994.035 336.859L998.506 338.639L1003.01 340.374L1007.54 342.065L1012.11 343.713L1016.72 345.319L1021.37 346.883L1026.07 348.407L1030.82 349.893L1035.62 351.344L1040.48 352.76L1045.39 354.146L1050.36 355.502L1055.39 356.833L1060.47 358.14L1065.61 359.427L1070.81 360.696L1076.07 361.95L1081.39 363.191L1086.76 364.424L1092.19 365.651L1097.67 366.874L1103.2 368.098L1108.78 369.324L1114.4 370.557L1120.07 371.799L1125.78 373.053L1131.52 374.322L1137.3 375.61L1143.1 376.919L1148.92 378.252L1154.76 379.612L1160.62 381.002L1166.48 382.425L1172.34 383.882L1178.2 385.376L1184.05 386.909L1189.88 388.484L1195.69 390.103L1201.47 391.766L1207.22 393.477L1212.93 395.235L1218.6 397.042L1224.22 398.899L1229.78 400.807L1235.28 402.765L1240.71 404.776L1246.08 406.838L1251.38 408.951L1256.6 411.116L1261.73 413.333L1266.78 415.602L1271.74 417.921L1276.61 420.292L1281.37 422.712L1286.04 425.183L1290.6 427.702L1295.05 430.27L1299.39 432.885L1303.61 435.547L1307.71 438.255L1311.69 441.007L1315.54 443.802L1319.27 446.639L1322.87 449.518L1326.33 452.435L1329.67 455.39L1332.87 458.382L1335.93 461.408L1338.86 464.468L1341.65 467.56L1344.3 470.681L1346.81 473.831L1349.19 477.007L1351.43 480.208L1353.53 483.432L1355.5 486.678L1357.33 489.944L1359.03 493.227L1360.6 496.527L1362.04 499.842L1363.34 503.17L1364.53 506.51L1365.59 509.859L1366.52 513.217L1367.34 516.583L1368.05 519.954L1368.64 523.33L1369.12 526.709L1369.49 530.09L1369.76 533.471L1369.93 536.853L1370 540.234L1369.98 543.612L1369.86 546.988L1369.65 550.359L1369.36 553.727L1368.99 557.089L1368.53 560.445L1368 563.796L1367.39 567.139L1366.71 570.475Z" stroke="black"/>
</g>
<defs>
<filter id="filter0_f_725_2982" x="-108" y="0" width="1728" height="1139" filterUnits="userSpaceOnUse" color-interpolation-filters="sRGB">
<feFlood flood-opacity="0" result="BackgroundImageFix"/>
<feBlend mode="normal" in="SourceGraphic" in2="BackgroundImageFix" result="shape"/>
<feGaussianBlur stdDeviation="125" result="effect1_foregroundBlur_725_2982"/>
</filter>
<linearGradient id="paint0_linear_725_2982" x1="1006.03" y1="930.182" x2="1569.24" y2="214.742" gradientUnits="userSpaceOnUse">
<stop stop-color="#7F7FBF" stop-opacity="0.5"/>
<stop offset="0.339489" stop-color="#ABEBFF"/>
</linearGradient>
</defs>
</svg>
