<svg width="620" height="393" viewBox="0 0 620 393" fill="none" xmlns="http://www.w3.org/2000/svg">
<g filter="url(#filter0_f_698_12952)">
<path fill-rule="evenodd" clip-rule="evenodd" d="M618.337 71.7182L617.957 72.4631L617.543 73.2062L617.094 73.9475L616.613 74.6868L616.099 75.4241L615.553 76.1594L614.977 76.8926L614.369 77.6237L613.731 78.3525L613.063 79.0791L612.365 79.8035L611.638 80.5255L610.882 81.2452L610.098 81.9625L609.286 82.6773L608.446 83.3897L607.579 84.0997L606.685 84.8071L605.764 85.5121L604.818 86.2145L603.845 86.9143L602.847 87.6115L601.823 88.3062L600.773 88.9982L599.698 89.6875L598.597 90.3742L597.471 91.0581L596.319 91.7392L595.141 92.4175L593.938 93.093L592.708 93.7655L591.453 94.4351L590.171 95.1016L588.864 95.7651L587.529 96.4254L586.169 97.0825L584.782 97.7364L583.369 98.3871L581.93 99.0344L580.465 99.6784L578.974 100.319L577.459 100.956L575.919 101.59L574.356 102.221L572.769 102.848L571.159 103.472L569.527 104.093L567.873 104.71L566.197 105.325L564.5 105.936L562.781 106.543L561.041 107.148L559.279 107.749L557.497 108.347L555.693 108.942L553.868 109.533L552.022 110.121L550.155 110.705L548.266 111.286L546.356 111.864L544.425 112.438L542.472 113.008L540.498 113.575L538.502 114.138L536.485 114.698L534.445 115.253L532.384 115.805L530.301 116.353L528.196 116.897L526.07 117.437L523.921 117.973L521.751 118.505L519.559 119.033L517.346 119.556L515.111 120.076L512.854 120.591L510.577 121.102L508.278 121.609L505.958 122.111L503.617 122.609L501.255 123.103L498.874 123.592L496.471 124.077L494.049 124.558L491.607 125.034L489.145 125.506L486.663 125.973L484.162 126.436L481.642 126.895L479.103 127.349L476.545 127.799L473.968 128.245L471.373 128.686L468.759 129.123L466.127 129.556L463.476 129.984L460.807 130.407L458.12 130.827L455.415 131.241L452.691 131.651L449.949 132.057L447.189 132.457L444.411 132.853L441.614 133.244L438.798 133.63L435.964 134.011L433.111 134.386L430.239 134.756L427.348 135.12L424.439 135.478L421.51 135.831L418.563 136.177L415.596 136.518L412.611 136.851L409.607 137.179L406.585 137.499L403.544 137.813L400.484 138.12L397.407 138.419L394.311 138.711L391.197 138.996L388.066 139.272L384.918 139.541L381.752 139.801L378.569 140.053L375.369 140.295L372.154 140.529L368.922 140.754L365.675 140.969L362.413 141.175L359.137 141.37L355.847 141.555L352.543 141.73L349.227 141.894L345.899 142.047L342.56 142.189L339.21 142.32L335.85 142.439L332.482 142.547L329.106 142.644L325.723 142.728L322.334 142.802L318.94 142.863L315.542 142.914L312.14 142.952L308.735 142.98L305.329 142.996L301.922 143L298.516 142.993L295.11 142.975L291.706 142.946L288.305 142.906L284.907 142.854L281.513 142.792L278.124 142.719L274.741 142.636L271.365 142.542L267.995 142.438L264.633 142.324L261.279 142.199L257.934 142.065L254.599 141.922L251.273 141.769L247.958 141.608L244.653 141.437L241.359 141.258L238.076 141.07L234.805 140.875L231.546 140.672L228.298 140.461L225.062 140.244L221.837 140.019L218.625 139.788L215.423 139.551L212.234 139.307L209.055 139.058L205.887 138.804L202.729 138.545L199.582 138.281L196.443 138.013L193.314 137.74L190.194 137.463L187.081 137.183L183.975 136.9L180.876 136.613L177.783 136.323L174.694 136.031L171.611 135.736L168.531 135.438L165.454 135.139L162.379 134.837L159.306 134.533L156.233 134.227L153.161 133.918L150.089 133.608L147.015 133.296L143.94 132.982L140.864 132.666L137.785 132.348L134.703 132.027L131.619 131.704L128.532 131.378L125.442 131.05L122.349 130.718L119.253 130.384L116.156 130.045L113.057 129.703L109.956 129.357L106.855 129.006L103.755 128.65L100.657 128.289L97.5624 127.922L94.4721 127.549L91.3882 127.17L88.3124 126.783L85.2468 126.389L82.1934 125.987L79.1546 125.577L76.1327 125.158L73.1304 124.729L70.1503 124.291L67.1952 123.843L64.2679 123.385L61.3715 122.915L58.509 122.435L55.6835 121.943L52.8982 121.44L50.1564 120.924L47.4611 120.396L44.8156 119.856L42.2231 119.304L39.6867 118.739L37.2095 118.161L34.7944 117.57L32.4444 116.967L30.1621 116.352L27.9502 115.724L25.8111 115.084L23.7468 114.432L21.7596 113.768L19.851 113.093L18.0228 112.407L16.2766 111.71L14.6139 111.002L13.036 110.285L11.5443 109.558L10.1399 108.823L8.82402 108.078L7.59749 107.325L6.46119 106.565L5.41585 105.797L4.46207 105.023L3.60032 104.242L2.83094 103.456L2.15417 102.664L1.57008 101.868L1.07862 101.067L0.679624 100.263L0.372775 99.4556L0.157629 98.6457L0.0336079 97.8339L0 97.0205L0.0559629 96.2063L0.200524 95.3916L0.432581 94.5771L0.750906 93.7632L1.15415 92.9505L1.64083 92.1395L2.20935 91.3306L2.85802 90.5245L3.58501 89.7215L4.38839 88.9221L5.26614 88.1268L6.21612 87.336L7.23612 86.5501L8.32384 85.7695L9.47687 84.9947L10.6928 84.2259L11.969 83.4636L13.3029 82.708L14.6919 81.9595L16.1333 81.2183L17.6243 80.4847L19.1621 79.759L20.744 79.0413L22.367 78.3319L24.0284 77.6309L25.7253 76.9385L27.4548 76.2548L29.2141 75.5799L31.0004 74.9139L32.8108 74.2568L34.6427 73.6087L36.4932 72.9696L38.3596 72.3394L40.2394 71.7182L42.1299 71.1059L44.0287 70.5024L45.9332 69.9076L47.8412 69.3214L49.7502 68.7437L51.6582 68.1744L53.5629 67.6132L55.4624 67.06L57.3548 66.5146L59.2381 65.9768L61.1108 65.4465L62.9713 64.9233L64.818 64.407L66.6497 63.8974L68.4652 63.3943L70.2633 62.8973L72.0432 62.4063L73.8039 61.921L75.5448 61.4411L77.2652 60.9664L78.9646 60.4965L80.6426 60.0313L82.299 59.5705L83.9334 59.1138L85.5457 58.6609L87.136 58.2117L88.704 57.7658L90.25 57.323L91.774 56.8831L93.2761 56.4459L94.7564 56.011L96.2151 55.5783L97.6522 55.1474L99.068 54.7182L100.463 54.2904L101.836 53.8638L103.188 53.4381L104.519 53.013L105.828 52.5882L107.116 52.1635L108.381 51.7385L109.625 51.3129L110.845 50.8864L112.042 50.4586L113.215 50.0291L114.364 49.5975L115.488 49.1636L116.588 48.7269L117.663 48.287L118.714 47.8437L119.741 47.3966L120.743 46.9454L121.723 46.4896L122.679 46.0291L123.612 45.5635L124.525 45.0925L125.416 44.6158L126.287 44.1332L127.14 43.6444L127.975 43.1492L128.793 42.6474L129.597 42.1387L130.386 41.623L131.164 41.1002L131.93 40.57L132.688 40.0325L133.438 39.4875L134.183 38.9349L134.925 38.3747L135.664 37.8069L136.404 37.2315L137.147 36.6485L137.893 36.0581L138.646 35.4602L139.408 34.8551L140.181 34.2428L140.966 33.6235L141.767 32.9974L142.584 32.3648L143.422 31.7259L144.28 31.081L145.163 30.4304L146.072 29.7744L147.009 29.1133L147.975 28.4475L148.974 27.7775L150.008 27.1037L151.077 26.4264L152.184 25.7462L153.331 25.0635L154.52 24.3788L155.751 23.6927L157.028 23.0056L158.351 22.3182L159.722 21.6309L161.141 20.9444L162.611 20.2591L164.132 19.5757L165.706 18.8948L167.333 18.2169L169.015 17.5427L170.751 16.8728L172.543 16.2076L174.391 15.548L176.295 14.8943L178.256 14.2473L180.273 13.6074L182.348 12.9753L184.479 12.3516L186.667 11.7369L188.912 11.1317L191.213 10.5366L193.57 9.95222L195.982 9.37919L198.449 8.81806L200.971 8.26942L203.546 7.73384L206.174 7.21191L208.853 6.70416L211.583 6.21117L214.363 5.73347L217.191 5.27159L220.066 4.82603L222.986 4.39731L225.951 3.98591L228.959 3.5923L232.007 3.21694L235.095 2.86026L238.221 2.52271L241.382 2.20467L244.577 1.90655L247.803 1.62873L251.059 1.37157L254.343 1.13543L257.653 0.920645L260.985 0.72754L264.339 0.556438L267.711 0.40765L271.1 0.281479L274.503 0.178225L277.917 0.0981874L281.34 0.0416516L284.77 0.00886088L288.203 0L291.638 0.0151936L295.071 0.0545052L298.5 0.117936L301.922 0.205425L305.335 0.316846L308.736 0.452012L312.121 0.610671L315.49 0.79251L318.839 0.997151L322.165 1.22416L325.467 1.47303L328.742 1.74322L331.988 2.03411L335.204 2.34503L338.387 2.67528L341.535 3.02407L344.648 3.3906L347.723 3.77402L350.76 4.17342L353.757 4.58786L356.714 5.0164L359.63 5.45802L362.504 5.91171L365.337 6.37643L368.128 6.85112L370.878 7.3347L373.586 7.8261L376.254 8.32424L378.882 8.82803L381.471 9.33639L384.022 9.84826L386.537 10.3626L389.016 10.8783L391.463 11.3945L393.878 11.9101L396.264 12.4241L398.622 12.9357L400.955 13.4439L403.265 13.948L405.556 14.4471L407.828 14.9405L410.086 15.4275L412.331 15.9075L414.567 16.3799L416.796 16.8441L419.021 17.2998L421.244 17.7465L423.469 18.1839L425.699 18.6117L427.935 19.0298L430.18 19.438L432.438 19.8363L434.709 20.2246L436.998 20.6031L439.304 20.9718L441.631 21.3311L443.981 21.6811L446.354 22.0222L448.753 22.3548L451.177 22.6794L453.63 22.9964L456.11 23.3064L458.618 23.6101L461.156 23.9078L463.723 24.2004L466.319 24.4883L468.945 24.7723L471.6 25.0529L474.284 25.3308L476.996 25.6066L479.736 25.8811L482.503 26.155L485.295 26.4288L488.112 26.7032L490.952 26.9791L493.814 27.257L496.696 27.5377L499.596 27.8217L502.511 28.1099L505.44 28.4029L508.381 28.7012L511.331 29.0056L514.286 29.3166L517.246 29.6349L520.206 29.961L523.163 30.2954L526.116 30.6386L529.061 30.991L531.994 31.3532L534.914 31.7255L537.817 32.1082L540.7 32.5016L543.56 32.9061L546.396 33.3216L549.203 33.7486L551.98 34.1869L554.725 34.6368L557.436 35.0982L560.109 35.5712L562.743 36.0558L565.337 36.5519L567.886 37.0595L570.391 37.5786L572.847 38.1091L575.254 38.6508L577.61 39.2036L579.912 39.7675L582.158 40.3421L584.348 40.9274L586.479 41.5231L588.55 42.129L590.559 42.7449L592.505 43.3704L594.387 44.0054L596.203 44.6495L597.954 45.3023L599.637 45.9637L601.252 46.6332L602.799 47.3105L604.277 47.9952L605.685 48.6871L607.024 49.3856L608.294 50.0904L609.494 50.8012L610.625 51.5176L611.686 52.2392L612.679 52.9655L613.604 53.6963L614.462 54.4312L615.253 55.1697L615.979 55.9115L616.64 56.6562L617.237 57.4036L617.772 58.1532L618.245 58.9047L618.659 59.6578L619.014 60.4123L619.313 61.1677L619.555 61.9238L619.744 62.6805L619.88 63.4373L619.965 64.194L620 64.9506L619.987 65.7066L619.928 66.462L619.825 67.2166L619.677 67.9701L619.488 68.7226L619.258 69.4737L618.989 70.2234L618.682 70.9716L618.337 71.7182Z" fill="url(#paint0_linear_698_12952)"/>
<path fill-rule="evenodd" clip-rule="evenodd" d="M618.337 71.7182L617.957 72.4631L617.543 73.2062L617.094 73.9475L616.613 74.6868L616.099 75.4241L615.553 76.1594L614.977 76.8926L614.369 77.6237L613.731 78.3525L613.063 79.0791L612.365 79.8035L611.638 80.5255L610.882 81.2452L610.098 81.9625L609.286 82.6773L608.446 83.3897L607.579 84.0997L606.685 84.8071L605.764 85.5121L604.818 86.2145L603.845 86.9143L602.847 87.6115L601.823 88.3062L600.773 88.9982L599.698 89.6875L598.597 90.3742L597.471 91.0581L596.319 91.7392L595.141 92.4175L593.938 93.093L592.708 93.7655L591.453 94.4351L590.171 95.1016L588.864 95.7651L587.529 96.4254L586.169 97.0825L584.782 97.7364L583.369 98.3871L581.93 99.0344L580.465 99.6784L578.974 100.319L577.459 100.956L575.919 101.59L574.356 102.221L572.769 102.848L571.159 103.472L569.527 104.093L567.873 104.71L566.197 105.325L564.5 105.936L562.781 106.543L561.041 107.148L559.279 107.749L557.497 108.347L555.693 108.942L553.868 109.533L552.022 110.121L550.155 110.705L548.266 111.286L546.356 111.864L544.425 112.438L542.472 113.008L540.498 113.575L538.502 114.138L536.485 114.698L534.445 115.253L532.384 115.805L530.301 116.353L528.196 116.897L526.07 117.437L523.921 117.973L521.751 118.505L519.559 119.033L517.346 119.556L515.111 120.076L512.854 120.591L510.577 121.102L508.278 121.609L505.958 122.111L503.617 122.609L501.255 123.103L498.874 123.592L496.471 124.077L494.049 124.558L491.607 125.034L489.145 125.506L486.663 125.973L484.162 126.436L481.642 126.895L479.103 127.349L476.545 127.799L473.968 128.245L471.373 128.686L468.759 129.123L466.127 129.556L463.476 129.984L460.807 130.407L458.12 130.827L455.415 131.241L452.691 131.651L449.949 132.057L447.189 132.457L444.411 132.853L441.614 133.244L438.798 133.63L435.964 134.011L433.111 134.386L430.239 134.756L427.348 135.12L424.439 135.478L421.51 135.831L418.563 136.177L415.596 136.518L412.611 136.851L409.607 137.179L406.585 137.499L403.544 137.813L400.484 138.12L397.407 138.419L394.311 138.711L391.197 138.996L388.066 139.272L384.918 139.541L381.752 139.801L378.569 140.053L375.369 140.295L372.154 140.529L368.922 140.754L365.675 140.969L362.413 141.175L359.137 141.37L355.847 141.555L352.543 141.73L349.227 141.894L345.899 142.047L342.56 142.189L339.21 142.32L335.85 142.439L332.482 142.547L329.106 142.644L325.723 142.728L322.334 142.802L318.94 142.863L315.542 142.914L312.14 142.952L308.735 142.98L305.329 142.996L301.922 143L298.516 142.993L295.11 142.975L291.706 142.946L288.305 142.906L284.907 142.854L281.513 142.792L278.124 142.719L274.741 142.636L271.365 142.542L267.995 142.438L264.633 142.324L261.279 142.199L257.934 142.065L254.599 141.922L251.273 141.769L247.958 141.608L244.653 141.437L241.359 141.258L238.076 141.07L234.805 140.875L231.546 140.672L228.298 140.461L225.062 140.244L221.837 140.019L218.625 139.788L215.423 139.551L212.234 139.307L209.055 139.058L205.887 138.804L202.729 138.545L199.582 138.281L196.443 138.013L193.314 137.74L190.194 137.463L187.081 137.183L183.975 136.9L180.876 136.613L177.783 136.323L174.694 136.031L171.611 135.736L168.531 135.438L165.454 135.139L162.379 134.837L159.306 134.533L156.233 134.227L153.161 133.918L150.089 133.608L147.015 133.296L143.94 132.982L140.864 132.666L137.785 132.348L134.703 132.027L131.619 131.704L128.532 131.378L125.442 131.05L122.349 130.718L119.253 130.384L116.156 130.045L113.057 129.703L109.956 129.357L106.855 129.006L103.755 128.65L100.657 128.289L97.5624 127.922L94.4721 127.549L91.3882 127.17L88.3124 126.783L85.2468 126.389L82.1934 125.987L79.1546 125.577L76.1327 125.158L73.1304 124.729L70.1503 124.291L67.1952 123.843L64.2679 123.385L61.3715 122.915L58.509 122.435L55.6835 121.943L52.8982 121.44L50.1564 120.924L47.4611 120.396L44.8156 119.856L42.2231 119.304L39.6867 118.739L37.2095 118.161L34.7944 117.57L32.4444 116.967L30.1621 116.352L27.9502 115.724L25.8111 115.084L23.7468 114.432L21.7596 113.768L19.851 113.093L18.0228 112.407L16.2766 111.71L14.6139 111.002L13.036 110.285L11.5443 109.558L10.1399 108.823L8.82402 108.078L7.59749 107.325L6.46119 106.565L5.41585 105.797L4.46207 105.023L3.60032 104.242L2.83094 103.456L2.15417 102.664L1.57008 101.868L1.07862 101.067L0.679624 100.263L0.372775 99.4556L0.157629 98.6457L0.0336079 97.8339L0 97.0205L0.0559629 96.2063L0.200524 95.3916L0.432581 94.5771L0.750906 93.7632L1.15415 92.9505L1.64083 92.1395L2.20935 91.3306L2.85802 90.5245L3.58501 89.7215L4.38839 88.9221L5.26614 88.1268L6.21612 87.336L7.23612 86.5501L8.32384 85.7695L9.47687 84.9947L10.6928 84.2259L11.969 83.4636L13.3029 82.708L14.6919 81.9595L16.1333 81.2183L17.6243 80.4847L19.1621 79.759L20.744 79.0413L22.367 78.3319L24.0284 77.6309L25.7253 76.9385L27.4548 76.2548L29.2141 75.5799L31.0004 74.9139L32.8108 74.2568L34.6427 73.6087L36.4932 72.9696L38.3596 72.3394L40.2394 71.7182L42.1299 71.1059L44.0287 70.5024L45.9332 69.9076L47.8412 69.3214L49.7502 68.7437L51.6582 68.1744L53.5629 67.6132L55.4624 67.06L57.3548 66.5146L59.2381 65.9768L61.1108 65.4465L62.9713 64.9233L64.818 64.407L66.6497 63.8974L68.4652 63.3943L70.2633 62.8973L72.0432 62.4063L73.8039 61.921L75.5448 61.4411L77.2652 60.9664L78.9646 60.4965L80.6426 60.0313L82.299 59.5705L83.9334 59.1138L85.5457 58.6609L87.136 58.2117L88.704 57.7658L90.25 57.323L91.774 56.8831L93.2761 56.4459L94.7564 56.011L96.2151 55.5783L97.6522 55.1474L99.068 54.7182L100.463 54.2904L101.836 53.8638L103.188 53.4381L104.519 53.013L105.828 52.5882L107.116 52.1635L108.381 51.7385L109.625 51.3129L110.845 50.8864L112.042 50.4586L113.215 50.0291L114.364 49.5975L115.488 49.1636L116.588 48.7269L117.663 48.287L118.714 47.8437L119.741 47.3966L120.743 46.9454L121.723 46.4896L122.679 46.0291L123.612 45.5635L124.525 45.0925L125.416 44.6158L126.287 44.1332L127.14 43.6444L127.975 43.1492L128.793 42.6474L129.597 42.1387L130.386 41.623L131.164 41.1002L131.93 40.57L132.688 40.0325L133.438 39.4875L134.183 38.9349L134.925 38.3747L135.664 37.8069L136.404 37.2315L137.147 36.6485L137.893 36.0581L138.646 35.4602L139.408 34.8551L140.181 34.2428L140.966 33.6235L141.767 32.9974L142.584 32.3648L143.422 31.7259L144.28 31.081L145.163 30.4304L146.072 29.7744L147.009 29.1133L147.975 28.4475L148.974 27.7775L150.008 27.1037L151.077 26.4264L152.184 25.7462L153.331 25.0635L154.52 24.3788L155.751 23.6927L157.028 23.0056L158.351 22.3182L159.722 21.6309L161.141 20.9444L162.611 20.2591L164.132 19.5757L165.706 18.8948L167.333 18.2169L169.015 17.5427L170.751 16.8728L172.543 16.2076L174.391 15.548L176.295 14.8943L178.256 14.2473L180.273 13.6074L182.348 12.9753L184.479 12.3516L186.667 11.7369L188.912 11.1317L191.213 10.5366L193.57 9.95222L195.982 9.37919L198.449 8.81806L200.971 8.26942L203.546 7.73384L206.174 7.21191L208.853 6.70416L211.583 6.21117L214.363 5.73347L217.191 5.27159L220.066 4.82603L222.986 4.39731L225.951 3.98591L228.959 3.5923L232.007 3.21694L235.095 2.86026L238.221 2.52271L241.382 2.20467L244.577 1.90655L247.803 1.62873L251.059 1.37157L254.343 1.13543L257.653 0.920645L260.985 0.72754L264.339 0.556438L267.711 0.40765L271.1 0.281479L274.503 0.178225L277.917 0.0981874L281.34 0.0416516L284.77 0.00886088L288.203 0L291.638 0.0151936L295.071 0.0545052L298.5 0.117936L301.922 0.205425L305.335 0.316846L308.736 0.452012L312.121 0.610671L315.49 0.79251L318.839 0.997151L322.165 1.22416L325.467 1.47303L328.742 1.74322L331.988 2.03411L335.204 2.34503L338.387 2.67528L341.535 3.02407L344.648 3.3906L347.723 3.77402L350.76 4.17342L353.757 4.58786L356.714 5.0164L359.63 5.45802L362.504 5.91171L365.337 6.37643L368.128 6.85112L370.878 7.3347L373.586 7.8261L376.254 8.32424L378.882 8.82803L381.471 9.33639L384.022 9.84826L386.537 10.3626L389.016 10.8783L391.463 11.3945L393.878 11.9101L396.264 12.4241L398.622 12.9357L400.955 13.4439L403.265 13.948L405.556 14.4471L407.828 14.9405L410.086 15.4275L412.331 15.9075L414.567 16.3799L416.796 16.8441L419.021 17.2998L421.244 17.7465L423.469 18.1839L425.699 18.6117L427.935 19.0298L430.18 19.438L432.438 19.8363L434.709 20.2246L436.998 20.6031L439.304 20.9718L441.631 21.3311L443.981 21.6811L446.354 22.0222L448.753 22.3548L451.177 22.6794L453.63 22.9964L456.11 23.3064L458.618 23.6101L461.156 23.9078L463.723 24.2004L466.319 24.4883L468.945 24.7723L471.6 25.0529L474.284 25.3308L476.996 25.6066L479.736 25.8811L482.503 26.155L485.295 26.4288L488.112 26.7032L490.952 26.9791L493.814 27.257L496.696 27.5377L499.596 27.8217L502.511 28.1099L505.44 28.4029L508.381 28.7012L511.331 29.0056L514.286 29.3166L517.246 29.6349L520.206 29.961L523.163 30.2954L526.116 30.6386L529.061 30.991L531.994 31.3532L534.914 31.7255L537.817 32.1082L540.7 32.5016L543.56 32.9061L546.396 33.3216L549.203 33.7486L551.98 34.1869L554.725 34.6368L557.436 35.0982L560.109 35.5712L562.743 36.0558L565.337 36.5519L567.886 37.0595L570.391 37.5786L572.847 38.1091L575.254 38.6508L577.61 39.2036L579.912 39.7675L582.158 40.3421L584.348 40.9274L586.479 41.5231L588.55 42.129L590.559 42.7449L592.505 43.3704L594.387 44.0054L596.203 44.6495L597.954 45.3023L599.637 45.9637L601.252 46.6332L602.799 47.3105L604.277 47.9952L605.685 48.6871L607.024 49.3856L608.294 50.0904L609.494 50.8012L610.625 51.5176L611.686 52.2392L612.679 52.9655L613.604 53.6963L614.462 54.4312L615.253 55.1697L615.979 55.9115L616.64 56.6562L617.237 57.4036L617.772 58.1532L618.245 58.9047L618.659 59.6578L619.014 60.4123L619.313 61.1677L619.555 61.9238L619.744 62.6805L619.88 63.4373L619.965 64.194L620 64.9506L619.987 65.7066L619.928 66.462L619.825 67.2166L619.677 67.9701L619.488 68.7226L619.258 69.4737L618.989 70.2234L618.682 70.9716L618.337 71.7182Z" stroke="black"/>
</g>
<defs>
<filter id="filter0_f_698_12952" x="-250" y="-250" width="1120" height="643" filterUnits="userSpaceOnUse" color-interpolation-filters="sRGB">
<feFlood flood-opacity="0" result="BackgroundImageFix"/>
<feBlend mode="normal" in="SourceGraphic" in2="BackgroundImageFix" result="shape"/>
<feGaussianBlur stdDeviation="125" result="effect1_foregroundBlur_698_12952"/>
</filter>
<linearGradient id="paint0_linear_698_12952" x1="436.236" y1="152.216" x2="516.902" y2="-78.9644" gradientUnits="userSpaceOnUse">
<stop stop-color="#7F7FBF"/>
<stop offset="0.339489" stop-color="#ABEBFF"/>
</linearGradient>
</defs>
</svg>
